<?xml version="1.0" encoding="UTF-8" standalone="yes"?>
<!DOCTYPE svg PUBLIC "-//W3C//DTD SVG 1.1//EN" "http://www.w3.org/Graphics/SVG/1.1/DTD/svg11.dtd">

<svg width="376" height="205" viewBox="0 0 376 205" xmlns="http://www.w3.org/2000/svg" xmlns:xlink="http://www.w3.org/1999/xlink" version="1.1" baseProfile="full">
    <g transform="scale(1,-1) translate(0,-205)">
        <path d="M 9.790734 13.665089 L 8.191337 12.717298 Q 7.742828 13.495841 7.336632 13.732788 Q 6.913511 14.003586 6.244980 14.003586 Q 5.424125 14.003586 4.882530 13.538153 Q 4.340935 13.081182 4.340935 12.387263 Q 4.340935 11.431010 5.762622 10.847103 L 7.065835 10.313970 Q 8.656770 9.670826 9.393001 8.744191 Q 10.129231 7.817556 10.129231 6.472031 Q 10.129231 4.669535 8.927567 3.493259 Q 7.717441 2.308520 5.923408 2.308520 Q 4.222461 2.308520 3.113884 3.315548 Q 2.022232 4.322576 1.751434 6.150459 L 3.748566 6.590505 Q 3.883964 5.439616 4.222461 4.999570 Q 4.831756 4.153328 5.999570 4.153328 Q 6.921974 4.153328 7.531268 4.771084 Q 8.140562 5.388841 8.140562 6.336632 Q 8.140562 6.717441 8.034782 7.034782 Q 7.929002 7.352123 7.704748 7.618689 Q 7.480493 7.885255 7.125072 8.117972 Q 6.769650 8.350688 6.278830 8.562249 L 5.017929 9.086919 Q 2.335341 10.220884 2.335341 12.404188 Q 2.335341 13.876649 3.460843 14.866753 Q 4.586345 15.865318 6.261905 15.865318 Q 8.521371 15.865318 9.790734 13.665089 Z M 15.282846 4.398738 L 20.148738 4.398738 L 20.148738 2.545468 L 11.373207 2.545468 L 15.909065 8.037579 Q 16.577596 8.858434 17.030336 9.459266 Q 17.483075 10.060098 17.720023 10.466294 Q 18.202381 11.261761 18.202381 11.896443 Q 18.202381 12.810384 17.559237 13.428141 Q 16.916093 14.045898 15.968302 14.045898 Q 13.988095 14.045898 13.700373 11.701807 L 11.737091 11.701807 Q 12.210987 15.831469 15.909065 15.831469 Q 17.694636 15.831469 18.904762 14.697504 Q 20.123351 13.563540 20.123351 11.887980 Q 20.123351 10.821715 19.556368 9.797762 Q 19.268646 9.264630 18.714357 8.532631 Q 18.160069 7.800631 17.313827 6.802065 Z M 28.551922 2.545468 L 28.551922 15.611446 L 31.293746 15.611446 Q 33.265491 15.611446 34.407917 15.222174 Q 35.634968 14.841365 36.633534 13.927424 Q 38.656053 12.082616 38.656053 9.078457 Q 38.656053 6.065835 36.548910 4.204102 Q 35.491107 3.273236 34.331756 2.909352 Q 33.248566 2.545468 31.259897 2.545468 Z M 30.523666 4.398738 L 31.412220 4.398738 Q 32.740820 4.398738 33.620912 4.677998 Q 34.501004 4.974182 35.211847 5.617326 Q 36.667384 6.945927 36.667384 9.078457 Q 36.667384 11.227912 35.228772 12.564974 Q 33.934022 13.758176 31.412220 13.758176 L 30.523666 13.758176 Z M 48.345525 13.758176 L 43.107286 13.758176 L 43.107286 10.618617 L 48.193201 10.618617 L 48.193201 8.765347 L 43.107286 8.765347 L 43.107286 4.398738 L 48.345525 4.398738 L 48.345525 2.545468 L 41.135542 2.545468 L 41.135542 15.611446 L 48.345525 15.611446 Z M 58.322719 13.665089 L 56.723322 12.717298 Q 56.274814 13.495841 55.868617 13.732788 Q 55.445496 14.003586 54.776965 14.003586 Q 53.956110 14.003586 53.414515 13.538153 Q 52.872920 13.081182 52.872920 12.387263 Q 52.872920 11.431010 54.294607 10.847103 L 55.597820 10.313970 Q 57.188755 9.670826 57.924986 8.744191 Q 58.661216 7.817556 58.661216 6.472031 Q 58.661216 4.669535 57.459552 3.493259 Q 56.249426 2.308520 54.455393 2.308520 Q 52.754446 2.308520 51.645869 3.315548 Q 50.554217 4.322576 50.283419 6.150459 L 52.280551 6.590505 Q 52.415950 5.439616 52.754446 4.999570 Q 53.363741 4.153328 54.531555 4.153328 Q 55.453959 4.153328 56.063253 4.771084 Q 56.672547 5.388841 56.672547 6.336632 Q 56.672547 6.717441 56.566767 7.034782 Q 56.460987 7.352123 56.236733 7.618689 Q 56.012478 7.885255 55.657057 8.117972 Q 55.301635 8.350688 54.810815 8.562249 L 53.549914 9.086919 Q 50.867326 10.220884 50.867326 12.404188 Q 50.867326 13.876649 51.992828 14.866753 Q 53.118330 15.865318 54.793890 15.865318 Q 57.053356 15.865318 58.322719 13.665089 Z M 63.010901 15.611446 L 63.010901 2.545468 L 61.039157 2.545468 L 61.039157 15.611446 Z M 72.869621 9.349254 L 78.268646 9.349254 L 78.268646 8.917671 Q 78.268646 7.445209 77.921687 6.311245 Q 77.583190 5.261905 76.779260 4.347963 Q 74.959839 2.300057 72.150316 2.300057 Q 69.408491 2.300057 67.453672 4.280264 Q 65.498853 6.268933 65.498853 9.053069 Q 65.498853 11.896443 67.487522 13.876649 Q 69.476190 15.865318 72.328026 15.865318 Q 73.859725 15.865318 75.188325 15.239099 Q 76.457688 14.612880 77.684739 13.208118 L 76.279977 11.862593 Q 74.672117 14.003586 72.361876 14.003586 Q 70.288583 14.003586 68.883821 12.573437 Q 67.479059 11.168675 67.479059 9.053069 Q 67.479059 6.869765 69.044607 5.456540 Q 70.508606 4.144865 72.218015 4.144865 Q 73.673551 4.144865 74.832903 5.126506 Q 75.992255 6.116609 76.127653 7.495984 L 72.869621 7.495984 Z M 80.748135 2.545468 L 80.748135 16.500000 L 90.276822 6.531268 L 90.276822 15.611446 L 92.248566 15.611446 L 92.248566 1.750000 L 82.719880 11.693345 L 82.719880 2.545468 Z" transform="scale(1.000000,1.000000) translate(141.000000,75.000000)" fill="#000000" opacity="1.000000"></path>
        <path d="M 35.118800 1.157400 L 38.147600 1.619700 L 41.071000 2.371400 L 43.873600 3.397100 L 46.540100 4.681600 L 49.055100 6.209600 L 51.403400 7.965600 L 53.569700 9.934400 L 55.538500 12.100600 L 57.294500 14.449000 L 58.822500 16.964000 L 60.107000 19.630500 L 61.132700 22.433100 L 61.884400 25.356500 L 62.346700 28.385300 L 62.504100 31.504100 L 62.346700 34.623000 L 61.884400 37.651800 L 61.132700 40.575200 L 60.107000 43.377800 L 58.822500 46.044300 L 57.294500 48.559300 L 55.538500 50.907700 L 53.569700 53.073900 L 51.403400 55.042700 L 49.055100 56.798700 L 46.540100 58.326700 L 43.873600 59.611200 L 41.071000 60.636900 L 38.147600 61.388600 L 35.118800 61.850900 L 31.999900 62.008300 L 28.881100 61.850900 L 25.852300 61.388600 L 22.928900 60.636900 L 20.126300 59.611200 L 17.459800 58.326700 L 14.944800 56.798700 L 12.596400 55.042700 L 10.430200 53.073900 L 8.461400 50.907700 L 6.705400 48.559300 L 5.177400 46.044300 L 3.892900 43.377800 L 2.867200 40.575200 L 2.115500 37.651800 L 1.653200 34.623000 L 1.495700 31.504100 L 1.653200 28.385300 L 2.115500 25.356500 L 2.867200 22.433100 L 3.892900 19.630500 L 5.177400 16.964000 L 6.705400 14.449000 L 8.461400 12.100600 L 10.430200 9.934400 L 12.596400 7.965600 L 14.944800 6.209600 L 17.459800 4.681600 L 20.126300 3.397100 L 22.928900 2.371400 L 25.852300 1.619700 L 28.881100 1.157400 L 31.999900 1.000000 Z M 29.085600 3.147100 L 26.255400 3.579100 L 23.523700 4.281400 L 20.904800 5.240000 L 18.413200 6.440300 L 16.063000 7.868000 L 13.868600 9.508900 L 11.844400 11.348600 L 10.004700 13.372800 L 8.363800 15.567200 L 6.936000 17.917400 L 5.735700 20.409000 L 4.777200 23.027900 L 4.074900 25.759600 L 3.642900 28.589800 L 3.495700 31.504100 L 3.642900 34.418500 L 4.074900 37.248700 L 4.777200 39.980400 L 5.735700 42.599300 L 6.936000 45.090900 L 8.363800 47.441100 L 10.004700 49.635500 L 11.844400 51.659700 L 13.868600 53.499400 L 16.063000 55.140300 L 18.413200 56.568000 L 20.904800 57.768300 L 23.523700 58.726900 L 26.255400 59.429200 L 29.085600 59.861200 L 31.999900 60.008300 L 34.914300 59.861200 L 37.744500 59.429200 L 40.476200 58.726900 L 43.095100 57.768300 L 45.586700 56.568000 L 47.936900 55.140300 L 50.131300 53.499400 L 52.155500 51.659700 L 53.995200 49.635500 L 55.636100 47.441100 L 57.063800 45.090900 L 58.264100 42.599300 L 59.222700 39.980400 L 59.925000 37.248700 L 60.357000 34.418500 L 60.504100 31.504100 L 60.357000 28.589800 L 59.925000 25.759600 L 59.222700 23.027900 L 58.264100 20.409000 L 57.063800 17.917400 L 55.636100 15.567200 L 53.995200 13.372800 L 52.155500 11.348600 L 50.131300 9.508900 L 47.936900 7.868000 L 45.586700 6.440300 L 43.095100 5.240000 L 40.476200 4.281400 L 37.744500 3.579100 L 34.914300 3.147100 L 31.999900 3.000000 Z" transform="scale(1.000000,1.000000) translate(156.000000,100.000000)" fill="#000000" opacity="1.000000"></path>
        <path d="M 28.703900 30.234600 L 29.519500 31.927600 L 22.685300 47.304600 L 22.000000 48.846600 L 21.314600 47.304600 L 14.981600 33.055300 L 15.685100 30.944800 L 22.000000 45.153300 L 28.661500 30.164800 Z" transform="scale(1.000000,1.000000) translate(181.000000,87.000000)" fill="#000000" opacity="1.000000"></path>
        <path d="M 6.046600 26.299300 L 7.467500 28.199400 L 8.703900 30.234600 L 8.849600 30.537100 L 1.666600 46.124900 L 4.995300 25.142500 Z" transform="scale(1.000000,1.000000) translate(201.000000,87.000000)" fill="#000000" opacity="1.000000"></path>
        <path d="M 22.000000 45.153300 L 28.314900 30.944700 L 29.018400 33.055200 L 22.685300 47.304600 L 21.999900 48.846600 L 21.314600 47.304600 L 14.480400 31.927600 L 15.296000 30.234600 L 15.338400 30.164800 Z" transform="scale(1.000000,1.000000) translate(151.000000,87.000000)" fill="#000000" opacity="1.000000"></path>
        <path d="M 21.333300 46.124900 L 14.150300 30.537100 L 14.296000 30.234600 L 15.532400 28.199400 L 16.953300 26.299300 L 18.004600 25.142500 Z" transform="scale(1.000000,1.000000) translate(152.000000,87.000000)" fill="#000000" opacity="1.000000"></path>
        <path d="M 28.765300 10.296000 L 29.813000 10.932500 L 17.711500 47.237100 L 17.000000 49.371700 L 16.288400 47.237100 L 4.186900 10.932500 L 5.234600 10.296000 L 5.511400 10.162600 L 17.000000 44.628200 L 28.488500 10.162600 Z" transform="scale(1.000000,1.000000) translate(171.000000,97.000000)" fill="#000000" opacity="1.000000"></path>
        <path d="M 6.974400 7.818400 L 9.339900 8.426600 L 11.607700 9.256600 L 13.765300 10.296000 L 14.050900 10.469500 L 1.875000 45.437400 L 6.325200 7.719300 Z" transform="scale(1.000000,1.000000) translate(186.000000,97.000000)" fill="#000000" opacity="1.000000"></path>
        <path d="M 60.504196 31.504200 C 60.504196 47.246635 47.742431 60.008400 31.999996 60.008400 C 16.257561 60.008400 3.495796 47.246635 3.495796 31.504200 C 3.495796 15.761765 16.257561 3.000000 31.999996 3.000000 C 47.742431 3.000000 60.504196 15.761765 60.504196 31.504200 Z M 62.504196 31.504200 C 62.504196 14.657196 48.847001 1.000000 31.999996 1.000000 C 15.152992 1.000000 1.495796 14.657196 1.495796 31.504200 C 1.495796 48.351204 15.152992 62.008400 31.999996 62.008400 C 48.847001 62.008400 62.504196 48.351204 62.504196 31.504200 Z" transform="scale(1.000000,1.000000) translate(156.000000,100.000000)" fill="#000000" opacity="1.000000"></path>
        <path d="M 93.696200 2.750000 L 1.000000 2.750000 L 1.000000 1.750000 L 93.696200 1.750000 Z M 291.000000 2.750000 L 198.303700 2.750000 L 198.303700 1.750000 L 291.000000 1.750000 Z" transform="scale(1.000000,1.000000) translate(42.000000,67.000000)" fill="#000000" opacity="1.000000"></path>
        <path d="M 1.446299 6.705100 L 2.014388 6.705100 L 2.014388 2.553250 L 1.446299 2.553250 Z M 2.859455 5.580229 L 3.342754 5.580229 L 3.342754 5.150630 Q 3.557553 5.416303 3.797790 5.532181 Q 4.038026 5.648060 4.331962 5.648060 Q 4.976361 5.648060 5.202466 5.198677 Q 5.326824 4.952788 5.326824 4.494925 L 5.326824 2.553250 L 4.809609 2.553250 L 4.809609 4.461010 Q 4.809609 4.737988 4.727646 4.907567 Q 4.591983 5.190198 4.235868 5.190198 Q 4.054984 5.190198 3.939105 5.153456 Q 3.729958 5.091277 3.571685 4.904741 Q 3.444501 4.754946 3.406346 4.595260 Q 3.368190 4.435573 3.368190 4.138810 L 3.368190 2.553250 L 2.859455 2.553250 Z M 6.381037 3.502891 Q 6.403648 3.248523 6.508221 3.112860 Q 6.700410 2.866971 7.175231 2.866971 Q 7.457862 2.866971 7.672661 2.989915 Q 7.887461 3.112860 7.887461 3.370054 Q 7.887461 3.565069 7.715056 3.666817 Q 7.604830 3.728995 7.279804 3.810958 L 6.875642 3.912706 Q 6.488437 4.008800 6.304727 4.127505 Q 5.976875 4.333826 5.976875 4.698420 Q 5.976875 5.128019 6.286356 5.393692 Q 6.595837 5.659365 7.118704 5.659365 Q 7.802672 5.659365 8.105087 5.258029 Q 8.294450 5.003661 8.288797 4.709725 L 7.808324 4.709725 Q 7.794193 4.882130 7.686793 5.023446 Q 7.511562 5.224114 7.079136 5.224114 Q 6.790852 5.224114 6.642471 5.113887 Q 6.494090 5.003661 6.494090 4.822778 Q 6.494090 4.624936 6.689105 4.506231 Q 6.802158 4.435573 7.022610 4.381873 L 7.358941 4.299910 Q 7.907245 4.167073 8.093781 4.042716 Q 8.390544 3.847700 8.390544 3.429406 Q 8.390544 3.025244 8.083889 2.731308 Q 7.777235 2.437372 7.149794 2.437372 Q 6.474306 2.437372 6.193088 2.744026 Q 5.911870 3.050681 5.892086 3.502891 Z M 10.250256 2.895234 Q 10.606371 2.895234 10.842368 3.193410 Q 11.078365 3.491585 11.078365 4.085110 Q 11.078365 4.446878 10.973792 4.706899 Q 10.775950 5.207156 10.250256 5.207156 Q 9.721736 5.207156 9.526721 4.678636 Q 9.422147 4.396005 9.422147 3.960753 Q 9.422147 3.610290 9.526721 3.364401 Q 9.724563 2.895234 10.250256 2.895234 Z M 8.933196 5.566097 L 9.427800 5.566097 L 9.427800 5.164761 Q 9.580421 5.371082 9.761305 5.484134 Q 10.018499 5.653713 10.366135 5.653713 Q 10.880524 5.653713 11.239465 5.259442 Q 11.598406 4.865172 11.598406 4.133158 Q 11.598406 3.143949 11.081192 2.720003 Q 10.753340 2.451503 10.318088 2.451503 Q 9.976104 2.451503 9.744347 2.601298 Q 9.608684 2.686087 9.441932 2.892407 L 9.441932 1.346416 L 8.933196 1.346416 Z M 12.191932 5.566097 L 12.709146 5.566097 L 12.709146 2.553250 L 12.191932 2.553250 Z M 12.191932 6.705100 L 12.709146 6.705100 L 12.709146 6.128533 L 12.191932 6.128533 Z M 13.492034 5.580229 L 13.975333 5.580229 L 13.975333 5.057361 Q 14.034686 5.209982 14.266443 5.429021 Q 14.498201 5.648060 14.800616 5.648060 Q 14.814748 5.648060 14.848663 5.645234 Q 14.882579 5.642408 14.964542 5.633929 L 14.964542 5.096930 Q 14.919321 5.105409 14.881166 5.108235 Q 14.843011 5.111061 14.797790 5.111061 Q 14.413412 5.111061 14.207091 4.863759 Q 14.000770 4.616457 14.000770 4.294257 L 14.000770 2.553250 L 13.492034 2.553250 Z M 16.665981 5.648060 Q 16.988180 5.648060 17.290596 5.496853 Q 17.593011 5.345645 17.751284 5.105409 Q 17.903905 4.876477 17.954779 4.571236 Q 18.000000 4.362089 18.000000 3.904227 L 15.781346 3.904227 Q 15.795477 3.443538 15.998972 3.165146 Q 16.202466 2.886755 16.629239 2.886755 Q 17.027749 2.886755 17.265159 3.149602 Q 17.400822 3.302222 17.457348 3.502891 L 17.957605 3.502891 Q 17.937821 3.336138 17.826181 3.131231 Q 17.714542 2.926323 17.576053 2.796313 Q 17.344295 2.570208 17.002312 2.491071 Q 16.818602 2.445850 16.586844 2.445850 Q 16.021582 2.445850 15.628725 2.857079 Q 15.235868 3.268307 15.235868 4.008800 Q 15.235868 4.737988 15.631551 5.193024 Q 16.027235 5.648060 16.665981 5.648060 Z M 17.477132 4.308389 Q 17.446043 4.639067 17.332990 4.836909 Q 17.123843 5.204329 16.634892 5.204329 Q 16.284429 5.204329 16.047019 4.951375 Q 15.809609 4.698420 15.795477 4.308389 Z M 18.946813 4.031411 Q 18.946813 3.545285 19.153134 3.217433 Q 19.359455 2.889581 19.814491 2.889581 Q 20.167780 2.889581 20.395298 3.193410 Q 20.622816 3.497238 20.622816 4.065326 Q 20.622816 4.639067 20.388232 4.914633 Q 20.153648 5.190198 19.808838 5.190198 Q 19.424460 5.190198 19.185637 4.896262 Q 18.946813 4.602325 18.946813 4.031411 Z M 19.712744 5.633929 Q 20.060380 5.633929 20.294964 5.486960 Q 20.430626 5.402171 20.603031 5.190198 L 20.603031 6.719232 L 21.091983 6.719232 L 21.091983 2.553250 L 20.634121 2.553250 L 20.634121 2.974370 Q 20.456063 2.694566 20.213001 2.570208 Q 19.969938 2.445850 19.656217 2.445850 Q 19.150308 2.445850 18.780061 2.871210 Q 18.409815 3.296570 18.409815 4.003147 Q 18.409815 4.664504 18.747559 5.149216 Q 19.085303 5.633929 19.712744 5.633929 Z M 23.412384 6.719232 L 23.906988 6.719232 L 23.906988 5.212808 Q 24.073741 5.430434 24.305498 5.544900 Q 24.537256 5.659365 24.808581 5.659365 Q 25.373843 5.659365 25.725719 5.270748 Q 26.077595 4.882130 26.077595 4.124679 Q 26.077595 3.406796 25.729959 2.931976 Q 25.382322 2.457156 24.766187 2.457156 Q 24.421377 2.457156 24.183967 2.623908 Q 24.042651 2.722829 23.881551 2.940455 L 23.881551 2.553250 L 23.412384 2.553250 Z M 24.735097 2.906539 Q 25.147739 2.906539 25.352646 3.234391 Q 25.557554 3.562243 25.557554 4.099242 Q 25.557554 4.576888 25.352646 4.890609 Q 25.147739 5.204329 24.749229 5.204329 Q 24.401593 5.204329 24.140159 4.947135 Q 23.878725 4.689941 23.878725 4.099242 Q 23.878725 3.672469 23.986125 3.406796 Q 24.186793 2.906539 24.735097 2.906539 Z M 28.561922 5.580229 L 29.124357 5.580229 Q 29.016958 5.289119 28.646711 4.251863 Q 28.369732 3.471801 28.183196 2.980023 Q 27.742292 1.821236 27.561408 1.566868 Q 27.380524 1.312500 26.939619 1.312500 Q 26.832220 1.312500 26.774280 1.320979 Q 26.716341 1.329458 26.631552 1.352068 L 26.631552 1.815583 Q 26.764388 1.778841 26.823741 1.770362 Q 26.883093 1.761883 26.928314 1.761883 Q 27.069630 1.761883 27.136048 1.808517 Q 27.202466 1.855152 27.247687 1.922983 Q 27.261819 1.945593 27.349434 2.154740 Q 27.437050 2.363887 27.476618 2.465635 L 26.357399 5.580229 L 26.933967 5.580229 L 27.745118 3.115686 Z M 33.035971 6.812500 Q 33.621017 6.812500 34.047790 6.586395 Q 34.666752 6.261370 34.805241 5.447392 L 34.248458 5.447392 Q 34.146711 5.902428 33.827338 6.110162 Q 33.507965 6.317896 33.021839 6.317896 Q 32.445272 6.317896 32.051002 5.885470 Q 31.656731 5.453045 31.656731 4.596673 Q 31.656731 3.856179 31.981757 3.391251 Q 32.306783 2.926323 33.041624 2.926323 Q 33.604059 2.926323 33.972893 3.252762 Q 34.341726 3.579201 34.350205 4.308389 L 33.050103 4.308389 L 33.050103 4.774730 L 34.873073 4.774730 L 34.873073 2.553250 L 34.511305 2.553250 L 34.375642 3.087423 Q 34.090185 2.773702 33.869733 2.652171 Q 33.499486 2.443024 32.928571 2.443024 Q 32.190904 2.443024 31.659558 2.920671 Q 31.080164 3.519848 31.080164 4.565583 Q 31.080164 5.608492 31.645426 6.224627 Q 32.182425 6.812500 33.035971 6.812500 Z M 36.936279 5.648060 Q 37.258479 5.648060 37.560894 5.496853 Q 37.863309 5.345645 38.021583 5.105409 Q 38.174203 4.876477 38.225077 4.571236 Q 38.270298 4.362089 38.270298 3.904227 L 36.051644 3.904227 Q 36.065776 3.443538 36.269270 3.165146 Q 36.472764 2.886755 36.899537 2.886755 Q 37.298047 2.886755 37.535457 3.149602 Q 37.671120 3.302222 37.727646 3.502891 L 38.227903 3.502891 Q 38.208119 3.336138 38.096480 3.131231 Q 37.984841 2.926323 37.846351 2.796313 Q 37.614594 2.570208 37.272610 2.491071 Q 37.088900 2.445850 36.857143 2.445850 Q 36.291881 2.445850 35.899023 2.857079 Q 35.506166 3.268307 35.506166 4.008800 Q 35.506166 4.737988 35.901850 5.193024 Q 36.297533 5.648060 36.936279 5.648060 Z M 37.747430 4.308389 Q 37.716341 4.639067 37.603289 4.836909 Q 37.394142 5.204329 36.905190 5.204329 Q 36.554727 5.204329 36.317317 4.951375 Q 36.079907 4.698420 36.065776 4.308389 Z M 38.894912 5.580229 L 39.378212 5.580229 L 39.378212 5.150630 Q 39.593011 5.416303 39.833248 5.532181 Q 40.073484 5.648060 40.367420 5.648060 Q 41.011819 5.648060 41.237924 5.198677 Q 41.362281 4.952788 41.362281 4.494925 L 41.362281 2.553250 L 40.845067 2.553250 L 40.845067 4.461010 Q 40.845067 4.737988 40.763104 4.907567 Q 40.627441 5.190198 40.271326 5.190198 Q 40.090442 5.190198 39.974563 5.153456 Q 39.765416 5.091277 39.607143 4.904741 Q 39.479959 4.754946 39.441804 4.595260 Q 39.403648 4.435573 39.403648 4.138810 L 39.403648 2.553250 L 38.894912 2.553250 Z M 42.114080 5.566097 L 42.631295 5.566097 L 42.631295 2.553250 L 42.114080 2.553250 Z M 42.114080 6.705100 L 42.631295 6.705100 L 42.631295 6.128533 L 42.114080 6.128533 Z M 43.908787 5.580229 L 43.908787 3.570722 Q 43.908787 3.338965 43.982271 3.191996 Q 44.117934 2.920671 44.488181 2.920671 Q 45.019527 2.920671 45.211716 3.395491 Q 45.316290 3.649859 45.316290 4.093589 L 45.316290 5.580229 L 45.825026 5.580229 L 45.825026 2.553250 L 45.344553 2.553250 L 45.350205 2.999807 Q 45.251285 2.827402 45.104316 2.708697 Q 44.813206 2.471287 44.397739 2.471287 Q 43.750514 2.471287 43.515930 2.903713 Q 43.388746 3.135470 43.388746 3.522675 L 43.388746 5.580229 Z M 46.921634 3.502891 Q 46.944245 3.248523 47.048818 3.112860 Q 47.241007 2.866971 47.715827 2.866971 Q 47.998458 2.866971 48.213258 2.989915 Q 48.428058 3.112860 48.428058 3.370054 Q 48.428058 3.565069 48.255653 3.666817 Q 48.145426 3.728995 47.820401 3.810958 L 47.416238 3.912706 Q 47.029034 4.008800 46.845324 4.127505 Q 46.517472 4.333826 46.517472 4.698420 Q 46.517472 5.128019 46.826953 5.393692 Q 47.136434 5.659365 47.659301 5.659365 Q 48.343268 5.659365 48.645683 5.258029 Q 48.835046 5.003661 48.829394 4.709725 L 48.348921 4.709725 Q 48.334789 4.882130 48.227389 5.023446 Q 48.052158 5.224114 47.619733 5.224114 Q 47.331449 5.224114 47.183068 5.113887 Q 47.034686 5.003661 47.034686 4.822778 Q 47.034686 4.624936 47.229702 4.506231 Q 47.342754 4.435573 47.563207 4.381873 L 47.899537 4.299910 Q 48.447842 4.167073 48.634378 4.042716 Q 48.931141 3.847700 48.931141 3.429406 Q 48.931141 3.025244 48.624486 2.731308 Q 48.317831 2.437372 47.690390 2.437372 Q 47.014902 2.437372 46.733684 2.744026 Q 46.452467 3.050681 46.432682 3.502891 Z M 50.988695 4.427094 L 52.407503 4.427094 L 52.407503 3.904227 L 50.988695 3.904227 Z M 56.319116 3.033723 Q 56.604574 3.033723 56.788284 3.093076 Q 57.116136 3.203302 57.325283 3.517022 Q 57.492035 3.768564 57.565519 4.161421 Q 57.607914 4.396005 57.607914 4.596673 Q 57.607914 5.368255 57.301259 5.795028 Q 56.994604 6.221801 56.313464 6.221801 L 55.315776 6.221801 L 55.315776 3.033723 Z M 54.750514 6.705100 L 56.432169 6.705100 Q 57.288541 6.705100 57.760535 6.097444 Q 58.181655 5.549139 58.181655 4.692767 Q 58.181655 4.031411 57.932939 3.497238 Q 57.494861 2.553250 56.426516 2.553250 L 54.750514 2.553250 Z M 58.851490 5.580229 L 59.334789 5.580229 L 59.334789 5.057361 Q 59.394142 5.209982 59.625899 5.429021 Q 59.857657 5.648060 60.160072 5.648060 Q 60.174204 5.648060 60.208119 5.645234 Q 60.242035 5.642408 60.323998 5.633929 L 60.323998 5.096930 Q 60.278777 5.105409 60.240622 5.108235 Q 60.202467 5.111061 60.157246 5.111061 Q 59.772868 5.111061 59.566547 4.863759 Q 59.360226 4.616457 59.360226 4.294257 L 59.360226 2.553250 L 58.851490 2.553250 Z M 60.764903 5.566097 L 61.282117 5.566097 L 61.282117 2.553250 L 60.764903 2.553250 Z M 60.764903 6.705100 L 61.282117 6.705100 L 61.282117 6.128533 L 60.764903 6.128533 Z M 62.299589 5.580229 L 63.107914 3.115686 L 63.952981 5.580229 L 64.509764 5.580229 L 63.367934 2.553250 L 62.825283 2.553250 L 61.708890 5.580229 Z M 66.205550 5.648060 Q 66.527749 5.648060 66.830165 5.496853 Q 67.132580 5.345645 67.290853 5.105409 Q 67.443474 4.876477 67.494348 4.571236 Q 67.539569 4.362089 67.539569 3.904227 L 65.320915 3.904227 Q 65.335046 3.443538 65.538541 3.165146 Q 65.742035 2.886755 66.168808 2.886755 Q 66.567318 2.886755 66.804728 3.149602 Q 66.940391 3.302222 66.996917 3.502891 L 67.497174 3.502891 Q 67.477390 3.336138 67.365751 3.131231 Q 67.254111 2.926323 67.115622 2.796313 Q 66.883865 2.570208 66.541881 2.491071 Q 66.358171 2.445850 66.126413 2.445850 Q 65.561151 2.445850 65.168294 2.857079 Q 64.775437 3.268307 64.775437 4.008800 Q 64.775437 4.737988 65.171120 5.193024 Q 65.566804 5.648060 66.205550 5.648060 Z M 67.016701 4.308389 Q 66.985612 4.639067 66.872559 4.836909 Q 66.663412 5.204329 66.174461 5.204329 Q 65.823998 5.204329 65.586588 4.951375 Q 65.349178 4.698420 65.335046 4.308389 Z M 68.164183 5.580229 L 68.647482 5.580229 L 68.647482 5.150630 Q 68.862282 5.416303 69.102518 5.532181 Q 69.342755 5.648060 69.636691 5.648060 Q 70.281090 5.648060 70.507195 5.198677 Q 70.631552 4.952788 70.631552 4.494925 L 70.631552 2.553250 L 70.114337 2.553250 L 70.114337 4.461010 Q 70.114337 4.737988 70.032374 4.907567 Q 69.896711 5.190198 69.540596 5.190198 Q 69.359713 5.190198 69.243834 5.153456 Q 69.034687 5.091277 68.876413 4.904741 Q 68.749229 4.754946 68.711074 4.595260 Q 68.672919 4.435573 68.672919 4.138810 L 68.672919 2.553250 L 68.164183 2.553250 Z M 72.951953 6.719232 L 73.446557 6.719232 L 73.446557 5.212808 Q 73.613310 5.430434 73.845067 5.544900 Q 74.076825 5.659365 74.348150 5.659365 Q 74.913412 5.659365 75.265288 5.270748 Q 75.617164 4.882130 75.617164 4.124679 Q 75.617164 3.406796 75.269528 2.931976 Q 74.921891 2.457156 74.305756 2.457156 Q 73.960946 2.457156 73.723536 2.623908 Q 73.582220 2.722829 73.421121 2.940455 L 73.421121 2.553250 L 72.951953 2.553250 Z M 74.274666 2.906539 Q 74.687308 2.906539 74.892215 3.234391 Q 75.097123 3.562243 75.097123 4.099242 Q 75.097123 4.576888 74.892215 4.890609 Q 74.687308 5.204329 74.288798 5.204329 Q 73.941162 5.204329 73.679728 4.947135 Q 73.418294 4.689941 73.418294 4.099242 Q 73.418294 3.672469 73.525694 3.406796 Q 73.726362 2.906539 74.274666 2.906539 Z M 78.101491 5.580229 L 78.663926 5.580229 Q 78.556527 5.289119 78.186280 4.251863 Q 77.909302 3.471801 77.722765 2.980023 Q 77.281861 1.821236 77.100977 1.566868 Q 76.920093 1.312500 76.479188 1.312500 Q 76.371789 1.312500 76.313849 1.320979 Q 76.255910 1.329458 76.171121 1.352068 L 76.171121 1.815583 Q 76.303957 1.778841 76.363310 1.770362 Q 76.422662 1.761883 76.467883 1.761883 Q 76.609199 1.761883 76.675617 1.808517 Q 76.742035 1.855152 76.787256 1.922983 Q 76.801388 1.945593 76.889003 2.154740 Q 76.976619 2.363887 77.016187 2.465635 L 75.896969 5.580229 L 76.473536 5.580229 L 77.284687 3.115686 Z M 80.834533 6.705100 L 82.702724 6.705100 Q 83.256681 6.705100 83.595838 6.392793 Q 83.934995 6.080486 83.934995 5.515224 Q 83.934995 5.029098 83.632580 4.668744 Q 83.330165 4.308389 82.702724 4.308389 L 81.396969 4.308389 L 81.396969 2.553250 L 80.834533 2.553250 Z M 83.366907 5.512397 Q 83.366907 5.970260 83.027750 6.134186 Q 82.841213 6.221801 82.516188 6.221801 L 81.396969 6.221801 L 81.396969 4.783209 L 82.516188 4.783209 Q 82.894913 4.783209 83.130910 4.944309 Q 83.366907 5.105409 83.366907 5.512397 Z M 84.963772 3.358749 Q 84.963772 3.138296 85.124872 3.011113 Q 85.285972 2.883929 85.506424 2.883929 Q 85.774923 2.883929 86.026465 3.008286 Q 86.450412 3.214607 86.450412 3.683774 L 86.450412 4.093589 Q 86.357143 4.034237 86.210175 3.994669 Q 86.063207 3.955100 85.921892 3.938142 L 85.613824 3.898574 Q 85.336845 3.861832 85.198356 3.782695 Q 84.963772 3.649859 84.963772 3.358749 Z M 86.196044 4.387526 Q 86.371275 4.410136 86.430627 4.534494 Q 86.464543 4.602325 86.464543 4.729509 Q 86.464543 4.989530 86.279420 5.106822 Q 86.094297 5.224114 85.749487 5.224114 Q 85.350977 5.224114 85.184225 5.009314 Q 85.090956 4.890609 85.062693 4.656025 L 84.587873 4.656025 Q 84.602005 5.215635 84.951054 5.434674 Q 85.300103 5.653713 85.760792 5.653713 Q 86.294965 5.653713 86.628469 5.450218 Q 86.959148 5.246724 86.959148 4.817125 L 86.959148 3.073291 Q 86.959148 2.994155 86.991650 2.946107 Q 87.024153 2.898060 87.128726 2.898060 Q 87.162642 2.898060 87.205037 2.902300 Q 87.247431 2.906539 87.295478 2.915018 L 87.295478 2.539119 Q 87.176773 2.505203 87.114595 2.496724 Q 87.052416 2.488245 86.945016 2.488245 Q 86.682169 2.488245 86.563464 2.674782 Q 86.501285 2.773702 86.475848 2.954586 Q 86.320401 2.751092 86.029291 2.601298 Q 85.738181 2.451503 85.387719 2.451503 Q 84.966599 2.451503 84.699512 2.707284 Q 84.432426 2.963065 84.432426 3.347443 Q 84.432426 3.768564 84.695273 4.000321 Q 84.958120 4.232079 85.384893 4.285779 Z M 88.095324 3.502891 Q 88.117935 3.248523 88.222508 3.112860 Q 88.414697 2.866971 88.889518 2.866971 Q 89.172149 2.866971 89.386948 2.989915 Q 89.601748 3.112860 89.601748 3.370054 Q 89.601748 3.565069 89.429343 3.666817 Q 89.319117 3.728995 88.994091 3.810958 L 88.589929 3.912706 Q 88.202724 4.008800 88.019014 4.127505 Q 87.691162 4.333826 87.691162 4.698420 Q 87.691162 5.128019 88.000643 5.393692 Q 88.310124 5.659365 88.832991 5.659365 Q 89.516958 5.659365 89.819374 5.258029 Q 90.008736 5.003661 90.003084 4.709725 L 89.522611 4.709725 Q 89.508480 4.882130 89.401080 5.023446 Q 89.225848 5.224114 88.793423 5.224114 Q 88.505139 5.224114 88.356758 5.113887 Q 88.208377 5.003661 88.208377 4.822778 Q 88.208377 4.624936 88.403392 4.506231 Q 88.516445 4.435573 88.736897 4.381873 L 89.073228 4.299910 Q 89.621532 4.167073 89.808068 4.042716 Q 90.104831 3.847700 90.104831 3.429406 Q 90.104831 3.025244 89.798176 2.731308 Q 89.491522 2.437372 88.864081 2.437372 Q 88.188593 2.437372 87.907375 2.744026 Q 87.626157 3.050681 87.606373 3.502891 Z M 90.989466 3.502891 Q 91.012077 3.248523 91.116650 3.112860 Q 91.308839 2.866971 91.783659 2.866971 Q 92.066290 2.866971 92.281090 2.989915 Q 92.495890 3.112860 92.495890 3.370054 Q 92.495890 3.565069 92.323485 3.666817 Q 92.213259 3.728995 91.888233 3.810958 L 91.484070 3.912706 Q 91.096866 4.008800 90.913156 4.127505 Q 90.585304 4.333826 90.585304 4.698420 Q 90.585304 5.128019 90.894785 5.393692 Q 91.204266 5.659365 91.727133 5.659365 Q 92.411100 5.659365 92.713516 5.258029 Q 92.902878 5.003661 92.897226 4.709725 L 92.416753 4.709725 Q 92.402621 4.882130 92.295222 5.023446 Q 92.119990 5.224114 91.687565 5.224114 Q 91.399281 5.224114 91.250900 5.113887 Q 91.102519 5.003661 91.102519 4.822778 Q 91.102519 4.624936 91.297534 4.506231 Q 91.410586 4.435573 91.631039 4.381873 L 91.967370 4.299910 Q 92.515674 4.167073 92.702210 4.042716 Q 92.998973 3.847700 92.998973 3.429406 Q 92.998973 3.025244 92.692318 2.731308 Q 92.385664 2.437372 91.758223 2.437372 Q 91.082734 2.437372 90.801517 2.744026 Q 90.520299 3.050681 90.500514 3.502891 Z M 93.581193 5.566097 L 94.098408 5.566097 L 94.098408 2.553250 L 93.581193 2.553250 Z M 93.581193 6.705100 L 94.098408 6.705100 L 94.098408 6.128533 L 93.581193 6.128533 Z M 96.068346 2.881102 Q 96.574256 2.881102 96.762205 3.264067 Q 96.950155 3.647032 96.950155 4.116200 Q 96.950155 4.540146 96.814492 4.805820 Q 96.599692 5.224114 96.073999 5.224114 Q 95.607657 5.224114 95.395684 4.867998 Q 95.183711 4.511883 95.183711 4.008800 Q 95.183711 3.525501 95.395684 3.203302 Q 95.607657 2.881102 96.068346 2.881102 Z M 96.088130 5.667844 Q 96.673176 5.667844 97.077339 5.277813 Q 97.481501 4.887783 97.481501 4.130331 Q 97.481501 3.398317 97.125386 2.920671 Q 96.769271 2.443024 96.020299 2.443024 Q 95.395684 2.443024 95.028264 2.865558 Q 94.660843 3.288091 94.660843 4.000321 Q 94.660843 4.763425 95.048048 5.215635 Q 95.435252 5.667844 96.088130 5.667844 Z M 98.086332 5.580229 L 98.569631 5.580229 L 98.569631 5.150630 Q 98.784430 5.416303 99.024667 5.532181 Q 99.264903 5.648060 99.558839 5.648060 Q 100.203238 5.648060 100.429343 5.198677 Q 100.553701 4.952788 100.553701 4.494925 L 100.553701 2.553250 L 100.036486 2.553250 L 100.036486 4.461010 Q 100.036486 4.737988 99.954523 4.907567 Q 99.818860 5.190198 99.462745 5.190198 Q 99.281861 5.190198 99.165982 5.153456 Q 98.956835 5.091277 98.798562 4.904741 Q 98.671378 4.754946 98.633223 4.595260 Q 98.595068 4.435573 98.595068 4.138810 L 98.595068 2.553250 L 98.086332 2.553250 Z" transform="scale(1.000000,1.000000) translate(137.000000,65.000000)" fill="#000000" opacity="1.000000"></path>
        <path d="M 10.034715 12.729270 L 2.201381 7.118159 L 2.201381 7.931113 L 10.034715 2.320002 L 9.452386 2.320002 L 17.285720 7.931113 L 17.285720 7.118159 L 9.452386 12.729270 L 10.034715 12.729270 Z M 9.452386 13.542223 C 9.626469 13.666921 9.860632 13.666921 10.034715 13.542223 L 17.868049 7.931113 C 18.146496 7.731657 18.146496 7.317614 17.868049 7.118159 L 10.034715 1.507048 C 9.860632 1.382350 9.626469 1.382350 9.452386 1.507048 L 1.619053 7.118159 C 1.340605 7.317614 1.340605 7.731657 1.619053 7.931113 L 9.452386 13.542223 Z" transform="scale(1.000000,1.000000) translate(179.000000,44.000000)" fill="#000000" opacity="1.000000"></path>
        <path d="M 1.993046 7.945002 L 9.826379 2.333891 L 9.244051 2.333891 L 17.077385 7.945002 L 17.368549 7.038525 L 1.701882 7.038525 L 1.993046 7.945002 Z M 1.410717 7.132048 C 1.015559 7.415105 1.215804 8.038525 1.701882 8.038525 L 17.368549 8.038525 C 17.854626 8.038525 18.054871 7.415105 17.659713 7.132048 L 9.826379 1.520938 C 9.652297 1.396240 9.418134 1.396240 9.244051 1.520938 L 1.410717 7.132048 Z" transform="scale(1.000000,1.000000) translate(189.000000,51.000000)" fill="#000000" opacity="1.000000"></path>
        <path d="M 2.409714 7.945002 L 10.243047 2.333891 L 9.660719 2.333891 L 17.494053 7.945002 L 17.785217 7.038525 L 2.118550 7.038525 L 2.409714 7.945002 Z M 1.827385 7.132048 C 1.432227 7.415105 1.632472 8.038525 2.118550 8.038525 L 17.785217 8.038525 C 18.271294 8.038525 18.471539 7.415105 18.076381 7.132048 L 10.243047 1.520938 C 10.068965 1.396240 9.834802 1.396240 9.660719 1.520938 L 1.827385 7.132048 Z" transform="scale(1.000000,1.000000) translate(169.000000,51.000000)" fill="#000000" opacity="1.000000"></path>
    </g>
</svg>