<?xml version="1.0" encoding="UTF-8" standalone="yes"?>
<!DOCTYPE svg PUBLIC "-//W3C//DTD SVG 1.1//EN" "http://www.w3.org/Graphics/SVG/1.1/DTD/svg11.dtd">

<svg width="376" height="202" viewBox="0 0 376 202" xmlns="http://www.w3.org/2000/svg" xmlns:xlink="http://www.w3.org/1999/xlink" version="1.1" baseProfile="full">
    <g transform="scale(1,-1) translate(0,-202)">
        <path d="M 7.282484 1.750000 C 10.232484 1.750000 12.412102 3.290764 12.412102 5.883758 C 12.412102 8.345223 10.138535 9.096815 7.470382 9.754459 C 4.821019 10.412102 3.205096 10.919427 3.205096 12.779618 C 3.205096 14.508280 4.595541 15.560510 6.850319 15.560510 C 8.297134 15.560510 9.650000 15.090764 10.551911 13.963376 L 10.833758 13.606369 L 11.585350 14.170064 L 11.303503 14.527070 C 10.194904 15.898726 8.578981 16.481210 6.831529 16.481210 C 3.919108 16.481210 2.228026 15.015605 2.228026 12.798408 C 2.228026 11.595860 2.772930 10.693949 3.900319 10.017516 C 4.821019 9.472611 6.023567 9.171975 7.188535 8.890127 C 9.819108 8.251274 11.416242 7.725159 11.416242 5.902548 C 11.416242 3.910828 9.819108 2.670701 7.244904 2.670701 C 4.464013 2.670701 3.317834 3.798089 2.697771 4.624841 L 1.946178 4.061147 C 3.505733 2.088217 5.347134 1.750000 7.282484 1.750000 Z M 22.333121 1.750000 L 22.333121 2.689490 L 15.512420 2.689490 C 15.831847 8.514331 22.408280 8.100955 22.408280 12.892357 L 22.408280 12.911146 C 22.408280 12.892357 22.408280 16.500000 18.612739 16.500000 C 15.831847 16.500000 14.760828 14.583439 14.742038 14.545860 L 15.550000 14.076115 C 16.245223 15.034395 17.447771 15.692038 18.612739 15.692038 C 20.209873 15.692038 21.506369 14.433121 21.506369 12.873567 C 21.506369 8.927707 14.591720 8.984076 14.591720 2.238535 L 14.591720 1.750000 Z M 34.414968 1.750000 C 37.364968 1.750000 40.352548 4.681210 40.352548 9.153185 C 40.352548 12.873567 37.947452 16.481210 34.433758 16.481210 L 30.093312 16.481210 L 30.093312 1.750000 Z M 31.032803 2.689490 L 31.032803 15.541720 L 34.433758 15.541720 C 37.177070 15.541720 39.413057 12.666879 39.413057 9.134395 C 39.413057 5.677070 37.177070 2.689490 34.433758 2.689490 Z M 51.682803 1.750000 L 51.682803 2.689490 L 43.847452 2.689490 L 43.847452 8.457962 C 43.847452 8.645860 43.941401 9.059236 44.617834 9.059236 L 51.664013 9.059236 L 51.664013 9.998726 L 44.617834 9.998726 C 44.185669 9.998726 44.054140 9.961146 43.828662 9.867197 L 43.828662 15.541720 L 51.664013 15.541720 L 51.664013 16.481210 L 42.889172 16.481210 L 42.889172 1.750000 Z M 59.067197 1.750000 C 62.017197 1.750000 64.196815 3.290764 64.196815 5.883758 C 64.196815 8.345223 61.923248 9.096815 59.255096 9.754459 C 56.605732 10.412102 54.989809 10.919427 54.989809 12.779618 C 54.989809 14.508280 56.380255 15.560510 58.635032 15.560510 C 60.081847 15.560510 61.434713 15.090764 62.336624 13.963376 L 62.618471 13.606369 L 63.370064 14.170064 L 63.088217 14.527070 C 61.979618 15.898726 60.363694 16.481210 58.616242 16.481210 C 55.703822 16.481210 54.012739 15.015605 54.012739 12.798408 C 54.012739 11.595860 54.557643 10.693949 55.685032 10.017516 C 56.605732 9.472611 57.808280 9.171975 58.973248 8.890127 C 61.603822 8.251274 63.200955 7.725159 63.200955 5.902548 C 63.200955 3.910828 61.603822 2.670701 59.029618 2.670701 C 56.248726 2.670701 55.102548 3.798089 54.482484 4.624841 L 53.730892 4.061147 C 55.290446 2.088217 57.131847 1.750000 59.067197 1.750000 Z M 66.733439 1.750000 L 67.672930 1.750000 L 67.672930 16.481210 L 66.733439 16.481210 Z M 76.203503 1.750000 C 78.890446 1.750000 82.065924 4.831529 82.065924 9.021656 C 82.065924 9.265924 81.821656 9.510191 81.577389 9.510191 C 81.577389 9.510191 77.180573 9.510191 77.161783 9.510191 C 75.357962 9.435032 74.925796 8.100955 74.907006 8.063376 L 75.790127 7.725159 C 75.996815 8.157325 76.485350 8.533121 77.293312 8.533121 C 77.293312 8.533121 81.070064 8.533121 81.070064 8.533121 C 80.844586 5.188535 78.345541 2.651911 76.184713 2.651911 C 73.403822 2.651911 71.149045 5.526752 71.149045 9.059236 C 71.149045 12.591720 73.403822 15.466561 76.184713 15.466561 C 77.800637 15.466561 79.322611 14.470701 80.262102 12.798408 L 81.088853 13.268153 C 79.999045 15.203503 78.157643 16.424841 76.184713 16.424841 C 72.840127 16.424841 70.209554 13.023885 70.209554 9.040446 C 70.209554 5.320064 72.577070 1.750000 76.203503 1.750000 Z M 93.095541 16.481210 L 93.095541 2.727070 L 85.598408 16.481210 L 84.602548 16.481210 L 84.602548 1.750000 L 85.542038 1.750000 L 85.542038 14.639809 L 92.569427 1.750000 L 94.053822 1.750000 L 94.053822 16.481210 Z" transform="scale(1.000000,1.000000) translate(140.000000,87.000000)" fill="#000000" opacity="1.000000"></path>
        <path d="M 30.313300 1.560700 L 29.778600 2.194400 L 29.191700 2.896300 L 28.559700 3.657000 L 27.889800 4.467000 L 27.178000 5.331400 L 26.465200 6.196500 L 25.721400 7.101600 L 24.976400 8.007600 L 24.230500 8.914300 L 23.483400 9.821900 L 22.765900 10.690700 L 22.047500 11.560200 L 21.370500 12.375800 L 20.435700 12.536900 L 19.521000 12.585700 L 18.690200 12.626500 L 17.857400 12.662800 L 16.937400 12.699000 L 15.942800 12.735100 L 14.886300 12.770800 L 13.762100 12.806300 L 12.638700 12.841500 L 11.466500 12.876400 L 10.295200 12.911100 L 9.124900 12.945500 L 7.955600 12.979600 L 6.836500 13.013800 L 5.718100 13.047700 L 4.668100 13.081800 L 3.680000 13.116200 L 2.765800 13.150900 L 1.937500 13.186100 L 1.937400 13.183900 L 2.765300 13.143900 L 3.678300 13.095500 L 4.663800 13.040200 L 5.709500 12.979100 L 6.821200 12.911600 L 7.932000 12.844400 L 9.090300 12.772800 L 10.247700 12.701400 L 11.404100 12.630200 L 12.559600 12.559300 L 13.666200 12.493200 L 14.771900 12.427200 L 15.811200 12.367800 L 16.790300 12.314100 L 17.697300 12.267200 L 18.520800 12.228300 L 19.346200 12.193800 L 20.258700 12.159600 L 21.194300 12.020600 L 21.874900 11.236800 L 22.601100 10.404400 L 23.328100 9.571400 L 24.089000 8.702600 L 24.850900 7.832900 L 25.613800 6.962500 L 26.377800 6.091200 L 27.109700 5.254400 L 27.842400 4.417000 L 28.530100 3.627600 L 29.176600 2.882100 L 29.773400 2.189700 L 30.311600 1.559300 Z" transform="scale(1.000000,1.000000) translate(166.000000,134.000000)" fill="#000000" opacity="1.000000"></path>
        <path d="M 3.199200 6.077600 L 3.316100 6.475500 L 3.424400 6.850700 L 3.522200 7.198700 L 3.608000 7.514900 L 3.689900 7.832100 L 3.777000 8.183000 L 3.868600 8.562600 L 3.963800 8.966200 L 4.162400 9.826300 L 4.571400 11.623300 L 4.770000 12.483400 L 4.865200 12.887100 L 4.956800 13.266700 L 5.043900 13.617600 L 5.125800 13.934800 L 5.124100 13.935300 L 5.038400 13.619000 L 4.940500 13.271000 L 4.832200 12.895800 L 4.715300 12.497900 L 4.462300 11.652200 L 3.928700 9.888200 L 3.675700 9.042500 L 3.558800 8.644600 L 3.450500 8.269400 L 3.352700 7.921400 L 3.266900 7.605200 L 3.185000 7.287900 L 3.097900 6.937100 L 3.006300 6.557500 L 2.911100 6.153800 L 2.893500 6.077500 L 3.199200 6.077500 Z" transform="scale(1.000000,1.000000) translate(173.000000,104.000000)" fill="#000000" opacity="1.000000"></path>
        <path d="M 23.871800 9.042200 L 24.037800 9.279900 L 24.044000 9.569700 L 20.120700 23.598600 L 40.002300 21.188700 L 40.299200 21.244600 L 40.509700 21.461400 L 43.387700 27.217500 L 48.866500 27.813000 L 49.140800 27.931000 L 49.291100 28.165500 L 49.295600 28.444000 L 49.132500 28.694100 L 44.632500 32.444100 L 44.176700 32.541300 L 34.732800 29.877600 L 23.815800 42.511900 L 23.466300 42.684200 L 1.841300 43.934200 L 1.547600 43.860900 L 1.360900 43.649700 L 1.314900 43.371500 L 1.443600 43.097500 L 18.761700 24.171300 L 14.694000 8.077500 L 15.725400 8.077500 L 19.379600 22.535300 L 22.991100 9.621500 L 21.030500 8.077500 L 22.646800 8.077500 Z M 19.669400 24.660600 L 3.011900 42.864900 L 23.197300 41.698100 L 34.184100 28.983100 L 34.418700 28.831100 L 34.698200 28.828800 L 44.194700 31.507300 L 47.587700 28.679800 L 43.008400 28.182100 L 42.615200 27.908600 L 39.772800 22.223800 Z" transform="scale(1.000000,1.000000) translate(163.000000,102.000000)" fill="#000000" opacity="1.000000"></path>
        <path d="M 7.343900 2.101300 L 1.968900 9.601300 L 1.156000 9.018800 L 6.531000 1.518800 Z" transform="scale(1.000000,1.000000) translate(196.000000,122.000000)" fill="#000000" opacity="1.000000"></path>
        <path d="M 6.801100 18.954100 L 5.823800 19.166000 L 1.948800 1.291000 L 2.926100 1.079100 Z" transform="scale(1.000000,1.000000) translate(180.000000,125.000000)" fill="#000000" opacity="1.000000"></path>
        <path d="M 19.173700 11.244400 L 18.701200 12.125700 L 1.451200 2.875700 L 1.923700 1.994400 Z" transform="scale(1.000000,1.000000) translate(184.000000,112.000000)" fill="#000000" opacity="1.000000"></path>
        <path d="M 3.673400 5.817200 L 2.701500 6.052800 L 1.701500 1.927800 L 2.673400 1.692200 Z" transform="scale(1.000000,1.000000) translate(204.000000,128.000000)" fill="#000000" opacity="1.000000"></path>
        <path d="M 94.126100 2.750000 L 1.000000 2.750000 L 1.000000 1.750000 L 94.126100 1.750000 Z M 291.000000 2.750000 L 197.873800 2.750000 L 197.873800 1.750000 L 291.000000 1.750000 Z" transform="scale(1.000000,1.000000) translate(42.000000,79.000000)" fill="#000000" opacity="1.000000"></path>
        <path d="M 1.876115 2.429943 L 2.257681 2.429943 L 2.257681 6.812500 L 1.876115 6.812500 Z M 5.342913 2.429943 L 5.342913 4.441340 C 5.342913 5.133610 4.808721 5.695057 4.165510 5.695057 C 3.522299 5.695057 2.988107 5.133610 2.988107 4.441340 L 2.988107 2.429943 L 3.369673 2.429943 L 3.369673 4.441340 C 3.369673 4.926474 3.729435 5.313491 4.165510 5.313491 C 4.601585 5.313491 4.961348 4.926474 4.961348 4.441340 L 4.961348 2.429943 Z M 7.223488 2.429943 C 7.910307 2.429943 8.362735 2.838764 8.362735 3.400211 C 8.362735 3.956207 7.861248 4.146990 7.294351 4.288714 C 6.869177 4.397733 6.509415 4.490399 6.509415 4.828357 C 6.509415 5.117257 6.738355 5.318942 7.119920 5.318942 C 7.381566 5.318942 7.632309 5.258982 7.937562 4.861063 L 8.237363 5.095453 C 7.883052 5.569685 7.517839 5.695057 7.141724 5.695057 C 6.514866 5.695057 6.116947 5.357099 6.116947 4.828357 C 6.116947 4.266910 6.602081 4.065225 7.190783 3.918050 C 7.615956 3.809031 7.975718 3.721816 7.975718 3.389309 C 7.975718 3.040448 7.703171 2.816960 7.223488 2.816960 C 6.689296 2.816960 6.553022 2.953233 6.318632 3.263937 L 6.018830 3.029547 C 6.296828 2.653432 6.574826 2.429943 7.223488 2.429943 Z M 9.480178 5.313491 L 9.872646 5.313491 C 10.548563 5.313491 11.099108 4.762946 11.099108 4.087029 C 11.099108 3.411112 10.548563 2.860567 9.872646 2.860567 L 9.649157 2.860567 C 9.589197 2.860567 9.534688 2.855116 9.480178 2.844215 Z M 9.867195 5.695057 L 9.093161 5.695057 L 9.093161 1.312500 L 9.474727 1.312500 L 9.474727 2.359081 C 9.474727 2.380885 9.474727 2.479001 9.649157 2.479001 L 9.872646 2.479001 C 10.750248 2.479001 11.486125 3.214879 11.486125 4.092480 C 11.486125 5.013689 10.695738 5.695057 9.867195 5.695057 Z M 12.254707 2.429943 L 12.636273 2.429943 L 12.636273 5.695057 L 12.254707 5.695057 Z M 12.162041 6.534502 C 12.162041 6.381876 12.281962 6.261955 12.434588 6.261955 C 12.587215 6.261955 12.712586 6.381876 12.712586 6.534502 C 12.712586 6.687128 12.587215 6.812500 12.434588 6.812500 C 12.281962 6.812500 12.162041 6.687128 12.162041 6.534502 Z M 13.737363 2.429943 L 13.737363 4.441340 C 13.737363 4.926474 14.097126 5.313491 14.533201 5.313491 L 14.587710 5.313491 L 14.587710 5.695057 L 14.533201 5.695057 C 13.879088 5.695057 13.355798 5.122708 13.355798 4.435889 L 13.355798 2.429943 Z M 16.533696 2.429943 C 17.084242 2.429943 17.384043 2.675235 17.651140 3.034998 L 17.345887 3.263937 C 17.089693 2.920528 16.855302 2.816960 16.539147 2.816960 C 16.015857 2.816960 15.557978 3.405662 15.557978 3.868992 C 15.557978 3.907148 15.568880 3.999814 15.661546 3.999814 L 16.408325 3.999814 C 17.084242 3.999814 17.580277 4.370478 17.580277 4.877416 C 17.580277 5.346197 17.149653 5.695057 16.533696 5.695057 C 15.743310 5.695057 15.160059 4.910121 15.160059 4.016167 C 15.160059 3.182173 15.710604 2.429943 16.533696 2.429943 Z M 16.533696 5.318942 C 17.007928 5.318942 17.193260 5.079101 17.193260 4.882867 C 17.193260 4.604869 16.877106 4.392282 16.397423 4.392282 L 15.656095 4.392282 C 15.650644 4.392282 15.628840 4.392282 15.568880 4.381380 C 15.683350 4.921023 16.075817 5.318942 16.533696 5.318942 Z M 19.869673 2.429943 L 20.643706 2.429943 L 20.643706 6.812500 L 20.262141 6.812500 L 20.262141 5.765919 C 20.262141 5.744115 20.262141 5.645999 20.087710 5.645999 L 19.864222 5.645999 C 18.986620 5.645999 18.250743 4.910121 18.250743 4.032520 C 18.250743 3.105860 19.035679 2.429943 19.869673 2.429943 Z M 20.251239 5.269884 L 20.251239 2.806058 L 19.858771 2.806058 C 19.182854 2.806058 18.632309 3.356603 18.632309 4.032520 C 18.632309 4.708437 19.182854 5.258982 19.858771 5.258982 L 20.082259 5.258982 C 20.142220 5.258982 20.196729 5.264433 20.251239 5.275334 Z M 23.870664 2.429943 C 24.753716 2.429943 25.484143 3.149467 25.484143 4.032520 C 25.484143 4.910121 24.748265 5.645999 23.870664 5.645999 L 23.647175 5.645999 C 23.478196 5.645999 23.478196 5.738665 23.478196 5.765919 L 23.478196 6.812500 L 23.096630 6.812500 L 23.096630 2.429943 Z M 23.478196 2.811509 L 23.478196 5.275334 C 23.521804 5.264433 23.587215 5.258982 23.647175 5.258982 L 23.870664 5.258982 C 24.546581 5.258982 25.097126 4.708437 25.097126 4.032520 C 25.097126 3.362054 24.546581 2.795156 23.870664 2.806058 Z M 28.460357 5.695057 L 27.462834 3.013194 C 27.451932 3.051350 27.435580 3.094958 26.465312 5.695057 L 26.067393 5.695057 L 27.086719 2.969586 C 27.157582 2.773352 27.201189 2.598922 27.201189 2.457198 C 27.201189 2.075632 26.825074 1.683164 26.459861 1.683164 L 26.274529 1.683164 L 26.274529 1.312500 L 26.459861 1.312500 C 26.939544 1.312500 27.353816 1.677713 27.522795 2.130141 C 27.631814 2.413590 28.852824 5.695057 28.852824 5.695057 Z M 32.848365 2.429943 C 33.704162 2.429943 34.603568 3.411112 34.603568 4.604869 C 34.603568 4.702986 34.505451 4.801103 34.407334 4.801103 L 32.859266 4.801103 L 32.859266 4.408635 C 33.507929 4.408635 33.856789 4.408635 34.211100 4.408635 C 34.123885 3.487426 33.431615 2.811509 32.853816 2.811509 C 32.090684 2.811509 31.447473 3.612797 31.447473 4.621222 C 31.447473 5.629646 32.090684 6.430934 32.853816 6.430934 C 33.295342 6.430934 33.720515 6.152936 34.014866 5.629646 L 34.347374 5.814978 C 33.993062 6.452738 33.431615 6.812500 32.848365 6.812500 C 31.856293 6.812500 31.065907 5.798625 31.065907 4.615771 C 31.065907 3.509229 31.763627 2.429943 32.848365 2.429943 Z M 36.723984 2.429943 C 37.274529 2.429943 37.574331 2.675235 37.841427 3.034998 L 37.536174 3.263937 C 37.279980 2.920528 37.045590 2.816960 36.729435 2.816960 C 36.206145 2.816960 35.748266 3.405662 35.748266 3.868992 C 35.748266 3.907148 35.759167 3.999814 35.851833 3.999814 L 36.598612 3.999814 C 37.274529 3.999814 37.770565 4.370478 37.770565 4.877416 C 37.770565 5.346197 37.339940 5.695057 36.723984 5.695057 C 35.933598 5.695057 35.350347 4.910121 35.350347 4.016167 C 35.350347 3.182173 35.900892 2.429943 36.723984 2.429943 Z M 36.723984 5.318942 C 37.198216 5.318942 37.383548 5.079101 37.383548 4.882867 C 37.383548 4.604869 37.067393 4.392282 36.587711 4.392282 L 35.846382 4.392282 C 35.840932 4.392282 35.819128 4.392282 35.759167 4.381380 C 35.873637 4.921023 36.266105 5.318942 36.723984 5.318942 Z M 40.872151 2.429943 L 40.872151 4.441340 C 40.872151 5.133610 40.337958 5.695057 39.694747 5.695057 C 39.051536 5.695057 38.517344 5.133610 38.517344 4.441340 L 38.517344 2.429943 L 38.898910 2.429943 L 38.898910 4.441340 C 38.898910 4.926474 39.258672 5.313491 39.694747 5.313491 C 40.130823 5.313491 40.490585 4.926474 40.490585 4.441340 L 40.490585 2.429943 Z M 41.700694 2.429943 L 42.082260 2.429943 L 42.082260 5.695057 L 41.700694 5.695057 Z M 41.608028 6.534502 C 41.608028 6.381876 41.727948 6.261955 41.880575 6.261955 C 42.033201 6.261955 42.158573 6.381876 42.158573 6.534502 C 42.158573 6.687128 42.033201 6.812500 41.880575 6.812500 C 41.727948 6.812500 41.608028 6.687128 41.608028 6.534502 Z M 43.973736 2.429943 C 44.616947 2.429943 45.151140 2.991390 45.151140 3.683660 L 45.151140 5.695057 L 44.769574 5.695057 L 44.769574 3.683660 C 44.769574 3.198526 44.409812 2.811509 43.973736 2.811509 C 43.537661 2.811509 43.177899 3.198526 43.177899 3.683660 L 43.177899 5.695057 L 42.796333 5.695057 L 42.796333 3.683660 C 42.796333 2.991390 43.330525 2.429943 43.973736 2.429943 Z M 47.015362 2.429943 C 47.702180 2.429943 48.154609 2.838764 48.154609 3.400211 C 48.154609 3.956207 47.653122 4.146990 47.086224 4.288714 C 46.661051 4.397733 46.301288 4.490399 46.301288 4.828357 C 46.301288 5.117257 46.530228 5.318942 46.911794 5.318942 C 47.173439 5.318942 47.424182 5.258982 47.729435 4.861063 L 48.029237 5.095453 C 47.674926 5.569685 47.309713 5.695057 46.933598 5.695057 C 46.306739 5.695057 45.908821 5.357099 45.908821 4.828357 C 45.908821 4.266910 46.393954 4.065225 46.982656 3.918050 C 47.407830 3.809031 47.767592 3.721816 47.767592 3.389309 C 47.767592 3.040448 47.495045 2.816960 47.015362 2.816960 C 46.481169 2.816960 46.344896 2.953233 46.110505 3.263937 L 45.810704 3.029547 C 46.088702 2.653432 46.366700 2.429943 47.015362 2.429943 Z M 50.460357 3.852639 L 52.068385 3.852639 L 52.068385 4.234205 L 50.460357 4.234205 Z M 55.736868 2.429943 C 56.647175 2.429943 57.513875 3.323897 57.513875 4.632123 C 57.513875 5.722312 56.805253 6.812500 55.731417 6.812500 L 54.417740 6.812500 L 54.417740 2.429943 Z M 54.799306 2.811509 L 54.799306 6.430934 L 55.731417 6.430934 C 56.489098 6.430934 57.126858 5.629646 57.126858 4.626672 C 57.126858 3.650954 56.489098 2.800607 55.731417 2.806058 Z M 58.685828 2.429943 L 58.685828 4.441340 C 58.685828 4.926474 59.045590 5.313491 59.481665 5.313491 L 59.536174 5.313491 L 59.536174 5.695057 L 59.481665 5.695057 C 58.827552 5.695057 58.304262 5.122708 58.304262 4.435889 L 58.304262 2.429943 Z M 60.184837 2.429943 L 60.566402 2.429943 L 60.566402 5.695057 L 60.184837 5.695057 Z M 60.092171 6.534502 C 60.092171 6.381876 60.212091 6.261955 60.364718 6.261955 C 60.517344 6.261955 60.642716 6.381876 60.642716 6.534502 C 60.642716 6.687128 60.517344 6.812500 60.364718 6.812500 C 60.212091 6.812500 60.092171 6.687128 60.092171 6.534502 Z M 62.675917 2.429943 L 63.891477 5.695057 L 63.482656 5.695057 L 62.506938 3.078605 L 61.531219 5.695057 L 61.122398 5.695057 L 62.337958 2.429943 Z M 65.864718 2.429943 C 66.415263 2.429943 66.715065 2.675235 66.982161 3.034998 L 66.676908 3.263937 C 66.420714 2.920528 66.186323 2.816960 65.870169 2.816960 C 65.346878 2.816960 64.888999 3.405662 64.888999 3.868992 C 64.888999 3.907148 64.899901 3.999814 64.992567 3.999814 L 65.739346 3.999814 C 66.415263 3.999814 66.911298 4.370478 66.911298 4.877416 C 66.911298 5.346197 66.480674 5.695057 65.864718 5.695057 C 65.074331 5.695057 64.491080 4.910121 64.491080 4.016167 C 64.491080 3.182173 65.041625 2.429943 65.864718 2.429943 Z M 65.864718 5.318942 C 66.338950 5.318942 66.524282 5.079101 66.524282 4.882867 C 66.524282 4.604869 66.208127 4.392282 65.728444 4.392282 L 64.987116 4.392282 C 64.981665 4.392282 64.959861 4.392282 64.899901 4.381380 C 65.014371 4.921023 65.406839 5.318942 65.864718 5.318942 Z M 70.012884 2.429943 L 70.012884 4.441340 C 70.012884 5.133610 69.478692 5.695057 68.835481 5.695057 C 68.192270 5.695057 67.658077 5.133610 67.658077 4.441340 L 67.658077 2.429943 L 68.039643 2.429943 L 68.039643 4.441340 C 68.039643 4.926474 68.399405 5.313491 68.835481 5.313491 C 69.271556 5.313491 69.631318 4.926474 69.631318 4.441340 L 69.631318 2.429943 Z M 73.228940 2.429943 C 74.111992 2.429943 74.842418 3.149467 74.842418 4.032520 C 74.842418 4.910121 74.106541 5.645999 73.228940 5.645999 L 73.005451 5.645999 C 72.836472 5.645999 72.836472 5.738665 72.836472 5.765919 L 72.836472 6.812500 L 72.454906 6.812500 L 72.454906 2.429943 Z M 72.836472 2.811509 L 72.836472 5.275334 C 72.880079 5.264433 72.945491 5.258982 73.005451 5.258982 L 73.228940 5.258982 C 73.904856 5.258982 74.455402 4.708437 74.455402 4.032520 C 74.455402 3.362054 73.904856 2.795156 73.228940 2.806058 Z M 77.818632 5.695057 L 76.821110 3.013194 C 76.810208 3.051350 76.793855 3.094958 75.823588 5.695057 L 75.425669 5.695057 L 76.444995 2.969586 C 76.515857 2.773352 76.559465 2.598922 76.559465 2.457198 C 76.559465 2.075632 76.183350 1.683164 75.818137 1.683164 L 75.632805 1.683164 L 75.632805 1.312500 L 75.818137 1.312500 C 76.297820 1.312500 76.712091 1.677713 76.881071 2.130141 C 76.990089 2.413590 78.211100 5.695057 78.211100 5.695057 Z M 82.321110 6.812500 L 80.500496 6.812500 L 80.500496 2.429943 L 80.882062 2.429943 L 80.882062 4.435889 C 80.882062 4.484948 80.903865 4.544908 81.051041 4.544908 L 82.315659 4.544908 C 82.937067 4.544908 83.444004 5.051846 83.444004 5.673253 C 83.444004 6.294661 82.942518 6.807049 82.321110 6.812500 Z M 81.029237 4.921023 C 80.974728 4.921023 80.931120 4.915572 80.882062 4.904670 L 80.882062 6.425483 L 82.315659 6.425483 C 82.729931 6.425483 83.067889 6.082074 83.067889 5.667802 C 83.067889 5.253531 82.729931 4.921023 82.315659 4.921023 Z M 85.264619 2.429943 C 85.896928 2.429943 86.442022 2.855116 86.442022 3.405662 L 86.442022 4.713888 C 86.442022 5.253531 85.918732 5.695057 85.313677 5.695057 C 84.926660 5.695057 84.566898 5.531529 84.354311 5.248080 L 84.239842 5.095453 L 84.545094 4.866514 L 84.659564 5.019140 C 84.795838 5.199021 85.035679 5.313491 85.308226 5.313491 C 85.733400 5.313491 86.060456 5.035493 86.060456 4.719338 L 86.060456 4.539457 C 86.060456 4.397733 85.951437 4.392282 85.929634 4.392282 C 85.847869 4.392282 85.264619 4.392282 85.264619 4.392282 C 84.632309 4.392282 84.087215 3.961658 84.087215 3.411112 C 84.087215 2.860567 84.632309 2.429943 85.264619 2.429943 Z M 85.918732 4.005265 C 85.940535 4.005265 85.989594 4.005265 86.060456 4.021618 L 86.060456 3.411112 C 86.060456 3.094958 85.689792 2.816960 85.259168 2.816960 C 84.823092 2.816960 84.457879 3.094958 84.457879 3.411112 C 84.457879 3.732718 84.823092 3.994363 85.259168 3.999814 Z M 88.295342 2.429943 C 88.982161 2.429943 89.434589 2.838764 89.434589 3.400211 C 89.434589 3.956207 88.933102 4.146990 88.366204 4.288714 C 87.941031 4.397733 87.581269 4.490399 87.581269 4.828357 C 87.581269 5.117257 87.810208 5.318942 88.191774 5.318942 C 88.453419 5.318942 88.704163 5.258982 89.009416 4.861063 L 89.309217 5.095453 C 88.954906 5.569685 88.589693 5.695057 88.213578 5.695057 C 87.586720 5.695057 87.188801 5.357099 87.188801 4.828357 C 87.188801 4.266910 87.673935 4.065225 88.262637 3.918050 C 88.687810 3.809031 89.047572 3.721816 89.047572 3.389309 C 89.047572 3.040448 88.775025 2.816960 88.295342 2.816960 C 87.761150 2.816960 87.624876 2.953233 87.390486 3.263937 L 87.090684 3.029547 C 87.368682 2.653432 87.646680 2.429943 88.295342 2.429943 Z M 91.222498 2.429943 C 91.909316 2.429943 92.361745 2.838764 92.361745 3.400211 C 92.361745 3.956207 91.860258 4.146990 91.293360 4.288714 C 90.868187 4.397733 90.508424 4.490399 90.508424 4.828357 C 90.508424 5.117257 90.737364 5.318942 91.118930 5.318942 C 91.380575 5.318942 91.631318 5.258982 91.936571 4.861063 L 92.236373 5.095453 C 91.882062 5.569685 91.516849 5.695057 91.140734 5.695057 C 90.513875 5.695057 90.115957 5.357099 90.115957 4.828357 C 90.115957 4.266910 90.601090 4.065225 91.189792 3.918050 C 91.614966 3.809031 91.974728 3.721816 91.974728 3.389309 C 91.974728 3.040448 91.702181 2.816960 91.222498 2.816960 C 90.688306 2.816960 90.552032 2.953233 90.317641 3.263937 L 90.017840 3.029547 C 90.295838 2.653432 90.573836 2.429943 91.222498 2.429943 Z M 93.097622 2.429943 L 93.479188 2.429943 L 93.479188 5.695057 L 93.097622 5.695057 Z M 93.004956 6.534502 C 93.004956 6.381876 93.124876 6.261955 93.277503 6.261955 C 93.430129 6.261955 93.555501 6.381876 93.555501 6.534502 C 93.555501 6.687128 93.430129 6.812500 93.277503 6.812500 C 93.124876 6.812500 93.004956 6.687128 93.004956 6.534502 Z M 95.561447 2.429943 C 96.346383 2.429943 96.984143 3.160369 96.984143 4.065225 C 96.984143 4.899220 96.417245 5.695057 95.561447 5.695057 C 94.776512 5.695057 94.138752 4.964631 94.138752 4.065225 C 94.138752 3.225780 94.705649 2.429943 95.561447 2.429943 Z M 95.561447 5.324393 C 96.128345 5.324393 96.602577 4.768397 96.602577 4.070676 C 96.602577 3.372956 96.128345 2.811509 95.561447 2.811509 C 94.994549 2.811509 94.520317 3.372956 94.520317 4.070676 C 94.520317 4.768397 94.994549 5.324393 95.561447 5.324393 Z M 100.123885 2.429943 L 100.123885 4.441340 C 100.123885 5.133610 99.589693 5.695057 98.946482 5.695057 C 98.303271 5.695057 97.769079 5.133610 97.769079 4.441340 L 97.769079 2.429943 L 98.150645 2.429943 L 98.150645 4.441340 C 98.150645 4.926474 98.510407 5.313491 98.946482 5.313491 C 99.382557 5.313491 99.742319 4.926474 99.742319 4.441340 L 99.742319 2.429943 Z" transform="scale(1.000000,1.000000) translate(137.000000,77.000000)" fill="#000000" opacity="1.000000"></path>
        <path d="M 10.291166 12.944943 L 2.457832 7.333832 L 2.457832 8.146786 L 10.291166 2.535675 L 9.708837 2.535675 L 17.542171 8.146786 L 17.542171 7.333832 L 9.708837 12.944943 L 10.291166 12.944943 Z M 9.708837 13.757897 C 9.882920 13.882594 10.117083 13.882594 10.291166 13.757897 L 18.124499 8.146786 C 18.402947 7.947331 18.402947 7.533288 18.124499 7.333832 L 10.291166 1.722721 C 10.117083 1.598024 9.882920 1.598024 9.708837 1.722721 L 1.875504 7.333832 C 1.597056 7.533288 1.597056 7.947331 1.875504 8.146786 L 9.708837 13.757897 Z" transform="scale(1.000000,1.000000) translate(178.000000,58.000000)" fill="#000000" opacity="1.000000"></path>
        <path d="M 2.249497 8.160675 L 10.082830 2.549565 L 9.500502 2.549565 L 17.333835 8.160675 L 17.625000 7.254199 L 1.958332 7.254199 L 2.249497 8.160675 Z M 1.667168 7.347722 C 1.272010 7.630778 1.472255 8.254199 1.958332 8.254199 L 17.625000 8.254199 C 18.111077 8.254199 18.311322 7.630778 17.916164 7.347722 L 10.082830 1.736611 C 9.908747 1.611913 9.674585 1.611913 9.500502 1.736611 L 1.667168 7.347722 Z" transform="scale(1.000000,1.000000) translate(188.000000,65.000000)" fill="#000000" opacity="1.000000"></path>
        <path d="M 2.666165 8.160675 L 10.499498 2.549565 L 9.917170 2.549565 L 17.750503 8.160675 L 18.041668 7.254199 L 2.375000 7.254199 L 2.666165 8.160675 Z M 2.083836 7.347722 C 1.688678 7.630778 1.888923 8.254199 2.375000 8.254199 L 18.041668 8.254199 C 18.527745 8.254199 18.727990 7.630778 18.332832 7.347722 L 10.499498 1.736611 C 10.325415 1.611913 10.091253 1.611913 9.917170 1.736611 L 2.083836 7.347722 Z" transform="scale(1.000000,1.000000) translate(168.000000,65.000000)" fill="#000000" opacity="1.000000"></path>
    </g>
</svg>