<?xml version="1.0" encoding="UTF-8" standalone="yes"?>
<!DOCTYPE svg PUBLIC "-//W3C//DTD SVG 1.1//EN" "http://www.w3.org/Graphics/SVG/1.1/DTD/svg11.dtd">

<svg width="376" height="214" viewBox="0 0 376 214" xmlns="http://www.w3.org/2000/svg" xmlns:xlink="http://www.w3.org/1999/xlink" version="1.1" baseProfile="full">
    <g transform="scale(1,-1) translate(0,-214)">
        <path d="M 3.580752 6.370796 Q 3.502434 6.188053 3.502434 6.031416 Q 3.502434 5.665929 3.959292 5.274336 Q 4.416150 4.882743 5.160177 4.556416 Q 5.904204 4.230088 6.844027 4.021239 Q 7.783850 3.812389 8.749779 3.812389 Q 11.229867 3.812389 12.339381 4.543363 Q 13.448894 5.274336 13.448894 6.423009 Q 13.448894 6.971239 13.174779 7.336726 Q 12.900664 7.702212 12.417699 7.898009 Q 11.934735 8.093805 11.295133 8.172124 Q 10.655531 8.250442 9.924558 8.250442 Q 8.723673 8.250442 7.379204 8.263496 Q 6.034735 8.276549 4.912168 8.602876 Q 3.789602 8.929204 3.058628 9.686283 Q 2.327655 10.443363 2.327655 11.931416 Q 2.327655 12.871239 2.849779 13.641372 Q 3.371903 14.411504 4.272566 14.959735 Q 5.173230 15.507965 6.400221 15.821239 Q 7.627212 16.134513 9.063053 16.134513 Q 10.185619 16.134513 11.007965 15.977876 Q 11.830310 15.821239 12.430752 15.638496 Q 13.031195 15.455752 13.422788 15.299115 Q 13.814381 15.142478 14.075442 15.142478 Q 14.362611 15.142478 14.493142 15.246903 Q 14.623673 15.351327 14.754204 15.481858 L 15.067478 15.351327 L 13.631637 12.349115 L 13.344469 12.531858 Q 13.370575 12.610177 13.370575 12.871239 Q 13.370575 13.053982 13.057301 13.315044 Q 12.744027 13.576106 12.169690 13.824115 Q 11.595354 14.072124 10.799115 14.241814 Q 10.002876 14.411504 9.063053 14.411504 Q 6.948451 14.411504 5.708407 13.732743 Q 4.468363 13.053982 4.468363 11.957522 Q 4.468363 11.461504 4.742478 11.161283 Q 5.016593 10.861062 5.499558 10.691372 Q 5.982522 10.521681 6.622124 10.469469 Q 7.261726 10.417257 7.992699 10.417257 Q 9.219690 10.417257 10.551106 10.378097 Q 11.882522 10.338938 13.005088 9.973451 Q 14.127655 9.607965 14.858628 8.798673 Q 15.589602 7.989381 15.589602 6.423009 Q 15.589602 5.587611 15.158850 4.817478 Q 14.728097 4.047345 13.866593 3.446903 Q 13.005088 2.846460 11.738938 2.507080 Q 10.472788 2.167699 8.801991 2.167699 Q 7.392257 2.167699 6.361062 2.389602 Q 5.329867 2.611504 4.598894 2.911726 Q 3.867920 3.211947 3.398009 3.459956 Q 2.928097 3.707965 2.640929 3.707965 Q 2.379867 3.707965 2.092699 3.394690 L 1.831637 3.551327 L 3.241372 6.553540 Z M 19.087832 2.115487 Q 19.087832 3.760177 19.766593 4.895796 Q 20.445354 6.031416 21.476549 6.827655 Q 22.507743 7.623894 23.708628 8.185177 Q 24.909513 8.746460 25.940708 9.307743 Q 26.971903 9.869027 27.650664 10.508628 Q 28.329425 11.148230 28.329425 12.114159 Q 28.329425 13.288938 27.572345 13.902434 Q 26.815265 14.515929 25.405531 14.515929 Q 24.361283 14.515929 23.565044 14.176549 Q 22.768805 13.837168 22.246681 13.406416 Q 21.724558 12.975664 21.463496 12.557965 Q 21.202434 12.140265 21.228540 11.983628 Q 21.228540 11.826991 21.267699 11.696460 Q 21.306858 11.565929 21.359071 11.435398 L 21.098009 11.226549 L 19.035619 13.941593 L 19.296681 14.124336 Q 19.375000 14.072124 19.531637 13.954646 Q 19.688274 13.837168 19.792699 13.837168 Q 20.079867 13.837168 20.458407 14.202655 Q 20.836947 14.568142 21.489602 14.998894 Q 22.142257 15.429646 23.134292 15.782080 Q 24.126327 16.134513 25.640487 16.134513 Q 27.859513 16.134513 29.086504 15.064159 Q 30.313496 13.993805 30.313496 12.114159 Q 30.313496 10.939381 29.726106 10.117035 Q 29.138717 9.294690 28.251106 8.694248 Q 27.363496 8.093805 26.306195 7.623894 Q 25.248894 7.153982 24.309071 6.657965 Q 23.369248 6.161947 22.677434 5.574558 Q 21.985619 4.987168 21.828982 4.125664 L 30.313496 4.125664 Q 30.705088 4.125664 30.835619 4.269248 Q 30.966150 4.412832 30.966150 4.752212 L 31.279425 4.752212 L 31.279425 1.802212 L 30.966150 1.802212 Q 30.966150 2.037168 30.835619 2.141593 Q 30.705088 2.246018 30.313496 2.246018 L 20.132080 2.246018 Q 19.479425 2.246018 19.401106 1.802212 L 19.087832 1.802212 Z M 51.903319 3.969027 Q 54.200664 3.969027 55.349336 5.274336 Q 56.498009 6.579646 56.498009 9.111947 Q 56.498009 11.644248 55.179646 12.949558 Q 53.861283 14.254867 51.433407 14.254867 L 46.368805 14.254867 L 46.368805 3.969027 Z M 44.175885 15.038053 Q 44.175885 15.325221 44.045354 15.494912 Q 43.914823 15.664602 43.549336 15.664602 L 43.549336 15.977876 L 51.642257 15.977876 Q 53.260841 15.977876 54.553097 15.468805 Q 55.845354 14.959735 56.746018 14.046018 Q 57.646681 13.132301 58.142699 11.866150 Q 58.638717 10.600000 58.638717 9.111947 Q 58.638717 7.623894 58.221018 6.357743 Q 57.803319 5.091593 56.980973 4.177876 Q 56.158628 3.264159 54.944690 2.755088 Q 53.730752 2.246018 52.138274 2.246018 L 43.549336 2.246018 L 43.549336 2.559292 Q 43.914823 2.559292 44.045354 2.728982 Q 44.175885 2.898673 44.175885 3.185841 Z M 63.390044 15.038053 Q 63.390044 15.325221 63.259513 15.494912 Q 63.128982 15.664602 62.763496 15.664602 L 62.763496 15.977876 L 73.701991 15.977876 Q 74.380752 15.977876 74.563496 16.095354 Q 74.746239 16.212832 74.746239 16.500000 L 75.059513 16.500000 L 75.059513 13.523894 L 74.746239 13.523894 Q 74.746239 13.863274 74.537389 14.059071 Q 74.328540 14.254867 73.728097 14.254867 L 65.582965 14.254867 L 65.582965 10.130088 L 70.882522 10.130088 Q 71.352434 10.130088 71.652655 10.286726 Q 71.952876 10.443363 71.952876 10.861062 L 72.266150 10.861062 L 72.266150 7.702212 L 71.952876 7.702212 Q 71.952876 8.093805 71.717920 8.250442 Q 71.482965 8.407080 70.934735 8.407080 L 65.582965 8.407080 L 65.582965 3.969027 L 74.302434 3.969027 Q 74.850664 3.969027 75.111726 4.164823 Q 75.372788 4.360619 75.372788 4.856637 L 75.686062 4.856637 L 75.686062 1.750000 L 75.372788 1.750000 Q 75.372788 2.246018 74.459071 2.246018 L 62.763496 2.246018 L 62.763496 2.559292 Q 63.128982 2.559292 63.259513 2.728982 Q 63.390044 2.898673 63.390044 3.185841 Z M 81.194469 6.370796 Q 81.116150 6.188053 81.116150 6.031416 Q 81.116150 5.665929 81.573009 5.274336 Q 82.029867 4.882743 82.773894 4.556416 Q 83.517920 4.230088 84.457743 4.021239 Q 85.397566 3.812389 86.363496 3.812389 Q 88.843584 3.812389 89.953097 4.543363 Q 91.062611 5.274336 91.062611 6.423009 Q 91.062611 6.971239 90.788496 7.336726 Q 90.514381 7.702212 90.031416 7.898009 Q 89.548451 8.093805 88.908850 8.172124 Q 88.269248 8.250442 87.538274 8.250442 Q 86.337389 8.250442 84.992920 8.263496 Q 83.648451 8.276549 82.525885 8.602876 Q 81.403319 8.929204 80.672345 9.686283 Q 79.941372 10.443363 79.941372 11.931416 Q 79.941372 12.871239 80.463496 13.641372 Q 80.985619 14.411504 81.886283 14.959735 Q 82.786947 15.507965 84.013938 15.821239 Q 85.240929 16.134513 86.676770 16.134513 Q 87.799336 16.134513 88.621681 15.977876 Q 89.444027 15.821239 90.044469 15.638496 Q 90.644912 15.455752 91.036504 15.299115 Q 91.428097 15.142478 91.689159 15.142478 Q 91.976327 15.142478 92.106858 15.246903 Q 92.237389 15.351327 92.367920 15.481858 L 92.681195 15.351327 L 91.245354 12.349115 L 90.958186 12.531858 Q 90.984292 12.610177 90.984292 12.871239 Q 90.984292 13.053982 90.671018 13.315044 Q 90.357743 13.576106 89.783407 13.824115 Q 89.209071 14.072124 88.412832 14.241814 Q 87.616593 14.411504 86.676770 14.411504 Q 84.562168 14.411504 83.322124 13.732743 Q 82.082080 13.053982 82.082080 11.957522 Q 82.082080 11.461504 82.356195 11.161283 Q 82.630310 10.861062 83.113274 10.691372 Q 83.596239 10.521681 84.235841 10.469469 Q 84.875442 10.417257 85.606416 10.417257 Q 86.833407 10.417257 88.164823 10.378097 Q 89.496239 10.338938 90.618805 9.973451 Q 91.741372 9.607965 92.472345 8.798673 Q 93.203319 7.989381 93.203319 6.423009 Q 93.203319 5.587611 92.772566 4.817478 Q 92.341814 4.047345 91.480310 3.446903 Q 90.618805 2.846460 89.352655 2.507080 Q 88.086504 2.167699 86.415708 2.167699 Q 85.005973 2.167699 83.974779 2.389602 Q 82.943584 2.611504 82.212611 2.911726 Q 81.481637 3.211947 81.011726 3.459956 Q 80.541814 3.707965 80.254646 3.707965 Q 79.993584 3.707965 79.706416 3.394690 L 79.445354 3.551327 L 80.855088 6.553540 Z M 97.641372 2.559292 Q 98.006858 2.559292 98.137389 2.728982 Q 98.267920 2.898673 98.267920 3.185841 L 98.267920 15.038053 Q 98.267920 15.325221 98.137389 15.494912 Q 98.006858 15.664602 97.641372 15.664602 L 97.641372 15.977876 L 101.087389 15.977876 L 101.087389 15.664602 Q 100.721903 15.664602 100.591372 15.494912 Q 100.460841 15.325221 100.460841 15.038053 L 100.460841 3.185841 Q 100.460841 2.898673 100.591372 2.728982 Q 100.721903 2.559292 101.087389 2.559292 L 101.087389 2.246018 L 97.641372 2.246018 Z M 114.923673 7.415044 Q 114.009956 7.415044 114.009956 6.840708 L 113.696681 6.840708 L 113.696681 9.921239 L 114.009956 9.921239 Q 114.009956 9.138053 114.923673 9.138053 L 120.536504 9.138053 L 120.536504 8.824779 Q 120.249336 8.824779 120.157965 8.707301 Q 120.066593 8.589823 120.066593 8.146018 L 120.066593 5.874779 Q 120.066593 5.430973 120.171018 5.300442 Q 120.275442 5.169912 120.536504 5.117699 L 120.536504 4.804425 Q 118.656858 3.316372 116.685841 2.742035 Q 114.714823 2.167699 113.070133 2.167699 Q 111.347124 2.167699 109.885177 2.637611 Q 108.423230 3.107522 107.352876 4.008186 Q 106.282522 4.908850 105.682080 6.161947 Q 105.081637 7.415044 105.081637 8.929204 Q 105.081637 10.469469 105.669027 11.774779 Q 106.256416 13.080088 107.287611 14.059071 Q 108.318805 15.038053 109.728540 15.586283 Q 111.138274 16.134513 112.809071 16.134513 Q 114.479867 16.134513 115.615487 15.860398 Q 116.751106 15.586283 117.482080 15.246903 Q 118.213053 14.907522 118.617699 14.633407 Q 119.022345 14.359292 119.257301 14.359292 Q 119.466150 14.359292 119.557522 14.450664 Q 119.648894 14.542035 119.727212 14.672566 L 120.040487 14.463717 L 118.213053 11.774779 L 117.899779 11.983628 Q 118.004204 12.088053 118.004204 12.296903 Q 118.004204 12.531858 117.612611 12.871239 Q 117.221018 13.210619 116.529204 13.550000 Q 115.837389 13.889381 114.897566 14.124336 Q 113.957743 14.359292 112.861283 14.359292 Q 111.399336 14.359292 110.328982 13.928540 Q 109.258628 13.497788 108.566814 12.779867 Q 107.875000 12.061947 107.548673 11.122124 Q 107.222345 10.182301 107.222345 9.138053 Q 107.222345 7.858850 107.679204 6.879867 Q 108.136062 5.900885 108.880088 5.235177 Q 109.624115 4.569469 110.590044 4.217035 Q 111.555973 3.864602 112.600221 3.864602 Q 114.323230 3.864602 115.680752 4.308407 Q 117.038274 4.752212 117.925885 5.430973 L 117.925885 7.415044 Z M 137.662168 5.692035 L 137.662168 15.038053 Q 137.662168 15.325221 137.531637 15.494912 Q 137.401106 15.664602 137.035619 15.664602 L 137.035619 15.977876 L 140.168363 15.977876 L 140.168363 15.664602 Q 139.802876 15.664602 139.672345 15.494912 Q 139.541814 15.325221 139.541814 15.038053 L 139.541814 3.185841 Q 139.541814 2.898673 139.672345 2.728982 Q 139.802876 2.559292 140.168363 2.559292 L 140.168363 2.246018 L 136.826770 2.246018 L 136.826770 2.559292 Q 137.348894 2.559292 137.348894 2.768142 Q 137.348894 2.950885 137.244469 3.068363 Q 137.140044 3.185841 137.087832 3.264159 L 127.794027 13.837168 L 127.794027 3.185841 Q 127.794027 2.898673 127.924558 2.728982 Q 128.055088 2.559292 128.420575 2.559292 L 128.420575 2.246018 L 125.287832 2.246018 L 125.287832 2.559292 Q 125.653319 2.559292 125.783850 2.728982 Q 125.914381 2.898673 125.914381 3.185841 L 125.914381 15.038053 Q 125.914381 15.325221 125.783850 15.494912 Q 125.653319 15.664602 125.287832 15.664602 L 125.287832 15.977876 L 129.699779 15.977876 L 129.699779 15.664602 Q 129.412611 15.664602 129.308186 15.599336 Q 129.203761 15.534071 129.203761 15.377434 Q 129.203761 15.299115 129.269027 15.207743 Q 129.334292 15.116372 129.412611 15.038053 L 137.609956 5.692035 Z" transform="scale(1.000000,1.000000) translate(117.000000,71.000000)" fill="#000000" opacity="1.000000"></path>
        <path d="M 45.605400 66.498000 L 45.000000 89.611100 L 44.394500 66.498000 L 44.241600 57.513900 L 45.758300 57.513900 Z M 55.967700 63.397000 L 67.000000 83.716200 L 54.919100 64.002400 L 51.024200 57.513900 L 52.703300 57.513900 Z M 35.080800 64.002400 L 23.000000 83.716200 L 34.032200 63.397000 L 37.296600 57.513900 L 38.975700 57.513900 Z M 63.391300 55.530200 L 83.105100 67.611100 L 62.785800 56.578800 L 60.957600 55.564400 L 62.137600 54.777700 Z M 29.042300 55.564400 L 27.214100 56.578800 L 6.894800 67.611100 L 26.608600 55.530200 L 27.862300 54.777700 Z M 89.000000 45.611100 L 74.927800 45.979700 L 74.281300 45.225500 Z M 15.072100 45.979700 L 1.000000 45.611100 L 15.718600 45.225500 Z M 65.173500 34.599700 L 64.440700 33.744800 L 83.105100 23.611100 Z M 25.559200 33.744800 L 24.826400 34.599700 L 6.894800 23.611100 Z M 33.442900 24.547100 L 32.714100 25.397500 L 27.068800 15.000000 L 27.592400 15.000000 Z M 57.285900 25.397400 L 56.557000 24.547100 L 62.407500 15.000000 L 62.931100 15.000000 Z" transform="scale(1.000000,1.000000) translate(143.000000,82.000000)" fill="#000000" opacity="1.000000"></path>
        <path d="M 25.379600 1.674600 L 48.712900 28.896800 L 48.828600 29.290500 L 48.610600 29.638200 L 36.944000 37.416000 L 36.666600 37.500000 L 13.333300 37.500000 L 13.055900 37.416000 L 1.389300 29.638200 L 1.171300 29.290500 L 1.287000 28.896800 L 24.620300 1.674600 L 25.000000 1.500000 Z M 2.413500 29.119100 L 13.484800 36.500000 L 36.515100 36.500000 L 47.586400 29.119100 L 25.000000 2.768200 Z" transform="scale(1.000000,1.000000) translate(163.000000,98.000000)" fill="#000000" opacity="1.000000"></path>
        <path d="M 14.297900 1.594600 L 14.485000 1.878700 L 18.352900 17.350200 L 26.082600 28.944800 L 26.166600 29.222200 L 26.166600 37.000000 L 25.166600 37.000000 L 25.166600 29.373500 L 17.472800 17.832900 L 17.403800 17.676800 L 14.000000 4.061400 L 10.596100 17.676800 L 10.527100 17.832900 L 2.833300 29.373500 L 2.833300 37.000000 L 1.833300 37.000000 L 1.833300 29.222200 L 1.917300 28.944800 L 9.647000 17.350200 L 13.514900 1.878700 L 13.702000 1.594600 L 14.000000 1.500000 Z" transform="scale(1.000000,1.000000) translate(174.000000,98.000000)" fill="#000000" opacity="1.000000"></path>
        <path d="M 14.255600 1.791300 L 14.447200 1.998600 L 18.025900 9.155800 L 25.313100 1.868600 L 26.020200 2.575700 L 18.242400 10.353500 L 17.808700 10.493500 L 17.441600 10.223600 L 14.000000 3.340300 L 10.558300 10.223600 L 10.191200 10.493500 L 9.757500 10.353500 L 1.979700 2.575700 L 2.686800 1.868600 L 9.974000 9.155800 L 13.552700 1.998600 L 13.744300 1.791300 L 14.000000 1.722200 Z" transform="scale(1.000000,1.000000) translate(174.000000,125.000000)" fill="#000000" opacity="1.000000"></path>
        <path d="M 48.333300 2.722200 L 1.666600 2.722200 L 1.666600 1.722200 L 48.333300 1.722200 Z" transform="scale(1.000000,1.000000) translate(163.000000,125.000000)" fill="#000000" opacity="1.000000"></path>
        <path d="M 7.753900 8.951800 L 6.912700 9.492600 L 1.912700 1.714800 L 2.753900 1.174000 Z" transform="scale(1.000000,1.000000) translate(169.000000,118.000000)" fill="#000000" opacity="1.000000"></path>
        <path d="M 7.087200 1.714800 L 2.087200 9.492600 L 1.246000 8.951800 L 6.246000 1.174000 Z" transform="scale(1.000000,1.000000) translate(198.000000,118.000000)" fill="#000000" opacity="1.000000"></path>
        <path d="M 10.363200 1.713600 L 6.474300 13.380300 L 6.283300 13.636700 L 6.000000 13.722200 L 5.716600 13.636700 L 5.525600 13.380300 L 1.636700 1.713600 L 2.585400 1.397400 L 6.000000 11.641100 L 9.414500 1.397400 Z" transform="scale(1.000000,1.000000) translate(182.000000,114.000000)" fill="#000000" opacity="1.000000"></path>
        <path d="M 1.000000 2.500000 L 291.000000 2.500000 L 291.000000 1.500000 L 1.000000 1.500000 L 1.000000 2.500000 Z" transform="scale(1.000000,1.000000) translate(42.000000,93.000000)" fill="#000000" opacity="1.000000"></path>
        <path d="M 10.291100 1.206800 L 18.124500 6.817900 L 18.333300 7.224400 L 18.124500 7.630800 L 10.291100 13.241900 L 10.000000 13.335500 L 9.708800 13.241900 L 1.875500 7.630800 L 1.666600 7.224400 L 1.875500 6.817900 L 9.708800 1.206800 L 10.000000 1.113200 Z M 3.025200 7.224400 L 10.000000 12.220400 L 16.974700 7.224400 L 10.000000 2.228300 Z" transform="scale(1.000000,1.000000) translate(178.000000,42.000000)" fill="#000000" opacity="1.000000"></path>
        <path d="M 10.082800 1.220700 L 17.916100 6.831800 L 18.105700 7.092800 L 18.101000 7.391200 L 17.931100 7.636400 L 17.625000 7.738200 L 1.958300 7.738200 L 1.652200 7.636400 L 1.482200 7.391200 L 1.477600 7.092800 L 1.667100 6.831800 L 9.500500 1.220700 L 9.791600 1.127100 Z M 3.515000 6.738200 L 16.068300 6.738200 L 9.791700 2.242200 Z" transform="scale(1.000000,1.000000) translate(188.000000,49.000000)" fill="#000000" opacity="1.000000"></path>
        <path d="M 10.499500 1.220700 L 18.332800 6.831800 L 18.522400 7.092800 L 18.517700 7.391200 L 18.347700 7.636400 L 18.041600 7.738200 L 2.375000 7.738200 L 2.068800 7.636400 L 1.898900 7.391200 L 1.894200 7.092800 L 2.083800 6.831800 L 9.917100 1.220700 L 10.208300 1.127100 Z M 3.931600 6.738200 L 16.485000 6.738200 L 10.208300 2.242200 Z" transform="scale(1.000000,1.000000) translate(168.000000,49.000000)" fill="#000000" opacity="1.000000"></path>
        <path d="M 93.696200 2.750000 L 1.000000 2.750000 L 1.000000 1.750000 L 93.696200 1.750000 Z M 291.000000 2.750000 L 198.303700 2.750000 L 198.303700 1.750000 L 291.000000 1.750000 Z" transform="scale(1.000000,1.000000) translate(42.000000,63.000000)" fill="#000000" opacity="1.000000"></path>
        <path d="M 1.446299 6.705100 L 2.014388 6.705100 L 2.014388 2.553250 L 1.446299 2.553250 Z M 2.859455 5.580229 L 3.342754 5.580229 L 3.342754 5.150630 Q 3.557553 5.416303 3.797790 5.532181 Q 4.038026 5.648060 4.331962 5.648060 Q 4.976361 5.648060 5.202466 5.198677 Q 5.326824 4.952788 5.326824 4.494925 L 5.326824 2.553250 L 4.809609 2.553250 L 4.809609 4.461010 Q 4.809609 4.737988 4.727646 4.907567 Q 4.591983 5.190198 4.235868 5.190198 Q 4.054984 5.190198 3.939105 5.153456 Q 3.729958 5.091277 3.571685 4.904741 Q 3.444501 4.754946 3.406346 4.595260 Q 3.368190 4.435573 3.368190 4.138810 L 3.368190 2.553250 L 2.859455 2.553250 Z M 6.381037 3.502891 Q 6.403648 3.248523 6.508221 3.112860 Q 6.700410 2.866971 7.175231 2.866971 Q 7.457862 2.866971 7.672661 2.989915 Q 7.887461 3.112860 7.887461 3.370054 Q 7.887461 3.565069 7.715056 3.666817 Q 7.604830 3.728995 7.279804 3.810958 L 6.875642 3.912706 Q 6.488437 4.008800 6.304727 4.127505 Q 5.976875 4.333826 5.976875 4.698420 Q 5.976875 5.128019 6.286356 5.393692 Q 6.595837 5.659365 7.118704 5.659365 Q 7.802672 5.659365 8.105087 5.258029 Q 8.294450 5.003661 8.288797 4.709725 L 7.808324 4.709725 Q 7.794193 4.882130 7.686793 5.023446 Q 7.511562 5.224114 7.079136 5.224114 Q 6.790852 5.224114 6.642471 5.113887 Q 6.494090 5.003661 6.494090 4.822778 Q 6.494090 4.624936 6.689105 4.506231 Q 6.802158 4.435573 7.022610 4.381873 L 7.358941 4.299910 Q 7.907245 4.167073 8.093781 4.042716 Q 8.390544 3.847700 8.390544 3.429406 Q 8.390544 3.025244 8.083889 2.731308 Q 7.777235 2.437372 7.149794 2.437372 Q 6.474306 2.437372 6.193088 2.744026 Q 5.911870 3.050681 5.892086 3.502891 Z M 10.250256 2.895234 Q 10.606371 2.895234 10.842368 3.193410 Q 11.078365 3.491585 11.078365 4.085110 Q 11.078365 4.446878 10.973792 4.706899 Q 10.775950 5.207156 10.250256 5.207156 Q 9.721736 5.207156 9.526721 4.678636 Q 9.422147 4.396005 9.422147 3.960753 Q 9.422147 3.610290 9.526721 3.364401 Q 9.724563 2.895234 10.250256 2.895234 Z M 8.933196 5.566097 L 9.427800 5.566097 L 9.427800 5.164761 Q 9.580421 5.371082 9.761305 5.484134 Q 10.018499 5.653713 10.366135 5.653713 Q 10.880524 5.653713 11.239465 5.259442 Q 11.598406 4.865172 11.598406 4.133158 Q 11.598406 3.143949 11.081192 2.720003 Q 10.753340 2.451503 10.318088 2.451503 Q 9.976104 2.451503 9.744347 2.601298 Q 9.608684 2.686087 9.441932 2.892407 L 9.441932 1.346416 L 8.933196 1.346416 Z M 12.191932 5.566097 L 12.709146 5.566097 L 12.709146 2.553250 L 12.191932 2.553250 Z M 12.191932 6.705100 L 12.709146 6.705100 L 12.709146 6.128533 L 12.191932 6.128533 Z M 13.492034 5.580229 L 13.975333 5.580229 L 13.975333 5.057361 Q 14.034686 5.209982 14.266443 5.429021 Q 14.498201 5.648060 14.800616 5.648060 Q 14.814748 5.648060 14.848663 5.645234 Q 14.882579 5.642408 14.964542 5.633929 L 14.964542 5.096930 Q 14.919321 5.105409 14.881166 5.108235 Q 14.843011 5.111061 14.797790 5.111061 Q 14.413412 5.111061 14.207091 4.863759 Q 14.000770 4.616457 14.000770 4.294257 L 14.000770 2.553250 L 13.492034 2.553250 Z M 16.665981 5.648060 Q 16.988180 5.648060 17.290596 5.496853 Q 17.593011 5.345645 17.751284 5.105409 Q 17.903905 4.876477 17.954779 4.571236 Q 18.000000 4.362089 18.000000 3.904227 L 15.781346 3.904227 Q 15.795477 3.443538 15.998972 3.165146 Q 16.202466 2.886755 16.629239 2.886755 Q 17.027749 2.886755 17.265159 3.149602 Q 17.400822 3.302222 17.457348 3.502891 L 17.957605 3.502891 Q 17.937821 3.336138 17.826181 3.131231 Q 17.714542 2.926323 17.576053 2.796313 Q 17.344295 2.570208 17.002312 2.491071 Q 16.818602 2.445850 16.586844 2.445850 Q 16.021582 2.445850 15.628725 2.857079 Q 15.235868 3.268307 15.235868 4.008800 Q 15.235868 4.737988 15.631551 5.193024 Q 16.027235 5.648060 16.665981 5.648060 Z M 17.477132 4.308389 Q 17.446043 4.639067 17.332990 4.836909 Q 17.123843 5.204329 16.634892 5.204329 Q 16.284429 5.204329 16.047019 4.951375 Q 15.809609 4.698420 15.795477 4.308389 Z M 18.946813 4.031411 Q 18.946813 3.545285 19.153134 3.217433 Q 19.359455 2.889581 19.814491 2.889581 Q 20.167780 2.889581 20.395298 3.193410 Q 20.622816 3.497238 20.622816 4.065326 Q 20.622816 4.639067 20.388232 4.914633 Q 20.153648 5.190198 19.808838 5.190198 Q 19.424460 5.190198 19.185637 4.896262 Q 18.946813 4.602325 18.946813 4.031411 Z M 19.712744 5.633929 Q 20.060380 5.633929 20.294964 5.486960 Q 20.430626 5.402171 20.603031 5.190198 L 20.603031 6.719232 L 21.091983 6.719232 L 21.091983 2.553250 L 20.634121 2.553250 L 20.634121 2.974370 Q 20.456063 2.694566 20.213001 2.570208 Q 19.969938 2.445850 19.656217 2.445850 Q 19.150308 2.445850 18.780061 2.871210 Q 18.409815 3.296570 18.409815 4.003147 Q 18.409815 4.664504 18.747559 5.149216 Q 19.085303 5.633929 19.712744 5.633929 Z M 23.412384 6.719232 L 23.906988 6.719232 L 23.906988 5.212808 Q 24.073741 5.430434 24.305498 5.544900 Q 24.537256 5.659365 24.808581 5.659365 Q 25.373843 5.659365 25.725719 5.270748 Q 26.077595 4.882130 26.077595 4.124679 Q 26.077595 3.406796 25.729959 2.931976 Q 25.382322 2.457156 24.766187 2.457156 Q 24.421377 2.457156 24.183967 2.623908 Q 24.042651 2.722829 23.881551 2.940455 L 23.881551 2.553250 L 23.412384 2.553250 Z M 24.735097 2.906539 Q 25.147739 2.906539 25.352646 3.234391 Q 25.557554 3.562243 25.557554 4.099242 Q 25.557554 4.576888 25.352646 4.890609 Q 25.147739 5.204329 24.749229 5.204329 Q 24.401593 5.204329 24.140159 4.947135 Q 23.878725 4.689941 23.878725 4.099242 Q 23.878725 3.672469 23.986125 3.406796 Q 24.186793 2.906539 24.735097 2.906539 Z M 28.561922 5.580229 L 29.124357 5.580229 Q 29.016958 5.289119 28.646711 4.251863 Q 28.369732 3.471801 28.183196 2.980023 Q 27.742292 1.821236 27.561408 1.566868 Q 27.380524 1.312500 26.939619 1.312500 Q 26.832220 1.312500 26.774280 1.320979 Q 26.716341 1.329458 26.631552 1.352068 L 26.631552 1.815583 Q 26.764388 1.778841 26.823741 1.770362 Q 26.883093 1.761883 26.928314 1.761883 Q 27.069630 1.761883 27.136048 1.808517 Q 27.202466 1.855152 27.247687 1.922983 Q 27.261819 1.945593 27.349434 2.154740 Q 27.437050 2.363887 27.476618 2.465635 L 26.357399 5.580229 L 26.933967 5.580229 L 27.745118 3.115686 Z M 33.035971 6.812500 Q 33.621017 6.812500 34.047790 6.586395 Q 34.666752 6.261370 34.805241 5.447392 L 34.248458 5.447392 Q 34.146711 5.902428 33.827338 6.110162 Q 33.507965 6.317896 33.021839 6.317896 Q 32.445272 6.317896 32.051002 5.885470 Q 31.656731 5.453045 31.656731 4.596673 Q 31.656731 3.856179 31.981757 3.391251 Q 32.306783 2.926323 33.041624 2.926323 Q 33.604059 2.926323 33.972893 3.252762 Q 34.341726 3.579201 34.350205 4.308389 L 33.050103 4.308389 L 33.050103 4.774730 L 34.873073 4.774730 L 34.873073 2.553250 L 34.511305 2.553250 L 34.375642 3.087423 Q 34.090185 2.773702 33.869733 2.652171 Q 33.499486 2.443024 32.928571 2.443024 Q 32.190904 2.443024 31.659558 2.920671 Q 31.080164 3.519848 31.080164 4.565583 Q 31.080164 5.608492 31.645426 6.224627 Q 32.182425 6.812500 33.035971 6.812500 Z M 36.936279 5.648060 Q 37.258479 5.648060 37.560894 5.496853 Q 37.863309 5.345645 38.021583 5.105409 Q 38.174203 4.876477 38.225077 4.571236 Q 38.270298 4.362089 38.270298 3.904227 L 36.051644 3.904227 Q 36.065776 3.443538 36.269270 3.165146 Q 36.472764 2.886755 36.899537 2.886755 Q 37.298047 2.886755 37.535457 3.149602 Q 37.671120 3.302222 37.727646 3.502891 L 38.227903 3.502891 Q 38.208119 3.336138 38.096480 3.131231 Q 37.984841 2.926323 37.846351 2.796313 Q 37.614594 2.570208 37.272610 2.491071 Q 37.088900 2.445850 36.857143 2.445850 Q 36.291881 2.445850 35.899023 2.857079 Q 35.506166 3.268307 35.506166 4.008800 Q 35.506166 4.737988 35.901850 5.193024 Q 36.297533 5.648060 36.936279 5.648060 Z M 37.747430 4.308389 Q 37.716341 4.639067 37.603289 4.836909 Q 37.394142 5.204329 36.905190 5.204329 Q 36.554727 5.204329 36.317317 4.951375 Q 36.079907 4.698420 36.065776 4.308389 Z M 38.894912 5.580229 L 39.378212 5.580229 L 39.378212 5.150630 Q 39.593011 5.416303 39.833248 5.532181 Q 40.073484 5.648060 40.367420 5.648060 Q 41.011819 5.648060 41.237924 5.198677 Q 41.362281 4.952788 41.362281 4.494925 L 41.362281 2.553250 L 40.845067 2.553250 L 40.845067 4.461010 Q 40.845067 4.737988 40.763104 4.907567 Q 40.627441 5.190198 40.271326 5.190198 Q 40.090442 5.190198 39.974563 5.153456 Q 39.765416 5.091277 39.607143 4.904741 Q 39.479959 4.754946 39.441804 4.595260 Q 39.403648 4.435573 39.403648 4.138810 L 39.403648 2.553250 L 38.894912 2.553250 Z M 42.114080 5.566097 L 42.631295 5.566097 L 42.631295 2.553250 L 42.114080 2.553250 Z M 42.114080 6.705100 L 42.631295 6.705100 L 42.631295 6.128533 L 42.114080 6.128533 Z M 43.908787 5.580229 L 43.908787 3.570722 Q 43.908787 3.338965 43.982271 3.191996 Q 44.117934 2.920671 44.488181 2.920671 Q 45.019527 2.920671 45.211716 3.395491 Q 45.316290 3.649859 45.316290 4.093589 L 45.316290 5.580229 L 45.825026 5.580229 L 45.825026 2.553250 L 45.344553 2.553250 L 45.350205 2.999807 Q 45.251285 2.827402 45.104316 2.708697 Q 44.813206 2.471287 44.397739 2.471287 Q 43.750514 2.471287 43.515930 2.903713 Q 43.388746 3.135470 43.388746 3.522675 L 43.388746 5.580229 Z M 46.921634 3.502891 Q 46.944245 3.248523 47.048818 3.112860 Q 47.241007 2.866971 47.715827 2.866971 Q 47.998458 2.866971 48.213258 2.989915 Q 48.428058 3.112860 48.428058 3.370054 Q 48.428058 3.565069 48.255653 3.666817 Q 48.145426 3.728995 47.820401 3.810958 L 47.416238 3.912706 Q 47.029034 4.008800 46.845324 4.127505 Q 46.517472 4.333826 46.517472 4.698420 Q 46.517472 5.128019 46.826953 5.393692 Q 47.136434 5.659365 47.659301 5.659365 Q 48.343268 5.659365 48.645683 5.258029 Q 48.835046 5.003661 48.829394 4.709725 L 48.348921 4.709725 Q 48.334789 4.882130 48.227389 5.023446 Q 48.052158 5.224114 47.619733 5.224114 Q 47.331449 5.224114 47.183068 5.113887 Q 47.034686 5.003661 47.034686 4.822778 Q 47.034686 4.624936 47.229702 4.506231 Q 47.342754 4.435573 47.563207 4.381873 L 47.899537 4.299910 Q 48.447842 4.167073 48.634378 4.042716 Q 48.931141 3.847700 48.931141 3.429406 Q 48.931141 3.025244 48.624486 2.731308 Q 48.317831 2.437372 47.690390 2.437372 Q 47.014902 2.437372 46.733684 2.744026 Q 46.452467 3.050681 46.432682 3.502891 Z M 50.988695 4.427094 L 52.407503 4.427094 L 52.407503 3.904227 L 50.988695 3.904227 Z M 56.319116 3.033723 Q 56.604574 3.033723 56.788284 3.093076 Q 57.116136 3.203302 57.325283 3.517022 Q 57.492035 3.768564 57.565519 4.161421 Q 57.607914 4.396005 57.607914 4.596673 Q 57.607914 5.368255 57.301259 5.795028 Q 56.994604 6.221801 56.313464 6.221801 L 55.315776 6.221801 L 55.315776 3.033723 Z M 54.750514 6.705100 L 56.432169 6.705100 Q 57.288541 6.705100 57.760535 6.097444 Q 58.181655 5.549139 58.181655 4.692767 Q 58.181655 4.031411 57.932939 3.497238 Q 57.494861 2.553250 56.426516 2.553250 L 54.750514 2.553250 Z M 58.851490 5.580229 L 59.334789 5.580229 L 59.334789 5.057361 Q 59.394142 5.209982 59.625899 5.429021 Q 59.857657 5.648060 60.160072 5.648060 Q 60.174204 5.648060 60.208119 5.645234 Q 60.242035 5.642408 60.323998 5.633929 L 60.323998 5.096930 Q 60.278777 5.105409 60.240622 5.108235 Q 60.202467 5.111061 60.157246 5.111061 Q 59.772868 5.111061 59.566547 4.863759 Q 59.360226 4.616457 59.360226 4.294257 L 59.360226 2.553250 L 58.851490 2.553250 Z M 60.764903 5.566097 L 61.282117 5.566097 L 61.282117 2.553250 L 60.764903 2.553250 Z M 60.764903 6.705100 L 61.282117 6.705100 L 61.282117 6.128533 L 60.764903 6.128533 Z M 62.299589 5.580229 L 63.107914 3.115686 L 63.952981 5.580229 L 64.509764 5.580229 L 63.367934 2.553250 L 62.825283 2.553250 L 61.708890 5.580229 Z M 66.205550 5.648060 Q 66.527749 5.648060 66.830165 5.496853 Q 67.132580 5.345645 67.290853 5.105409 Q 67.443474 4.876477 67.494348 4.571236 Q 67.539569 4.362089 67.539569 3.904227 L 65.320915 3.904227 Q 65.335046 3.443538 65.538541 3.165146 Q 65.742035 2.886755 66.168808 2.886755 Q 66.567318 2.886755 66.804728 3.149602 Q 66.940391 3.302222 66.996917 3.502891 L 67.497174 3.502891 Q 67.477390 3.336138 67.365751 3.131231 Q 67.254111 2.926323 67.115622 2.796313 Q 66.883865 2.570208 66.541881 2.491071 Q 66.358171 2.445850 66.126413 2.445850 Q 65.561151 2.445850 65.168294 2.857079 Q 64.775437 3.268307 64.775437 4.008800 Q 64.775437 4.737988 65.171120 5.193024 Q 65.566804 5.648060 66.205550 5.648060 Z M 67.016701 4.308389 Q 66.985612 4.639067 66.872559 4.836909 Q 66.663412 5.204329 66.174461 5.204329 Q 65.823998 5.204329 65.586588 4.951375 Q 65.349178 4.698420 65.335046 4.308389 Z M 68.164183 5.580229 L 68.647482 5.580229 L 68.647482 5.150630 Q 68.862282 5.416303 69.102518 5.532181 Q 69.342755 5.648060 69.636691 5.648060 Q 70.281090 5.648060 70.507195 5.198677 Q 70.631552 4.952788 70.631552 4.494925 L 70.631552 2.553250 L 70.114337 2.553250 L 70.114337 4.461010 Q 70.114337 4.737988 70.032374 4.907567 Q 69.896711 5.190198 69.540596 5.190198 Q 69.359713 5.190198 69.243834 5.153456 Q 69.034687 5.091277 68.876413 4.904741 Q 68.749229 4.754946 68.711074 4.595260 Q 68.672919 4.435573 68.672919 4.138810 L 68.672919 2.553250 L 68.164183 2.553250 Z M 72.951953 6.719232 L 73.446557 6.719232 L 73.446557 5.212808 Q 73.613310 5.430434 73.845067 5.544900 Q 74.076825 5.659365 74.348150 5.659365 Q 74.913412 5.659365 75.265288 5.270748 Q 75.617164 4.882130 75.617164 4.124679 Q 75.617164 3.406796 75.269528 2.931976 Q 74.921891 2.457156 74.305756 2.457156 Q 73.960946 2.457156 73.723536 2.623908 Q 73.582220 2.722829 73.421121 2.940455 L 73.421121 2.553250 L 72.951953 2.553250 Z M 74.274666 2.906539 Q 74.687308 2.906539 74.892215 3.234391 Q 75.097123 3.562243 75.097123 4.099242 Q 75.097123 4.576888 74.892215 4.890609 Q 74.687308 5.204329 74.288798 5.204329 Q 73.941162 5.204329 73.679728 4.947135 Q 73.418294 4.689941 73.418294 4.099242 Q 73.418294 3.672469 73.525694 3.406796 Q 73.726362 2.906539 74.274666 2.906539 Z M 78.101491 5.580229 L 78.663926 5.580229 Q 78.556527 5.289119 78.186280 4.251863 Q 77.909302 3.471801 77.722765 2.980023 Q 77.281861 1.821236 77.100977 1.566868 Q 76.920093 1.312500 76.479188 1.312500 Q 76.371789 1.312500 76.313849 1.320979 Q 76.255910 1.329458 76.171121 1.352068 L 76.171121 1.815583 Q 76.303957 1.778841 76.363310 1.770362 Q 76.422662 1.761883 76.467883 1.761883 Q 76.609199 1.761883 76.675617 1.808517 Q 76.742035 1.855152 76.787256 1.922983 Q 76.801388 1.945593 76.889003 2.154740 Q 76.976619 2.363887 77.016187 2.465635 L 75.896969 5.580229 L 76.473536 5.580229 L 77.284687 3.115686 Z M 80.834533 6.705100 L 82.702724 6.705100 Q 83.256681 6.705100 83.595838 6.392793 Q 83.934995 6.080486 83.934995 5.515224 Q 83.934995 5.029098 83.632580 4.668744 Q 83.330165 4.308389 82.702724 4.308389 L 81.396969 4.308389 L 81.396969 2.553250 L 80.834533 2.553250 Z M 83.366907 5.512397 Q 83.366907 5.970260 83.027750 6.134186 Q 82.841213 6.221801 82.516188 6.221801 L 81.396969 6.221801 L 81.396969 4.783209 L 82.516188 4.783209 Q 82.894913 4.783209 83.130910 4.944309 Q 83.366907 5.105409 83.366907 5.512397 Z M 84.963772 3.358749 Q 84.963772 3.138296 85.124872 3.011113 Q 85.285972 2.883929 85.506424 2.883929 Q 85.774923 2.883929 86.026465 3.008286 Q 86.450412 3.214607 86.450412 3.683774 L 86.450412 4.093589 Q 86.357143 4.034237 86.210175 3.994669 Q 86.063207 3.955100 85.921892 3.938142 L 85.613824 3.898574 Q 85.336845 3.861832 85.198356 3.782695 Q 84.963772 3.649859 84.963772 3.358749 Z M 86.196044 4.387526 Q 86.371275 4.410136 86.430627 4.534494 Q 86.464543 4.602325 86.464543 4.729509 Q 86.464543 4.989530 86.279420 5.106822 Q 86.094297 5.224114 85.749487 5.224114 Q 85.350977 5.224114 85.184225 5.009314 Q 85.090956 4.890609 85.062693 4.656025 L 84.587873 4.656025 Q 84.602005 5.215635 84.951054 5.434674 Q 85.300103 5.653713 85.760792 5.653713 Q 86.294965 5.653713 86.628469 5.450218 Q 86.959148 5.246724 86.959148 4.817125 L 86.959148 3.073291 Q 86.959148 2.994155 86.991650 2.946107 Q 87.024153 2.898060 87.128726 2.898060 Q 87.162642 2.898060 87.205037 2.902300 Q 87.247431 2.906539 87.295478 2.915018 L 87.295478 2.539119 Q 87.176773 2.505203 87.114595 2.496724 Q 87.052416 2.488245 86.945016 2.488245 Q 86.682169 2.488245 86.563464 2.674782 Q 86.501285 2.773702 86.475848 2.954586 Q 86.320401 2.751092 86.029291 2.601298 Q 85.738181 2.451503 85.387719 2.451503 Q 84.966599 2.451503 84.699512 2.707284 Q 84.432426 2.963065 84.432426 3.347443 Q 84.432426 3.768564 84.695273 4.000321 Q 84.958120 4.232079 85.384893 4.285779 Z M 88.095324 3.502891 Q 88.117935 3.248523 88.222508 3.112860 Q 88.414697 2.866971 88.889518 2.866971 Q 89.172149 2.866971 89.386948 2.989915 Q 89.601748 3.112860 89.601748 3.370054 Q 89.601748 3.565069 89.429343 3.666817 Q 89.319117 3.728995 88.994091 3.810958 L 88.589929 3.912706 Q 88.202724 4.008800 88.019014 4.127505 Q 87.691162 4.333826 87.691162 4.698420 Q 87.691162 5.128019 88.000643 5.393692 Q 88.310124 5.659365 88.832991 5.659365 Q 89.516958 5.659365 89.819374 5.258029 Q 90.008736 5.003661 90.003084 4.709725 L 89.522611 4.709725 Q 89.508480 4.882130 89.401080 5.023446 Q 89.225848 5.224114 88.793423 5.224114 Q 88.505139 5.224114 88.356758 5.113887 Q 88.208377 5.003661 88.208377 4.822778 Q 88.208377 4.624936 88.403392 4.506231 Q 88.516445 4.435573 88.736897 4.381873 L 89.073228 4.299910 Q 89.621532 4.167073 89.808068 4.042716 Q 90.104831 3.847700 90.104831 3.429406 Q 90.104831 3.025244 89.798176 2.731308 Q 89.491522 2.437372 88.864081 2.437372 Q 88.188593 2.437372 87.907375 2.744026 Q 87.626157 3.050681 87.606373 3.502891 Z M 90.989466 3.502891 Q 91.012077 3.248523 91.116650 3.112860 Q 91.308839 2.866971 91.783659 2.866971 Q 92.066290 2.866971 92.281090 2.989915 Q 92.495890 3.112860 92.495890 3.370054 Q 92.495890 3.565069 92.323485 3.666817 Q 92.213259 3.728995 91.888233 3.810958 L 91.484070 3.912706 Q 91.096866 4.008800 90.913156 4.127505 Q 90.585304 4.333826 90.585304 4.698420 Q 90.585304 5.128019 90.894785 5.393692 Q 91.204266 5.659365 91.727133 5.659365 Q 92.411100 5.659365 92.713516 5.258029 Q 92.902878 5.003661 92.897226 4.709725 L 92.416753 4.709725 Q 92.402621 4.882130 92.295222 5.023446 Q 92.119990 5.224114 91.687565 5.224114 Q 91.399281 5.224114 91.250900 5.113887 Q 91.102519 5.003661 91.102519 4.822778 Q 91.102519 4.624936 91.297534 4.506231 Q 91.410586 4.435573 91.631039 4.381873 L 91.967370 4.299910 Q 92.515674 4.167073 92.702210 4.042716 Q 92.998973 3.847700 92.998973 3.429406 Q 92.998973 3.025244 92.692318 2.731308 Q 92.385664 2.437372 91.758223 2.437372 Q 91.082734 2.437372 90.801517 2.744026 Q 90.520299 3.050681 90.500514 3.502891 Z M 93.581193 5.566097 L 94.098408 5.566097 L 94.098408 2.553250 L 93.581193 2.553250 Z M 93.581193 6.705100 L 94.098408 6.705100 L 94.098408 6.128533 L 93.581193 6.128533 Z M 96.068346 2.881102 Q 96.574256 2.881102 96.762205 3.264067 Q 96.950155 3.647032 96.950155 4.116200 Q 96.950155 4.540146 96.814492 4.805820 Q 96.599692 5.224114 96.073999 5.224114 Q 95.607657 5.224114 95.395684 4.867998 Q 95.183711 4.511883 95.183711 4.008800 Q 95.183711 3.525501 95.395684 3.203302 Q 95.607657 2.881102 96.068346 2.881102 Z M 96.088130 5.667844 Q 96.673176 5.667844 97.077339 5.277813 Q 97.481501 4.887783 97.481501 4.130331 Q 97.481501 3.398317 97.125386 2.920671 Q 96.769271 2.443024 96.020299 2.443024 Q 95.395684 2.443024 95.028264 2.865558 Q 94.660843 3.288091 94.660843 4.000321 Q 94.660843 4.763425 95.048048 5.215635 Q 95.435252 5.667844 96.088130 5.667844 Z M 98.086332 5.580229 L 98.569631 5.580229 L 98.569631 5.150630 Q 98.784430 5.416303 99.024667 5.532181 Q 99.264903 5.648060 99.558839 5.648060 Q 100.203238 5.648060 100.429343 5.198677 Q 100.553701 4.952788 100.553701 4.494925 L 100.553701 2.553250 L 100.036486 2.553250 L 100.036486 4.461010 Q 100.036486 4.737988 99.954523 4.907567 Q 99.818860 5.190198 99.462745 5.190198 Q 99.281861 5.190198 99.165982 5.153456 Q 98.956835 5.091277 98.798562 4.904741 Q 98.671378 4.754946 98.633223 4.595260 Q 98.595068 4.435573 98.595068 4.138810 L 98.595068 2.553250 L 98.086332 2.553250 Z" transform="scale(1.000000,1.000000) translate(137.000000,61.000000)" fill="#000000" opacity="1.000000"></path>
    </g>
</svg>