<?xml version="1.0" encoding="UTF-8" standalone="yes"?>
<!DOCTYPE svg PUBLIC "-//W3C//DTD SVG 1.1//EN" "http://www.w3.org/Graphics/SVG/1.1/DTD/svg11.dtd">

<svg width="253" height="176" viewBox="0 0 253 176" xmlns="http://www.w3.org/2000/svg" xmlns:xlink="http://www.w3.org/1999/xlink" version="1.1" baseProfile="full">
    <g transform="scale(1,-1) translate(0,-176)">
        <path d="M 12.944444 15.347375 C 11.449634 16.013736 9.918803 16.500000 8.351954 16.500000 C 7.505495 16.500000 6.605006 16.355922 5.830586 16.031746 C 4.299756 15.401404 3.453297 14.104701 3.453297 12.753968 C 3.453297 11.043040 4.731990 10.124542 7.775641 8.791819 C 9.810745 7.909341 11.611722 7.116911 11.647741 6.162393 C 11.593712 5.604090 11.035409 4.019231 8.351954 4.019231 C 7.127289 4.019231 5.650488 4.343407 4.335775 5.117827 C 2.931013 5.946276 2.228632 7.044872 2.156593 7.765263 C 1.436203 6.954823 1.202076 6.162393 1.202076 5.676129 C 1.202076 3.623016 5.272283 1.840049 7.937729 1.840049 C 10.693223 1.840049 12.404151 3.749084 12.404151 6.216422 C 12.404151 8.341575 11.287546 9.043956 8.856227 10.178571 C 6.911172 11.079060 4.551893 12.213675 4.407814 13.258242 C 4.425824 14.104701 5.794567 14.626984 7.469475 14.626984 C 9.162393 14.626984 11.125458 14.086691 12.079976 12.771978 C 12.674298 13.060134 13.052503 13.816545 13.052503 14.608974 C 13.052503 14.861111 13.016484 14.933150 12.944444 15.347375 Z M 23.642247 13.258242 C 23.642247 15.059219 22.327534 16.283883 20.346459 16.283883 C 18.077228 16.283883 15.771978 14.681013 15.771978 12.862027 C 15.771978 11.781441 16.600427 10.971001 17.735043 10.971001 C 17.897131 10.971001 18.041209 10.989011 18.203297 11.025031 C 17.825092 11.493284 17.644994 11.943529 17.644994 12.537851 C 17.644994 14.176740 18.995726 15.581502 20.364469 15.581502 C 21.336996 15.581502 22.003358 14.861111 22.003358 13.690476 C 22.003358 11.817460 20.274420 10.178571 17.464896 7.873321 C 14.961538 5.820208 13.898962 4.955739 13.592796 3.568987 C 13.772894 2.974664 14.295177 2.398352 14.871490 2.146215 C 15.645910 2.722527 17.194750 2.776557 18.617521 2.794567 C 20.094322 2.812576 21.499084 2.830586 21.967338 3.352869 C 22.111416 3.586996 22.165446 3.857143 22.165446 4.127289 C 22.165446 4.829670 21.805250 5.676129 21.589133 5.910256 C 20.238400 4.721612 18.167277 3.911172 16.258242 3.803114 C 16.708486 4.721612 17.176740 5.333944 18.509463 6.486569 C 21.463065 9.043956 23.642247 10.934982 23.642247 13.258242 Z M 29.495421 4.145299 C 30.197802 2.650488 31.638584 1.840049 33.601648 1.840049 C 37.887973 1.840049 41.634005 6.036325 41.634005 10.718864 C 41.634005 14.158730 38.914530 16.500000 35.078449 16.500000 C 32.034799 16.500000 29.747558 15.023199 29.279304 12.807998 C 29.423382 12.069597 29.945665 11.547314 30.485958 11.367216 C 31.044261 13.276252 32.160867 14.572955 33.655678 15.185287 C 33.151404 13.492369 30.557998 6.558608 29.495421 4.145299 Z M 35.852869 15.599512 C 38.464286 15.599512 40.121184 14.158730 40.121184 11.691392 C 40.121184 7.260989 36.861416 3.406899 32.953297 3.406899 C 32.394994 3.406899 31.890720 3.460928 31.566545 3.568987 C 31.566545 4.253358 32.142857 5.946276 33.511600 8.989927 C 34.592186 11.385226 35.798840 13.726496 36.177045 14.248779 C 35.924908 14.482906 35.186508 14.969170 34.141941 15.347375 C 34.664225 15.509463 35.240537 15.599512 35.852869 15.599512 Z M 49.738400 10.880952 C 49.198107 10.880952 48.333639 10.790904 47.433150 10.646825 C 48.657814 13.384310 49.036020 14.176740 49.324176 14.608974 C 50.314713 14.753053 51.395299 14.915140 52.710012 14.915140 C 53.070208 14.915140 53.502442 14.897131 54.240842 14.825092 C 54.024725 15.869658 53.574481 16.481990 53.016178 16.481990 C 52.205739 16.481990 49.846459 16.085775 46.838828 16.085775 C 46.118437 16.085775 45.740232 16.103785 45.271978 16.175824 C 45.199939 15.995726 45.127900 15.671551 45.127900 15.491453 C 45.127900 14.825092 45.650183 14.356838 46.478632 14.320818 C 46.190476 12.934066 45.902320 12.105617 45.199939 10.250611 C 44.371490 10.052503 43.741148 9.872405 43.615079 9.746337 C 43.777167 9.332112 44.155372 9.007937 44.677656 8.845849 C 43.561050 5.910256 42.840659 4.199328 42.426435 3.334860 C 42.930708 2.524420 43.489011 1.966117 44.029304 1.750000 C 46.064408 2.110195 47.126984 2.218254 48.729853 2.218254 C 49.936508 2.218254 50.584860 2.200244 51.251221 2.182234 C 51.287241 2.344322 51.287241 2.524420 51.287241 2.668498 C 51.287241 3.226801 51.089133 3.713065 50.818987 4.109280 C 48.657814 3.965201 46.694750 3.659035 44.749695 3.262821 C 44.785714 3.965201 45.524115 6.270452 46.622711 8.827839 C 47.577228 8.953907 48.675824 9.188034 49.702381 9.188034 C 50.224664 9.188034 50.602869 9.152015 50.909035 9.097985 C 50.963065 9.242063 50.999084 9.476190 50.999084 9.656288 C 50.999084 10.430708 50.530830 10.880952 49.738400 10.880952 Z M 65.010684 15.347375 C 63.515873 16.013736 61.985043 16.500000 60.418193 16.500000 C 59.571734 16.500000 58.671245 16.355922 57.896825 16.031746 C 56.365995 15.401404 55.519536 14.104701 55.519536 12.753968 C 55.519536 11.043040 56.798230 10.124542 59.841880 8.791819 C 61.876984 7.909341 63.677961 7.116911 63.713980 6.162393 C 63.659951 5.604090 63.101648 4.019231 60.418193 4.019231 C 59.193529 4.019231 57.716728 4.343407 56.402015 5.117827 C 54.997253 5.946276 54.294872 7.044872 54.222833 7.765263 C 53.502442 6.954823 53.268315 6.162393 53.268315 5.676129 C 53.268315 3.623016 57.338523 1.840049 60.003968 1.840049 C 62.759463 1.840049 64.470391 3.749084 64.470391 6.216422 C 64.470391 8.341575 63.353785 9.043956 60.922466 10.178571 C 58.977411 11.079060 56.618132 12.213675 56.474054 13.258242 C 56.492063 14.104701 57.860806 14.626984 59.535714 14.626984 C 61.228632 14.626984 63.191697 14.086691 64.146215 12.771978 C 64.740537 13.060134 65.118742 13.816545 65.118742 14.608974 C 65.118742 14.861111 65.082723 14.933150 65.010684 15.347375 Z M 66.451465 4.235348 C 66.451465 3.821123 66.631563 2.758547 66.955739 2.632479 C 67.405983 2.452381 67.189866 1.822039 68.234432 1.768010 C 68.198413 1.822039 68.180403 1.930098 68.180403 2.146215 C 68.180403 4.811661 70.395604 13.060134 72.466728 14.951160 C 72.268620 15.383394 70.971917 16.031746 70.503663 16.067766 C 69.134921 14.644994 66.451465 6.846764 66.451465 4.235348 Z M 81.561661 8.935897 C 80.427045 8.935897 77.653541 8.269536 76.807082 7.801282 C 77.005189 7.170940 77.581502 6.792735 78.301893 6.792735 C 78.842186 6.792735 79.472527 6.954823 80.138889 7.098901 C 79.940781 5.369963 78.247863 3.082723 76.717033 2.740537 C 75.582418 2.848596 74.681929 4.325397 74.681929 6.414530 C 74.681929 9.242063 75.456349 11.421245 77.239316 13.546398 C 78.481990 15.041209 79.778694 15.887668 80.841270 15.887668 C 81.471612 15.887668 81.831807 15.599512 81.831807 15.059219 C 81.831807 14.356838 81.543651 13.942613 80.715201 13.330281 C 80.805250 12.789988 81.255495 12.321734 81.813797 12.159646 C 82.732295 12.988095 83.092491 13.672466 83.092491 14.500916 C 83.092491 15.761600 82.101954 16.500000 80.463065 16.500000 C 76.248779 16.500000 72.304640 11.763431 72.304640 6.828755 C 72.304640 3.460928 73.727411 1.912088 76.933150 1.840049 C 78.986264 2.362332 81.363553 5.153846 81.669719 7.260989 C 81.975885 7.242979 82.246032 7.206960 82.498168 7.152930 C 82.552198 7.297009 82.570208 7.531136 82.570208 7.711233 C 82.570208 8.485653 82.192002 8.935897 81.561661 8.935897 Z M 84.893468 1.840049 C 84.857448 1.984127 84.839438 2.146215 84.839438 2.650488 C 84.839438 5.514042 86.748474 12.033578 88.117216 14.212759 C 88.261294 10.052503 88.603480 6.666667 89.594017 2.650488 C 89.846154 2.146215 90.800672 1.858059 91.899267 1.858059 C 91.971306 1.858059 92.061355 1.858059 92.133394 1.876068 C 92.115385 1.894078 92.115385 1.912088 92.115385 1.930098 C 92.169414 4.811661 94.510684 14.194750 96.797924 15.131258 C 96.527778 15.653541 95.753358 16.229853 95.231074 16.319902 C 94.330586 16.211844 92.511600 10.286630 91.358974 4.505495 C 90.620574 7.098901 90.494505 9.566239 90.494505 12.177656 C 90.494505 13.492369 90.584554 14.771062 90.692613 15.347375 C 90.584554 15.671551 88.549451 16.463980 87.883089 16.463980 L 88.009158 15.707570 C 86.424298 13.456349 83.146520 5.369963 83.146520 3.190781 C 83.146520 2.542430 83.524725 2.254274 84.893468 1.840049 Z" transform="scale(1.000000,1.000000) translate(78.000000,43.000000)" fill="#000000" opacity="1.000000"></path>
        <path d="M 71.000000 3.500000 L 1.000000 3.500000 L 1.000000 1.500000 L 71.000000 1.500000 Z" transform="scale(1.000000,1.000000) translate(91.000000,102.000000)" fill="#000000" opacity="1.000000"></path>
        <path d="M 3.000000 71.000000 L 1.000000 71.000000 L 1.000000 1.000000 L 3.000000 1.000000 Z" transform="scale(1.000000,1.000000) translate(146.000000,71.000000)" fill="#000000" opacity="1.000000"></path>
        <path d="M 3.000000 71.000000 L 1.000000 71.000000 L 1.000000 1.000000 L 3.000000 1.000000 Z" transform="scale(1.000000,1.000000) translate(104.000000,71.000000)" fill="#000000" opacity="1.000000"></path>
        <path d="M 3.000000 56.000000 L 1.000000 56.000000 L 1.000000 1.000000 L 3.000000 1.000000 Z" transform="scale(1.000000,1.000000) translate(85.000000,71.000000)" fill="#000000" opacity="1.000000"></path>
        <path d="M 3.000000 51.000000 L 1.000000 51.000000 L 1.000000 1.000000 L 3.000000 1.000000 Z" transform="scale(1.000000,1.000000) translate(165.000000,71.000000)" fill="#000000" opacity="1.000000"></path>
        <path d="M 49.411700 2.797300 L 48.664300 3.461600 L 3.664300 43.461600 L 2.916900 44.126000 L 1.588200 42.631200 L 2.335600 41.966800 L 47.335600 1.966800 L 48.083000 1.302500 Z" transform="scale(1.000000,1.000000) translate(124.000000,97.000000)" fill="#000000" opacity="1.000000"></path>
        <path d="M 3.664300 1.966800 L 48.664300 41.966800 L 49.411700 42.631200 L 48.083000 44.126000 L 47.335600 43.461600 L 2.335600 3.461600 L 1.588200 2.797300 L 2.916900 1.302500 Z" transform="scale(1.000000,1.000000) translate(79.000000,97.000000)" fill="#000000" opacity="1.000000"></path>
        <path d="M 91.000000 3.000000 L 1.000000 3.000000 L 1.000000 1.000000 L 91.000000 1.000000 Z" transform="scale(1.000000,1.000000) translate(81.000000,75.000000)" fill="#000000" opacity="1.000000"></path>
        <path d="M 41.000000 26.500000 L 1.000000 26.500000 L 1.000000 1.000000 L 41.000000 1.000000 Z M 16.000000 17.500000 L 16.000000 20.999900 L 16.078500 21.389200 L 16.292800 21.707100 L 16.610700 21.921400 L 17.000000 22.000000 L 20.500000 22.000000 L 20.500000 17.500000 Z M 21.500000 17.500000 L 21.500000 22.000000 L 24.999900 22.000000 L 25.389200 21.921400 L 25.707100 21.707100 L 25.921400 21.389200 L 26.000000 20.999900 L 26.000000 17.500000 Z M 21.500000 12.000000 L 21.500000 16.500000 L 26.000000 16.500000 L 26.000000 13.000000 L 25.921400 12.610700 L 25.707100 12.292800 L 25.389200 12.078500 L 24.999900 12.000000 Z M 17.000000 12.000000 L 16.610700 12.078500 L 16.292800 12.292800 L 16.078500 12.610700 L 16.000000 13.000000 L 16.000000 16.500000 L 20.500000 16.500000 L 20.500000 12.000000 Z" transform="scale(1.000000,1.000000) translate(106.000000,77.000000)" fill="#000000" opacity="1.000000"></path>
        <path d="M 21.000000 18.500000 L 1.000000 1.000000 L 41.000000 1.000000 Z" transform="scale(1.000000,1.000000) translate(106.000000,106.000000)" fill="#000000" opacity="1.000000"></path>
        <path d="M 56.824500 4.898600 L 55.337900 6.236500 L 30.337900 28.736500 L 29.000000 29.940700 L 2.662000 6.236500 L 1.175400 4.898600 L 3.851300 1.925400 L 5.337900 3.263400 L 29.000000 24.559200 L 52.662000 3.263400 L 54.148600 1.925400 Z" transform="scale(1.000000,1.000000) translate(98.000000,104.000000)" fill="#000000" opacity="1.000000"></path>
        <path d="M 7.999900 18.000000 L 1.874900 18.000000 L 1.874900 7.625000 L 7.999900 1.000000 Z" transform="scale(1.000000,1.000000) translate(139.000000,111.000000)" fill="#000000" opacity="1.000000"></path>
        <path d="M 41.696200 2.812500 L 1.436900 2.812500 L 1.436900 1.312500 L 41.696200 1.312500 Z M 186.563000 2.812500 L 146.303700 2.812500 L 146.303700 1.312500 L 186.563000 1.312500 Z" transform="scale(1.000000,1.000000) translate(33.000000,35.000000)" fill="#000000" opacity="1.000000"></path>
        <path d="M 1.446299 6.705100 L 2.014388 6.705100 L 2.014388 2.553250 L 1.446299 2.553250 Z M 2.859455 5.580229 L 3.342754 5.580229 L 3.342754 5.150630 Q 3.557553 5.416303 3.797790 5.532181 Q 4.038026 5.648060 4.331962 5.648060 Q 4.976361 5.648060 5.202466 5.198677 Q 5.326824 4.952788 5.326824 4.494925 L 5.326824 2.553250 L 4.809609 2.553250 L 4.809609 4.461010 Q 4.809609 4.737988 4.727646 4.907567 Q 4.591983 5.190198 4.235868 5.190198 Q 4.054984 5.190198 3.939105 5.153456 Q 3.729958 5.091277 3.571685 4.904741 Q 3.444501 4.754946 3.406346 4.595260 Q 3.368190 4.435573 3.368190 4.138810 L 3.368190 2.553250 L 2.859455 2.553250 Z M 6.381037 3.502891 Q 6.403648 3.248523 6.508221 3.112860 Q 6.700410 2.866971 7.175231 2.866971 Q 7.457862 2.866971 7.672661 2.989915 Q 7.887461 3.112860 7.887461 3.370054 Q 7.887461 3.565069 7.715056 3.666817 Q 7.604830 3.728995 7.279804 3.810958 L 6.875642 3.912706 Q 6.488437 4.008800 6.304727 4.127505 Q 5.976875 4.333826 5.976875 4.698420 Q 5.976875 5.128019 6.286356 5.393692 Q 6.595837 5.659365 7.118704 5.659365 Q 7.802672 5.659365 8.105087 5.258029 Q 8.294450 5.003661 8.288797 4.709725 L 7.808324 4.709725 Q 7.794193 4.882130 7.686793 5.023446 Q 7.511562 5.224114 7.079136 5.224114 Q 6.790852 5.224114 6.642471 5.113887 Q 6.494090 5.003661 6.494090 4.822778 Q 6.494090 4.624936 6.689105 4.506231 Q 6.802158 4.435573 7.022610 4.381873 L 7.358941 4.299910 Q 7.907245 4.167073 8.093781 4.042716 Q 8.390544 3.847700 8.390544 3.429406 Q 8.390544 3.025244 8.083889 2.731308 Q 7.777235 2.437372 7.149794 2.437372 Q 6.474306 2.437372 6.193088 2.744026 Q 5.911870 3.050681 5.892086 3.502891 Z M 10.250256 2.895234 Q 10.606371 2.895234 10.842368 3.193410 Q 11.078365 3.491585 11.078365 4.085110 Q 11.078365 4.446878 10.973792 4.706899 Q 10.775950 5.207156 10.250256 5.207156 Q 9.721736 5.207156 9.526721 4.678636 Q 9.422147 4.396005 9.422147 3.960753 Q 9.422147 3.610290 9.526721 3.364401 Q 9.724563 2.895234 10.250256 2.895234 Z M 8.933196 5.566097 L 9.427800 5.566097 L 9.427800 5.164761 Q 9.580421 5.371082 9.761305 5.484134 Q 10.018499 5.653713 10.366135 5.653713 Q 10.880524 5.653713 11.239465 5.259442 Q 11.598406 4.865172 11.598406 4.133158 Q 11.598406 3.143949 11.081192 2.720003 Q 10.753340 2.451503 10.318088 2.451503 Q 9.976104 2.451503 9.744347 2.601298 Q 9.608684 2.686087 9.441932 2.892407 L 9.441932 1.346416 L 8.933196 1.346416 Z M 12.191932 5.566097 L 12.709146 5.566097 L 12.709146 2.553250 L 12.191932 2.553250 Z M 12.191932 6.705100 L 12.709146 6.705100 L 12.709146 6.128533 L 12.191932 6.128533 Z M 13.492034 5.580229 L 13.975333 5.580229 L 13.975333 5.057361 Q 14.034686 5.209982 14.266443 5.429021 Q 14.498201 5.648060 14.800616 5.648060 Q 14.814748 5.648060 14.848663 5.645234 Q 14.882579 5.642408 14.964542 5.633929 L 14.964542 5.096930 Q 14.919321 5.105409 14.881166 5.108235 Q 14.843011 5.111061 14.797790 5.111061 Q 14.413412 5.111061 14.207091 4.863759 Q 14.000770 4.616457 14.000770 4.294257 L 14.000770 2.553250 L 13.492034 2.553250 Z M 16.665981 5.648060 Q 16.988180 5.648060 17.290596 5.496853 Q 17.593011 5.345645 17.751284 5.105409 Q 17.903905 4.876477 17.954779 4.571236 Q 18.000000 4.362089 18.000000 3.904227 L 15.781346 3.904227 Q 15.795477 3.443538 15.998972 3.165146 Q 16.202466 2.886755 16.629239 2.886755 Q 17.027749 2.886755 17.265159 3.149602 Q 17.400822 3.302222 17.457348 3.502891 L 17.957605 3.502891 Q 17.937821 3.336138 17.826181 3.131231 Q 17.714542 2.926323 17.576053 2.796313 Q 17.344295 2.570208 17.002312 2.491071 Q 16.818602 2.445850 16.586844 2.445850 Q 16.021582 2.445850 15.628725 2.857079 Q 15.235868 3.268307 15.235868 4.008800 Q 15.235868 4.737988 15.631551 5.193024 Q 16.027235 5.648060 16.665981 5.648060 Z M 17.477132 4.308389 Q 17.446043 4.639067 17.332990 4.836909 Q 17.123843 5.204329 16.634892 5.204329 Q 16.284429 5.204329 16.047019 4.951375 Q 15.809609 4.698420 15.795477 4.308389 Z M 18.946813 4.031411 Q 18.946813 3.545285 19.153134 3.217433 Q 19.359455 2.889581 19.814491 2.889581 Q 20.167780 2.889581 20.395298 3.193410 Q 20.622816 3.497238 20.622816 4.065326 Q 20.622816 4.639067 20.388232 4.914633 Q 20.153648 5.190198 19.808838 5.190198 Q 19.424460 5.190198 19.185637 4.896262 Q 18.946813 4.602325 18.946813 4.031411 Z M 19.712744 5.633929 Q 20.060380 5.633929 20.294964 5.486960 Q 20.430626 5.402171 20.603031 5.190198 L 20.603031 6.719232 L 21.091983 6.719232 L 21.091983 2.553250 L 20.634121 2.553250 L 20.634121 2.974370 Q 20.456063 2.694566 20.213001 2.570208 Q 19.969938 2.445850 19.656217 2.445850 Q 19.150308 2.445850 18.780061 2.871210 Q 18.409815 3.296570 18.409815 4.003147 Q 18.409815 4.664504 18.747559 5.149216 Q 19.085303 5.633929 19.712744 5.633929 Z M 23.412384 6.719232 L 23.906988 6.719232 L 23.906988 5.212808 Q 24.073741 5.430434 24.305498 5.544900 Q 24.537256 5.659365 24.808581 5.659365 Q 25.373843 5.659365 25.725719 5.270748 Q 26.077595 4.882130 26.077595 4.124679 Q 26.077595 3.406796 25.729959 2.931976 Q 25.382322 2.457156 24.766187 2.457156 Q 24.421377 2.457156 24.183967 2.623908 Q 24.042651 2.722829 23.881551 2.940455 L 23.881551 2.553250 L 23.412384 2.553250 Z M 24.735097 2.906539 Q 25.147739 2.906539 25.352646 3.234391 Q 25.557554 3.562243 25.557554 4.099242 Q 25.557554 4.576888 25.352646 4.890609 Q 25.147739 5.204329 24.749229 5.204329 Q 24.401593 5.204329 24.140159 4.947135 Q 23.878725 4.689941 23.878725 4.099242 Q 23.878725 3.672469 23.986125 3.406796 Q 24.186793 2.906539 24.735097 2.906539 Z M 28.561922 5.580229 L 29.124357 5.580229 Q 29.016958 5.289119 28.646711 4.251863 Q 28.369732 3.471801 28.183196 2.980023 Q 27.742292 1.821236 27.561408 1.566868 Q 27.380524 1.312500 26.939619 1.312500 Q 26.832220 1.312500 26.774280 1.320979 Q 26.716341 1.329458 26.631552 1.352068 L 26.631552 1.815583 Q 26.764388 1.778841 26.823741 1.770362 Q 26.883093 1.761883 26.928314 1.761883 Q 27.069630 1.761883 27.136048 1.808517 Q 27.202466 1.855152 27.247687 1.922983 Q 27.261819 1.945593 27.349434 2.154740 Q 27.437050 2.363887 27.476618 2.465635 L 26.357399 5.580229 L 26.933967 5.580229 L 27.745118 3.115686 Z M 33.035971 6.812500 Q 33.621017 6.812500 34.047790 6.586395 Q 34.666752 6.261370 34.805241 5.447392 L 34.248458 5.447392 Q 34.146711 5.902428 33.827338 6.110162 Q 33.507965 6.317896 33.021839 6.317896 Q 32.445272 6.317896 32.051002 5.885470 Q 31.656731 5.453045 31.656731 4.596673 Q 31.656731 3.856179 31.981757 3.391251 Q 32.306783 2.926323 33.041624 2.926323 Q 33.604059 2.926323 33.972893 3.252762 Q 34.341726 3.579201 34.350205 4.308389 L 33.050103 4.308389 L 33.050103 4.774730 L 34.873073 4.774730 L 34.873073 2.553250 L 34.511305 2.553250 L 34.375642 3.087423 Q 34.090185 2.773702 33.869733 2.652171 Q 33.499486 2.443024 32.928571 2.443024 Q 32.190904 2.443024 31.659558 2.920671 Q 31.080164 3.519848 31.080164 4.565583 Q 31.080164 5.608492 31.645426 6.224627 Q 32.182425 6.812500 33.035971 6.812500 Z M 36.936279 5.648060 Q 37.258479 5.648060 37.560894 5.496853 Q 37.863309 5.345645 38.021583 5.105409 Q 38.174203 4.876477 38.225077 4.571236 Q 38.270298 4.362089 38.270298 3.904227 L 36.051644 3.904227 Q 36.065776 3.443538 36.269270 3.165146 Q 36.472764 2.886755 36.899537 2.886755 Q 37.298047 2.886755 37.535457 3.149602 Q 37.671120 3.302222 37.727646 3.502891 L 38.227903 3.502891 Q 38.208119 3.336138 38.096480 3.131231 Q 37.984841 2.926323 37.846351 2.796313 Q 37.614594 2.570208 37.272610 2.491071 Q 37.088900 2.445850 36.857143 2.445850 Q 36.291881 2.445850 35.899023 2.857079 Q 35.506166 3.268307 35.506166 4.008800 Q 35.506166 4.737988 35.901850 5.193024 Q 36.297533 5.648060 36.936279 5.648060 Z M 37.747430 4.308389 Q 37.716341 4.639067 37.603289 4.836909 Q 37.394142 5.204329 36.905190 5.204329 Q 36.554727 5.204329 36.317317 4.951375 Q 36.079907 4.698420 36.065776 4.308389 Z M 38.894912 5.580229 L 39.378212 5.580229 L 39.378212 5.150630 Q 39.593011 5.416303 39.833248 5.532181 Q 40.073484 5.648060 40.367420 5.648060 Q 41.011819 5.648060 41.237924 5.198677 Q 41.362281 4.952788 41.362281 4.494925 L 41.362281 2.553250 L 40.845067 2.553250 L 40.845067 4.461010 Q 40.845067 4.737988 40.763104 4.907567 Q 40.627441 5.190198 40.271326 5.190198 Q 40.090442 5.190198 39.974563 5.153456 Q 39.765416 5.091277 39.607143 4.904741 Q 39.479959 4.754946 39.441804 4.595260 Q 39.403648 4.435573 39.403648 4.138810 L 39.403648 2.553250 L 38.894912 2.553250 Z M 42.114080 5.566097 L 42.631295 5.566097 L 42.631295 2.553250 L 42.114080 2.553250 Z M 42.114080 6.705100 L 42.631295 6.705100 L 42.631295 6.128533 L 42.114080 6.128533 Z M 43.908787 5.580229 L 43.908787 3.570722 Q 43.908787 3.338965 43.982271 3.191996 Q 44.117934 2.920671 44.488181 2.920671 Q 45.019527 2.920671 45.211716 3.395491 Q 45.316290 3.649859 45.316290 4.093589 L 45.316290 5.580229 L 45.825026 5.580229 L 45.825026 2.553250 L 45.344553 2.553250 L 45.350205 2.999807 Q 45.251285 2.827402 45.104316 2.708697 Q 44.813206 2.471287 44.397739 2.471287 Q 43.750514 2.471287 43.515930 2.903713 Q 43.388746 3.135470 43.388746 3.522675 L 43.388746 5.580229 Z M 46.921634 3.502891 Q 46.944245 3.248523 47.048818 3.112860 Q 47.241007 2.866971 47.715827 2.866971 Q 47.998458 2.866971 48.213258 2.989915 Q 48.428058 3.112860 48.428058 3.370054 Q 48.428058 3.565069 48.255653 3.666817 Q 48.145426 3.728995 47.820401 3.810958 L 47.416238 3.912706 Q 47.029034 4.008800 46.845324 4.127505 Q 46.517472 4.333826 46.517472 4.698420 Q 46.517472 5.128019 46.826953 5.393692 Q 47.136434 5.659365 47.659301 5.659365 Q 48.343268 5.659365 48.645683 5.258029 Q 48.835046 5.003661 48.829394 4.709725 L 48.348921 4.709725 Q 48.334789 4.882130 48.227389 5.023446 Q 48.052158 5.224114 47.619733 5.224114 Q 47.331449 5.224114 47.183068 5.113887 Q 47.034686 5.003661 47.034686 4.822778 Q 47.034686 4.624936 47.229702 4.506231 Q 47.342754 4.435573 47.563207 4.381873 L 47.899537 4.299910 Q 48.447842 4.167073 48.634378 4.042716 Q 48.931141 3.847700 48.931141 3.429406 Q 48.931141 3.025244 48.624486 2.731308 Q 48.317831 2.437372 47.690390 2.437372 Q 47.014902 2.437372 46.733684 2.744026 Q 46.452467 3.050681 46.432682 3.502891 Z M 50.988695 4.427094 L 52.407503 4.427094 L 52.407503 3.904227 L 50.988695 3.904227 Z M 56.319116 3.033723 Q 56.604574 3.033723 56.788284 3.093076 Q 57.116136 3.203302 57.325283 3.517022 Q 57.492035 3.768564 57.565519 4.161421 Q 57.607914 4.396005 57.607914 4.596673 Q 57.607914 5.368255 57.301259 5.795028 Q 56.994604 6.221801 56.313464 6.221801 L 55.315776 6.221801 L 55.315776 3.033723 Z M 54.750514 6.705100 L 56.432169 6.705100 Q 57.288541 6.705100 57.760535 6.097444 Q 58.181655 5.549139 58.181655 4.692767 Q 58.181655 4.031411 57.932939 3.497238 Q 57.494861 2.553250 56.426516 2.553250 L 54.750514 2.553250 Z M 58.851490 5.580229 L 59.334789 5.580229 L 59.334789 5.057361 Q 59.394142 5.209982 59.625899 5.429021 Q 59.857657 5.648060 60.160072 5.648060 Q 60.174204 5.648060 60.208119 5.645234 Q 60.242035 5.642408 60.323998 5.633929 L 60.323998 5.096930 Q 60.278777 5.105409 60.240622 5.108235 Q 60.202467 5.111061 60.157246 5.111061 Q 59.772868 5.111061 59.566547 4.863759 Q 59.360226 4.616457 59.360226 4.294257 L 59.360226 2.553250 L 58.851490 2.553250 Z M 60.764903 5.566097 L 61.282117 5.566097 L 61.282117 2.553250 L 60.764903 2.553250 Z M 60.764903 6.705100 L 61.282117 6.705100 L 61.282117 6.128533 L 60.764903 6.128533 Z M 62.299589 5.580229 L 63.107914 3.115686 L 63.952981 5.580229 L 64.509764 5.580229 L 63.367934 2.553250 L 62.825283 2.553250 L 61.708890 5.580229 Z M 66.205550 5.648060 Q 66.527749 5.648060 66.830165 5.496853 Q 67.132580 5.345645 67.290853 5.105409 Q 67.443474 4.876477 67.494348 4.571236 Q 67.539569 4.362089 67.539569 3.904227 L 65.320915 3.904227 Q 65.335046 3.443538 65.538541 3.165146 Q 65.742035 2.886755 66.168808 2.886755 Q 66.567318 2.886755 66.804728 3.149602 Q 66.940391 3.302222 66.996917 3.502891 L 67.497174 3.502891 Q 67.477390 3.336138 67.365751 3.131231 Q 67.254111 2.926323 67.115622 2.796313 Q 66.883865 2.570208 66.541881 2.491071 Q 66.358171 2.445850 66.126413 2.445850 Q 65.561151 2.445850 65.168294 2.857079 Q 64.775437 3.268307 64.775437 4.008800 Q 64.775437 4.737988 65.171120 5.193024 Q 65.566804 5.648060 66.205550 5.648060 Z M 67.016701 4.308389 Q 66.985612 4.639067 66.872559 4.836909 Q 66.663412 5.204329 66.174461 5.204329 Q 65.823998 5.204329 65.586588 4.951375 Q 65.349178 4.698420 65.335046 4.308389 Z M 68.164183 5.580229 L 68.647482 5.580229 L 68.647482 5.150630 Q 68.862282 5.416303 69.102518 5.532181 Q 69.342755 5.648060 69.636691 5.648060 Q 70.281090 5.648060 70.507195 5.198677 Q 70.631552 4.952788 70.631552 4.494925 L 70.631552 2.553250 L 70.114337 2.553250 L 70.114337 4.461010 Q 70.114337 4.737988 70.032374 4.907567 Q 69.896711 5.190198 69.540596 5.190198 Q 69.359713 5.190198 69.243834 5.153456 Q 69.034687 5.091277 68.876413 4.904741 Q 68.749229 4.754946 68.711074 4.595260 Q 68.672919 4.435573 68.672919 4.138810 L 68.672919 2.553250 L 68.164183 2.553250 Z M 72.951953 6.719232 L 73.446557 6.719232 L 73.446557 5.212808 Q 73.613310 5.430434 73.845067 5.544900 Q 74.076825 5.659365 74.348150 5.659365 Q 74.913412 5.659365 75.265288 5.270748 Q 75.617164 4.882130 75.617164 4.124679 Q 75.617164 3.406796 75.269528 2.931976 Q 74.921891 2.457156 74.305756 2.457156 Q 73.960946 2.457156 73.723536 2.623908 Q 73.582220 2.722829 73.421121 2.940455 L 73.421121 2.553250 L 72.951953 2.553250 Z M 74.274666 2.906539 Q 74.687308 2.906539 74.892215 3.234391 Q 75.097123 3.562243 75.097123 4.099242 Q 75.097123 4.576888 74.892215 4.890609 Q 74.687308 5.204329 74.288798 5.204329 Q 73.941162 5.204329 73.679728 4.947135 Q 73.418294 4.689941 73.418294 4.099242 Q 73.418294 3.672469 73.525694 3.406796 Q 73.726362 2.906539 74.274666 2.906539 Z M 78.101491 5.580229 L 78.663926 5.580229 Q 78.556527 5.289119 78.186280 4.251863 Q 77.909302 3.471801 77.722765 2.980023 Q 77.281861 1.821236 77.100977 1.566868 Q 76.920093 1.312500 76.479188 1.312500 Q 76.371789 1.312500 76.313849 1.320979 Q 76.255910 1.329458 76.171121 1.352068 L 76.171121 1.815583 Q 76.303957 1.778841 76.363310 1.770362 Q 76.422662 1.761883 76.467883 1.761883 Q 76.609199 1.761883 76.675617 1.808517 Q 76.742035 1.855152 76.787256 1.922983 Q 76.801388 1.945593 76.889003 2.154740 Q 76.976619 2.363887 77.016187 2.465635 L 75.896969 5.580229 L 76.473536 5.580229 L 77.284687 3.115686 Z M 80.834533 6.705100 L 82.702724 6.705100 Q 83.256681 6.705100 83.595838 6.392793 Q 83.934995 6.080486 83.934995 5.515224 Q 83.934995 5.029098 83.632580 4.668744 Q 83.330165 4.308389 82.702724 4.308389 L 81.396969 4.308389 L 81.396969 2.553250 L 80.834533 2.553250 Z M 83.366907 5.512397 Q 83.366907 5.970260 83.027750 6.134186 Q 82.841213 6.221801 82.516188 6.221801 L 81.396969 6.221801 L 81.396969 4.783209 L 82.516188 4.783209 Q 82.894913 4.783209 83.130910 4.944309 Q 83.366907 5.105409 83.366907 5.512397 Z M 84.963772 3.358749 Q 84.963772 3.138296 85.124872 3.011113 Q 85.285972 2.883929 85.506424 2.883929 Q 85.774923 2.883929 86.026465 3.008286 Q 86.450412 3.214607 86.450412 3.683774 L 86.450412 4.093589 Q 86.357143 4.034237 86.210175 3.994669 Q 86.063207 3.955100 85.921892 3.938142 L 85.613824 3.898574 Q 85.336845 3.861832 85.198356 3.782695 Q 84.963772 3.649859 84.963772 3.358749 Z M 86.196044 4.387526 Q 86.371275 4.410136 86.430627 4.534494 Q 86.464543 4.602325 86.464543 4.729509 Q 86.464543 4.989530 86.279420 5.106822 Q 86.094297 5.224114 85.749487 5.224114 Q 85.350977 5.224114 85.184225 5.009314 Q 85.090956 4.890609 85.062693 4.656025 L 84.587873 4.656025 Q 84.602005 5.215635 84.951054 5.434674 Q 85.300103 5.653713 85.760792 5.653713 Q 86.294965 5.653713 86.628469 5.450218 Q 86.959148 5.246724 86.959148 4.817125 L 86.959148 3.073291 Q 86.959148 2.994155 86.991650 2.946107 Q 87.024153 2.898060 87.128726 2.898060 Q 87.162642 2.898060 87.205037 2.902300 Q 87.247431 2.906539 87.295478 2.915018 L 87.295478 2.539119 Q 87.176773 2.505203 87.114595 2.496724 Q 87.052416 2.488245 86.945016 2.488245 Q 86.682169 2.488245 86.563464 2.674782 Q 86.501285 2.773702 86.475848 2.954586 Q 86.320401 2.751092 86.029291 2.601298 Q 85.738181 2.451503 85.387719 2.451503 Q 84.966599 2.451503 84.699512 2.707284 Q 84.432426 2.963065 84.432426 3.347443 Q 84.432426 3.768564 84.695273 4.000321 Q 84.958120 4.232079 85.384893 4.285779 Z M 88.095324 3.502891 Q 88.117935 3.248523 88.222508 3.112860 Q 88.414697 2.866971 88.889518 2.866971 Q 89.172149 2.866971 89.386948 2.989915 Q 89.601748 3.112860 89.601748 3.370054 Q 89.601748 3.565069 89.429343 3.666817 Q 89.319117 3.728995 88.994091 3.810958 L 88.589929 3.912706 Q 88.202724 4.008800 88.019014 4.127505 Q 87.691162 4.333826 87.691162 4.698420 Q 87.691162 5.128019 88.000643 5.393692 Q 88.310124 5.659365 88.832991 5.659365 Q 89.516958 5.659365 89.819374 5.258029 Q 90.008736 5.003661 90.003084 4.709725 L 89.522611 4.709725 Q 89.508480 4.882130 89.401080 5.023446 Q 89.225848 5.224114 88.793423 5.224114 Q 88.505139 5.224114 88.356758 5.113887 Q 88.208377 5.003661 88.208377 4.822778 Q 88.208377 4.624936 88.403392 4.506231 Q 88.516445 4.435573 88.736897 4.381873 L 89.073228 4.299910 Q 89.621532 4.167073 89.808068 4.042716 Q 90.104831 3.847700 90.104831 3.429406 Q 90.104831 3.025244 89.798176 2.731308 Q 89.491522 2.437372 88.864081 2.437372 Q 88.188593 2.437372 87.907375 2.744026 Q 87.626157 3.050681 87.606373 3.502891 Z M 90.989466 3.502891 Q 91.012077 3.248523 91.116650 3.112860 Q 91.308839 2.866971 91.783659 2.866971 Q 92.066290 2.866971 92.281090 2.989915 Q 92.495890 3.112860 92.495890 3.370054 Q 92.495890 3.565069 92.323485 3.666817 Q 92.213259 3.728995 91.888233 3.810958 L 91.484070 3.912706 Q 91.096866 4.008800 90.913156 4.127505 Q 90.585304 4.333826 90.585304 4.698420 Q 90.585304 5.128019 90.894785 5.393692 Q 91.204266 5.659365 91.727133 5.659365 Q 92.411100 5.659365 92.713516 5.258029 Q 92.902878 5.003661 92.897226 4.709725 L 92.416753 4.709725 Q 92.402621 4.882130 92.295222 5.023446 Q 92.119990 5.224114 91.687565 5.224114 Q 91.399281 5.224114 91.250900 5.113887 Q 91.102519 5.003661 91.102519 4.822778 Q 91.102519 4.624936 91.297534 4.506231 Q 91.410586 4.435573 91.631039 4.381873 L 91.967370 4.299910 Q 92.515674 4.167073 92.702210 4.042716 Q 92.998973 3.847700 92.998973 3.429406 Q 92.998973 3.025244 92.692318 2.731308 Q 92.385664 2.437372 91.758223 2.437372 Q 91.082734 2.437372 90.801517 2.744026 Q 90.520299 3.050681 90.500514 3.502891 Z M 93.581193 5.566097 L 94.098408 5.566097 L 94.098408 2.553250 L 93.581193 2.553250 Z M 93.581193 6.705100 L 94.098408 6.705100 L 94.098408 6.128533 L 93.581193 6.128533 Z M 96.068346 2.881102 Q 96.574256 2.881102 96.762205 3.264067 Q 96.950155 3.647032 96.950155 4.116200 Q 96.950155 4.540146 96.814492 4.805820 Q 96.599692 5.224114 96.073999 5.224114 Q 95.607657 5.224114 95.395684 4.867998 Q 95.183711 4.511883 95.183711 4.008800 Q 95.183711 3.525501 95.395684 3.203302 Q 95.607657 2.881102 96.068346 2.881102 Z M 96.088130 5.667844 Q 96.673176 5.667844 97.077339 5.277813 Q 97.481501 4.887783 97.481501 4.130331 Q 97.481501 3.398317 97.125386 2.920671 Q 96.769271 2.443024 96.020299 2.443024 Q 95.395684 2.443024 95.028264 2.865558 Q 94.660843 3.288091 94.660843 4.000321 Q 94.660843 4.763425 95.048048 5.215635 Q 95.435252 5.667844 96.088130 5.667844 Z M 98.086332 5.580229 L 98.569631 5.580229 L 98.569631 5.150630 Q 98.784430 5.416303 99.024667 5.532181 Q 99.264903 5.648060 99.558839 5.648060 Q 100.203238 5.648060 100.429343 5.198677 Q 100.553701 4.952788 100.553701 4.494925 L 100.553701 2.553250 L 100.036486 2.553250 L 100.036486 4.461010 Q 100.036486 4.737988 99.954523 4.907567 Q 99.818860 5.190198 99.462745 5.190198 Q 99.281861 5.190198 99.165982 5.153456 Q 98.956835 5.091277 98.798562 4.904741 Q 98.671378 4.754946 98.633223 4.595260 Q 98.595068 4.435573 98.595068 4.138810 L 98.595068 2.553250 L 98.086332 2.553250 Z" transform="scale(1.000000,1.000000) translate(76.000000,33.000000)" fill="#000000" opacity="1.000000"></path>
    </g>
</svg>