<?xml version="1.0" encoding="UTF-8" standalone="yes"?>
<!DOCTYPE svg PUBLIC "-//W3C//DTD SVG 1.1//EN" "http://www.w3.org/Graphics/SVG/1.1/DTD/svg11.dtd">

<svg width="357" height="207" viewBox="0 0 357 207" xmlns="http://www.w3.org/2000/svg" xmlns:xlink="http://www.w3.org/1999/xlink" version="1.1" baseProfile="full">
    <g transform="scale(1,-1) translate(0,-207)">
        <path d="M 6.937166 1.310928 Q 8.777729 1.310928 10.494671 2.052648 Q 12.211614 2.794367 13.406607 4.058037 Q 14.601599 5.321707 14.903781 6.805145 Q 14.986194 7.272154 14.986194 7.711691 Q 14.986194 9.332485 13.859879 10.541213 Q 12.733565 11.749941 10.838060 12.134536 L 9.464506 12.381776 Q 8.970026 12.491660 8.571695 12.587809 Q 8.173365 12.683958 8.036009 12.711429 L 7.981067 12.738900 L 7.953596 12.738900 Q 6.607513 13.041082 5.810851 13.878950 Q 5.014190 14.716818 5.014190 15.843133 Q 5.014190 17.024389 5.865794 18.068291 Q 6.717397 19.112192 8.104687 19.730291 Q 9.491977 20.348391 11.002887 20.348391 Q 12.733565 20.348391 13.928557 19.524258 Q 15.123549 18.700126 15.288376 17.408985 L 16.469633 17.766109 Q 16.249864 19.414374 14.793896 20.458275 Q 13.337929 21.502176 11.250126 21.502176 Q 9.546919 21.502176 7.967332 20.829135 Q 6.387744 20.156093 5.302636 19.002307 Q 4.217528 17.848522 3.942818 16.474968 Q 3.860404 16.035430 3.860404 15.595893 Q 3.860404 14.139925 4.849363 13.041082 Q 5.838322 11.942238 7.541530 11.585114 Q 8.530489 11.337875 9.024968 11.255461 L 10.371052 10.980750 Q 11.964375 10.678569 12.898391 9.717081 Q 13.832408 8.755593 13.832408 7.491923 Q 13.832408 6.173311 12.884656 5.019525 Q 11.936903 3.865739 10.398523 3.165227 Q 8.860142 2.464714 7.184406 2.464714 Q 5.179016 2.464714 3.832933 3.439937 Q 2.486850 4.415161 2.404437 5.898600 L 1.223180 5.596418 Q 1.278122 4.360219 2.033577 3.384995 Q 2.789032 2.409772 4.066437 1.860350 Q 5.343843 1.310928 6.937166 1.310928 Z M 28.007489 2.959193 L 17.953071 2.959193 Q 18.832146 5.101938 20.288114 6.640319 Q 21.744081 8.178700 23.227520 8.892948 L 27.073472 10.788453 Q 28.694266 11.530172 29.793109 12.862520 Q 30.891953 14.194868 31.221606 15.788190 Q 31.358961 16.474968 31.358961 16.941976 Q 31.358961 18.260588 30.713391 19.290754 Q 30.067820 20.320920 28.914034 20.911548 Q 27.760249 21.502176 26.276810 21.502176 Q 24.326363 21.502176 22.527007 20.499482 Q 20.727651 19.496787 19.711221 17.821051 L 20.700180 17.408985 Q 21.524312 18.755068 22.980280 19.551729 Q 24.436247 20.348391 26.057041 20.348391 Q 27.870133 20.348391 29.023919 19.318225 Q 30.177704 18.288059 30.177704 16.694736 Q 30.177704 16.392554 30.067820 15.788190 Q 29.793109 14.497049 28.914034 13.453148 Q 28.034960 12.409247 26.743819 11.804883 L 22.897867 9.909378 Q 21.002362 8.975361 19.381568 7.176005 Q 17.760774 5.376649 16.881699 3.178962 Q 16.744343 2.849309 16.606988 2.464714 L 16.359748 1.805408 L 27.760249 1.805408 Z M 48.665745 21.035168 Q 50.753547 21.035168 52.333135 20.114886 Q 53.912722 19.194605 54.764326 17.546340 Q 55.615930 15.898075 55.615930 13.755330 Q 55.615930 12.656487 55.368690 11.420288 Q 54.791797 8.728121 53.171003 6.530435 Q 51.550209 4.332748 49.283844 3.069078 Q 47.017480 1.805408 44.572553 1.805408 L 38.473972 1.805408 L 42.567164 21.035168 Z M 50.753547 5.349178 Q 52.044688 6.530435 52.937499 8.082551 Q 53.830309 9.634667 54.214904 11.420288 Q 54.434673 12.409247 54.434673 13.563033 Q 54.434673 15.898075 53.335830 17.491398 Q 52.539168 18.645183 51.261763 19.263283 Q 49.984357 19.881382 48.418505 19.881382 L 43.473710 19.881382 L 39.874998 2.959193 L 44.819793 2.959193 Q 46.385645 2.959193 47.924026 3.577293 Q 49.462406 4.195392 50.753547 5.349178 Z M 61.384858 19.881382 L 59.709121 11.997181 L 70.285489 11.997181 L 70.038250 10.843395 L 59.461882 10.843395 L 57.786145 2.959193 L 68.362513 2.959193 L 68.115274 1.805408 L 56.385120 1.805408 L 60.478312 21.035168 L 72.208465 21.035168 L 71.961226 19.881382 Z M 77.455443 1.310928 Q 79.296005 1.310928 81.012948 2.052648 Q 82.729891 2.794367 83.924883 4.058037 Q 85.119876 5.321707 85.422058 6.805145 Q 85.504471 7.272154 85.504471 7.711691 Q 85.504471 9.332485 84.378156 10.541213 Q 83.251842 11.749941 81.356337 12.134536 L 79.982783 12.381776 Q 79.488303 12.491660 79.089972 12.587809 Q 78.691642 12.683958 78.554286 12.711429 L 78.499344 12.738900 L 78.471873 12.738900 Q 77.125790 13.041082 76.329128 13.878950 Q 75.532467 14.716818 75.532467 15.843133 Q 75.532467 17.024389 76.384070 18.068291 Q 77.235674 19.112192 78.622964 19.730291 Q 80.010254 20.348391 81.521163 20.348391 Q 83.251842 20.348391 84.446834 19.524258 Q 85.641826 18.700126 85.806653 17.408985 L 86.987909 17.766109 Q 86.768141 19.414374 85.312173 20.458275 Q 83.856206 21.502176 81.768403 21.502176 Q 80.065196 21.502176 78.485608 20.829135 Q 76.906021 20.156093 75.820913 19.002307 Q 74.735805 17.848522 74.461094 16.474968 Q 74.378681 16.035430 74.378681 15.595893 Q 74.378681 14.139925 75.367640 13.041082 Q 76.356599 11.942238 78.059807 11.585114 Q 79.048766 11.337875 79.543245 11.255461 L 80.889328 10.980750 Q 82.482651 10.678569 83.416668 9.717081 Q 84.350685 8.755593 84.350685 7.491923 Q 84.350685 6.173311 83.402933 5.019525 Q 82.455180 3.865739 80.916799 3.165227 Q 79.378419 2.464714 77.702682 2.464714 Q 75.697293 2.464714 74.351210 3.439937 Q 73.005127 4.415161 72.922714 5.898600 L 71.741457 5.596418 Q 71.796399 4.360219 72.551854 3.384995 Q 73.307309 2.409772 74.584714 1.860350 Q 75.862120 1.310928 77.455443 1.310928 Z M 92.674424 21.035168 L 91.520639 21.035168 L 87.427447 1.805408 L 88.581232 1.805408 Z M 110.613043 10.925808 L 108.662596 1.805408 L 107.508810 1.805408 L 108.250530 5.294236 L 107.920877 4.909641 Q 106.382496 3.206433 104.500727 2.272416 Q 102.618957 1.338399 100.723452 1.338399 Q 98.635650 1.338399 97.042327 2.313623 Q 95.449004 3.288847 94.583665 5.019525 Q 93.718325 6.750203 93.718325 8.947890 Q 93.718325 10.211560 93.993036 11.420288 Q 94.569929 14.194868 96.245665 16.516174 Q 97.921402 18.837481 100.242708 20.169829 Q 102.564015 21.502176 105.008942 21.502176 Q 107.014331 21.502176 108.607654 20.581895 Q 110.200977 19.661614 111.080052 17.958406 L 110.008679 17.271629 Q 109.212018 18.755068 107.865935 19.551729 Q 106.519851 20.348391 104.761702 20.348391 Q 102.618957 20.348391 100.599832 19.167134 Q 98.580708 17.985877 97.124740 15.939281 Q 95.668772 13.892686 95.146822 11.420288 Q 94.899582 10.266502 94.899582 9.195130 Q 94.899582 7.244683 95.655037 5.720038 Q 96.410492 4.195392 97.784046 3.343789 Q 99.157600 2.492185 100.970692 2.492185 Q 102.564015 2.492185 104.171073 3.302582 Q 105.778132 4.112979 107.096744 5.568947 Q 107.783521 6.310666 108.250530 7.134798 Q 108.717538 7.958931 109.074662 9.112717 L 109.212018 9.772023 L 102.399188 9.772023 L 102.646428 10.925808 Z M 125.392487 1.805408 L 116.931393 19.194605 L 113.222796 1.805408 L 112.069011 1.805408 L 116.162202 21.035168 L 117.453343 21.035168 L 125.914438 3.645971 L 129.623034 21.035168 L 130.776820 21.035168 L 126.683628 1.805408 Z" transform="scale(1.000000,1.000000) translate(113.000000,76.000000)" fill="#000000" opacity="1.000000"></path>
        <path d="M 275.281800 4.351700 L 276.095000 7.048000 L 276.461000 9.594500 L 276.401600 11.996000 L 275.938300 14.257200 L 275.092900 16.382800 L 273.886800 18.377500 L 272.341900 20.246100 L 270.479600 21.993400 L 268.321600 23.624000 L 265.889500 25.142700 L 263.205000 26.554200 L 260.289700 27.863300 L 257.165300 29.074700 L 250.375300 31.223300 L 243.008200 33.037900 L 235.237000 34.556400 L 227.234700 35.816700 L 219.174400 36.856700 L 203.571700 38.427100 L 189.813200 39.570700 L 175.649800 47.672800 L 169.085500 51.351500 L 162.643200 54.674800 L 156.155600 57.562100 L 152.842700 58.817200 L 149.455700 59.933200 L 145.973900 60.899900 L 142.376200 61.707300 L 138.641900 62.345500 L 134.750000 62.804200 L 127.629400 62.875100 L 120.523900 62.632900 L 113.442500 62.098400 L 106.394500 61.292500 L 99.388900 60.236200 L 92.435000 58.950200 L 85.541900 57.455500 L 78.718700 55.773000 L 71.974600 53.923400 L 65.318800 51.927800 L 52.308500 47.581600 L 39.761200 42.901400 L 27.750000 38.054200 L 24.416900 39.927800 L 21.007800 41.436800 L 17.563400 42.601200 L 14.125000 43.440900 L 10.733300 43.976000 L 7.429600 44.226300 L 4.254800 44.211900 L 1.250000 43.952600 L 7.980400 41.648200 L 14.531200 39.253400 L 17.731900 37.913700 L 20.878900 36.421200 L 23.969200 34.732500 L 27.000000 32.804200 L 53.215100 43.245600 L 64.026300 47.291100 L 74.288400 50.672700 L 79.443800 52.142600 L 84.738100 53.480100 L 90.263400 54.696500 L 96.111800 55.803000 L 102.375300 56.810700 L 109.145900 57.731000 L 124.576900 59.353700 L 130.181800 59.386000 L 135.494300 58.989700 L 140.533800 58.213200 L 145.319400 57.105000 L 149.870500 55.713500 L 154.206200 54.087100 L 158.345700 52.274100 L 162.308400 50.323100 L 169.779800 46.200500 L 176.774300 42.106700 L 183.445700 38.428800 L 186.708300 36.866900 L 189.947800 35.554200 L 195.299200 34.951500 L 201.309300 34.429000 L 214.729700 33.381800 L 221.852100 32.735500 L 229.057400 31.926300 L 236.201600 30.893500 L 243.140800 29.576100 L 249.731000 27.913500 L 252.850300 26.933800 L 255.828300 25.844900 L 258.647200 24.639300 L 261.288800 23.309300 L 263.735200 21.847500 L 265.968500 20.246100 L 267.970500 18.497700 L 269.723300 16.594500 L 271.209000 14.529000 L 272.409500 12.293600 L 273.306900 9.880700 L 273.883000 7.282600 L 274.120100 4.491900 L 273.999900 1.500800 Z" transform="scale(1.000000,1.000000) translate(40.000000,85.000000)" fill="#000000" opacity="1.000000"></path>
        <path d="M 2.560600 3.266600 L 4.063400 4.480000 L 5.520800 5.464900 L 6.945300 6.241700 L 8.349200 6.831100 L 9.745100 7.253500 L 12.562500 7.679200 L 15.497000 7.683100 L 18.648400 7.429200 L 22.116200 7.081600 L 26.000000 6.804200 L 20.863900 8.771500 L 16.303900 10.071200 L 14.051500 10.481300 L 11.716900 10.737400 L 6.500000 10.804200 L 3.562500 6.585500 L 2.187500 4.276900 L 1.000000 1.804200 Z" transform="scale(1.000000,1.000000) translate(44.000000,108.000000)" fill="#000000" opacity="1.000000"></path>
        <path d="M 60.561700 3.241900 L 59.916200 4.873800 L 59.075000 6.396300 L 58.049500 7.811300 L 56.851200 9.120700 L 55.491600 10.326400 L 53.981900 11.430300 L 52.333800 12.434300 L 48.668000 14.150200 L 44.585600 15.489300 L 40.178200 16.466800 L 35.537400 17.097800 L 30.754800 17.397700 L 25.922000 17.381500 L 21.130600 17.064500 L 16.472200 16.461800 L 12.038300 15.588700 L 7.920600 14.460300 L 4.210600 13.091900 L 1.000000 11.498700 L 6.066500 13.263800 L 11.076800 14.558700 L 16.005300 15.415800 L 20.826300 15.867500 L 25.514400 15.946400 L 30.043900 15.685000 L 34.389400 15.115700 L 38.525300 14.271000 L 42.426000 13.183400 L 46.066000 11.885500 L 49.419800 10.409600 L 52.461700 8.788300 L 55.166200 7.054100 L 57.507800 5.239400 L 59.460900 3.376800 L 61.000000 1.498700 Z" transform="scale(1.000000,1.000000) translate(73.000000,101.000000)" fill="#000000" opacity="1.000000"></path>
        <path d="M 90.167500 17.087200 L 86.804300 18.703700 L 83.358700 20.009900 L 79.809400 21.019600 L 76.135000 21.746700 L 72.314000 22.205000 L 68.325200 22.408300 L 64.147100 22.370700 L 59.758400 22.105800 L 55.137700 21.627700 L 50.263600 20.950000 L 39.669500 19.051800 L 27.805400 16.522100 L 14.500000 13.471800 L 9.147600 11.942100 L 6.481800 10.938500 L 4.172800 9.801500 L 2.482800 8.550400 L 1.951900 7.888000 L 1.674200 7.204200 L 1.682300 6.501600 L 2.009100 5.782500 L 2.687400 5.049200 L 3.750000 4.304200 L 4.329300 5.465100 L 5.213200 6.517200 L 6.385700 7.470700 L 7.830800 8.335900 L 9.532800 9.123000 L 11.475800 9.842500 L 16.021200 11.119100 L 21.340100 12.248100 L 27.305400 13.311600 L 40.667500 15.570700 L 48.832400 5.139400 L 46.601600 17.037800 L 57.176400 18.364900 L 62.077200 18.899100 L 64.714700 19.006700 L 68.500000 19.054200 L 71.740200 18.982600 L 74.893800 18.624900 L 77.953600 18.016600 L 80.912700 17.193300 L 83.763900 16.190700 L 86.500400 15.044200 L 91.600600 12.462300 L 96.156900 9.732300 L 100.113100 7.139000 L 103.412900 4.966900 L 106.000000 3.500800 L 81.000000 2.438800 L 118.986200 1.271300 Z" transform="scale(1.000000,1.000000) translate(103.000000,118.000000)" fill="#000000" opacity="1.000000"></path>
        <path d="M 56.884700 2.846900 L 56.547100 4.081700 L 55.998800 5.206500 L 55.251900 6.225200 L 54.318200 7.141400 L 53.209700 7.958600 L 51.938200 8.680700 L 50.515600 9.311200 L 47.264800 10.312100 L 43.552700 10.990800 L 39.474300 11.376600 L 35.124900 11.498700 L 30.599800 11.386400 L 25.994100 11.069000 L 21.403000 10.575800 L 16.921800 9.936200 L 8.669900 8.334600 L 5.089500 7.431300 L 1.999900 6.498700 L 12.576600 8.045000 L 21.878900 8.943400 L 30.015100 9.207500 L 33.679800 9.106100 L 37.093700 8.851200 L 40.270300 8.444800 L 43.223100 7.888400 L 45.965700 7.183800 L 48.511700 6.332800 L 50.874500 5.337100 L 53.067800 4.198300 L 55.105100 2.918200 L 56.999900 1.498700 Z" transform="scale(1.000000,1.000000) translate(217.000000,101.000000)" fill="#000000" opacity="1.000000"></path>
        <path d="M 27.089800 1.558100 L 28.140100 1.992200 L 29.000000 2.804200 L 26.239700 4.990800 L 23.230400 7.030800 L 20.004300 8.895100 L 16.593700 10.554200 L 13.030700 11.979000 L 9.347600 13.140200 L 5.576600 14.008300 L 1.750000 14.554200 L 10.109300 11.683100 L 13.966700 10.278400 L 17.250000 8.835500 L 18.592000 8.086000 L 19.689400 7.310600 L 20.508500 6.503600 L 21.015600 5.659700 L 21.177000 4.773300 L 20.958900 3.838900 L 20.327800 2.851100 L 19.250000 1.804200 L 20.520000 1.878000 L 21.863200 1.784700 L 24.593700 1.460500 L 25.893000 1.411200 Z" transform="scale(1.000000,1.000000) translate(272.000000,96.000000)" fill="#000000" opacity="1.000000"></path>
        <path d="M 39.983200 3.394700 L 1.436900 3.394700 L 1.436900 1.894700 L 39.983200 1.894700 Z M 186.563000 3.394700 L 148.016700 3.394700 L 148.016700 1.894700 L 186.563000 1.894700 Z" transform="scale(1.000000,1.000000) translate(85.000000,65.000000)" fill="#000000" opacity="1.000000"></path>
        <path d="M 1.733223 7.291930 L 2.156765 7.291930 L 2.156765 3.056507 L 1.733223 3.056507 Z M 2.907040 6.233075 L 3.330582 6.233075 L 3.330582 5.936595 Q 3.499999 6.106012 3.717821 6.196771 Q 3.935643 6.287530 4.177667 6.287530 Q 4.528602 6.287530 4.819031 6.099961 Q 5.109460 5.912392 5.278877 5.594736 Q 5.448294 5.277079 5.448294 4.889840 L 5.448294 3.056507 L 5.024752 3.056507 L 5.024752 4.889840 Q 5.024752 5.156067 4.912816 5.379939 Q 4.800879 5.603812 4.607260 5.733900 Q 4.413641 5.863988 4.177667 5.863988 Q 3.941693 5.863988 3.748074 5.733900 Q 3.554455 5.603812 3.442519 5.379939 Q 3.330582 5.156067 3.330582 4.889840 L 3.330582 3.056507 L 2.907040 3.056507 Z M 7.148514 3.002051 Q 6.737073 3.002051 6.416391 3.207772 Q 6.095709 3.413493 6.004950 3.740225 L 6.410340 3.849136 Q 6.464796 3.667618 6.673542 3.546606 Q 6.882288 3.425594 7.148514 3.425594 Q 7.457095 3.425594 7.680967 3.582909 Q 7.904840 3.740225 7.904840 3.951996 Q 7.904840 4.121413 7.747524 4.266628 Q 7.590208 4.411842 7.342134 4.460247 L 7.124312 4.496551 Q 7.015401 4.514703 6.954895 4.529829 Q 6.894389 4.544956 6.876237 4.551006 Q 6.519251 4.623614 6.292354 4.862612 Q 6.065456 5.101611 6.065456 5.404142 Q 6.065456 5.640115 6.210670 5.842810 Q 6.355885 6.045506 6.603960 6.166518 Q 6.852035 6.287530 7.148514 6.287530 Q 7.517601 6.287530 7.808030 6.106012 Q 8.098459 5.924494 8.201319 5.640115 L 7.795929 5.507002 Q 7.747524 5.664318 7.562981 5.764153 Q 7.378437 5.863988 7.148514 5.863988 Q 6.882288 5.863988 6.685643 5.727849 Q 6.488998 5.591710 6.488998 5.404142 Q 6.488998 5.252876 6.616061 5.134890 Q 6.743124 5.016903 6.942794 4.968498 L 6.948844 4.968498 L 6.973047 4.962447 L 7.196919 4.914043 Q 7.215071 4.907992 7.278602 4.898916 Q 7.342134 4.889840 7.420791 4.871688 Q 7.820131 4.799081 8.074257 4.541930 Q 8.328382 4.284780 8.328382 3.951996 Q 8.328382 3.691820 8.168041 3.473999 Q 8.007700 3.256177 7.738448 3.129114 Q 7.469196 3.002051 7.148514 3.002051 Z M 8.885038 6.233075 L 9.308580 6.233075 L 9.308580 5.803482 Q 9.514301 6.027354 9.789603 6.157442 Q 10.064906 6.287530 10.373487 6.287530 Q 10.784928 6.287530 11.126787 6.069708 Q 11.468646 5.851886 11.668316 5.476749 Q 11.867986 5.101611 11.867986 4.647816 Q 11.867986 4.194021 11.668316 3.815858 Q 11.468646 3.437695 11.126787 3.219873 Q 10.784928 3.002051 10.373487 3.002051 Q 10.064906 3.002051 9.789603 3.132139 Q 9.514301 3.262227 9.308580 3.486100 L 9.308580 1.997651 L 8.885038 1.997651 Z M 10.373487 3.425594 Q 10.669966 3.425594 10.915016 3.588960 Q 11.160065 3.752326 11.302255 4.030654 Q 11.444444 4.308982 11.444444 4.647816 Q 11.444444 4.980599 11.302255 5.258927 Q 11.160065 5.537255 10.915016 5.700621 Q 10.669966 5.863988 10.373487 5.863988 Q 10.077007 5.863988 9.834983 5.700621 Q 9.592959 5.537255 9.450769 5.258927 Q 9.308580 4.980599 9.308580 4.647816 Q 9.308580 4.308982 9.450769 4.030654 Q 9.592959 3.752326 9.834983 3.588960 Q 10.077007 3.425594 10.373487 3.425594 Z M 13.090208 7.049906 Q 13.090208 7.170918 13.002475 7.258652 Q 12.914741 7.346386 12.793729 7.346386 Q 12.672717 7.346386 12.584983 7.258652 Q 12.497249 7.170918 12.497249 7.049906 Q 12.497249 6.928894 12.584983 6.841160 Q 12.672717 6.753427 12.793729 6.753427 Q 12.914741 6.753427 13.002475 6.841160 Q 13.090208 6.928894 13.090208 7.049906 Z M 13.005500 6.233075 L 12.581958 6.233075 L 12.581958 3.056507 L 13.005500 3.056507 Z M 13.779977 6.233075 L 14.203520 6.233075 L 14.203520 5.870038 Q 14.391089 6.069708 14.636138 6.178619 Q 14.881188 6.287530 15.159515 6.287530 Q 15.468096 6.287530 15.746424 6.148366 Q 16.024752 6.009202 16.212321 5.755077 L 15.873487 5.494901 Q 15.740373 5.670368 15.555830 5.767178 Q 15.371287 5.863988 15.159515 5.863988 Q 14.893289 5.863988 14.675467 5.718773 Q 14.457645 5.573559 14.330582 5.322458 Q 14.203520 5.071358 14.203520 4.768828 L 14.203520 3.056507 L 13.779977 3.056507 Z M 17.973047 3.002051 Q 17.561606 3.002051 17.219746 3.219873 Q 16.877887 3.437695 16.681243 3.812832 Q 16.484598 4.187970 16.484598 4.641765 Q 16.484598 5.101611 16.672167 5.479774 Q 16.859735 5.857937 17.189493 6.072733 Q 17.519251 6.287530 17.924642 6.287530 Q 18.330032 6.287530 18.656765 6.072733 Q 18.983498 5.857937 19.174092 5.479774 Q 19.364686 5.101611 19.364686 4.641765 L 19.364686 4.429994 L 16.926292 4.429994 Q 16.992849 3.994351 17.286303 3.709972 Q 17.579757 3.425594 17.973047 3.425594 Q 18.196919 3.425594 18.399614 3.522403 Q 18.602310 3.619213 18.753575 3.794681 L 19.074257 3.528454 Q 18.868536 3.274329 18.581133 3.138190 Q 18.293729 3.002051 17.973047 3.002051 Z M 18.922992 4.853537 Q 18.868536 5.301281 18.593234 5.582634 Q 18.317931 5.863988 17.924642 5.863988 Q 17.531353 5.863988 17.256050 5.582634 Q 16.980748 5.301281 16.920241 4.853537 Z M 21.349284 3.002051 Q 20.937843 3.002051 20.595984 3.219873 Q 20.254125 3.437695 20.057480 3.812832 Q 19.860836 4.187970 19.860836 4.641765 Q 19.860836 5.095561 20.057480 5.473724 Q 20.254125 5.851886 20.595984 6.069708 Q 20.937843 6.287530 21.349284 6.287530 Q 21.657865 6.287530 21.933168 6.157442 Q 22.208470 6.027354 22.420242 5.797431 L 22.420242 7.291930 L 22.843784 7.291930 L 22.843784 3.056507 L 22.420242 3.056507 L 22.420242 3.486100 Q 22.214521 3.256177 21.939218 3.129114 Q 21.663916 3.002051 21.349284 3.002051 Z M 21.349284 3.425594 Q 21.645764 3.425594 21.890814 3.585935 Q 22.135863 3.746276 22.278052 4.024604 Q 22.420242 4.302931 22.420242 4.641765 Q 22.420242 4.980599 22.278052 5.258927 Q 22.135863 5.537255 21.890814 5.700621 Q 21.645764 5.863988 21.349284 5.863988 Q 21.052805 5.863988 20.810781 5.700621 Q 20.568756 5.537255 20.426567 5.258927 Q 20.284378 4.980599 20.284378 4.641765 Q 20.284378 4.302931 20.426567 4.024604 Q 20.568756 3.746276 20.810781 3.585935 Q 21.052805 3.425594 21.349284 3.425594 Z M 26.534653 3.002051 Q 26.226072 3.002051 25.947744 3.129114 Q 25.669417 3.256177 25.469747 3.486100 L 25.469747 3.056507 L 25.046204 3.056507 L 25.046204 7.291930 L 25.469747 7.291930 L 25.469747 5.797431 Q 25.675467 6.027354 25.950770 6.157442 Q 26.226072 6.287530 26.534653 6.287530 Q 26.946094 6.287530 27.287953 6.069708 Q 27.629813 5.851886 27.829483 5.473724 Q 28.029153 5.095561 28.029153 4.641765 Q 28.029153 4.187970 27.829483 3.812832 Q 27.629813 3.437695 27.287953 3.219873 Q 26.946094 3.002051 26.534653 3.002051 Z M 26.534653 3.425594 Q 26.831133 3.425594 27.076182 3.585935 Q 27.321232 3.746276 27.463421 4.024604 Q 27.605610 4.302931 27.605610 4.641765 Q 27.605610 4.980599 27.463421 5.258927 Q 27.321232 5.537255 27.076182 5.700621 Q 26.831133 5.863988 26.534653 5.863988 Q 26.238173 5.863988 25.996149 5.700621 Q 25.754125 5.537255 25.611936 5.258927 Q 25.469747 4.980599 25.469747 4.641765 Q 25.469747 4.302931 25.611936 4.024604 Q 25.754125 3.746276 25.996149 3.585935 Q 26.238173 3.425594 26.534653 3.425594 Z M 28.864136 1.894791 Q 28.610011 1.894791 28.398239 2.009752 L 28.597909 2.384890 Q 28.718922 2.318333 28.864136 2.318333 Q 29.275577 2.318333 29.505500 2.965748 L 29.541804 3.056507 L 28.343784 6.233075 L 28.797579 6.233075 L 29.765676 3.661567 L 30.739824 6.233075 L 31.187568 6.233075 L 29.904840 2.820533 Q 29.572057 1.894791 28.864136 1.894791 Z M 35.132563 2.947596 Q 34.575907 2.947596 34.116061 3.244076 Q 33.656215 3.540555 33.389989 4.048806 Q 33.123762 4.557057 33.123762 5.174219 Q 33.123762 5.785330 33.389989 6.296606 Q 33.656215 6.807882 34.116061 7.101336 Q 34.575907 7.394791 35.132563 7.394791 Q 35.592409 7.394791 35.997800 7.189070 Q 36.403190 6.983350 36.681518 6.608212 L 36.342684 6.354087 Q 36.118812 6.650566 35.807205 6.810907 Q 35.495599 6.971248 35.132563 6.971248 Q 34.696919 6.971248 34.333883 6.732249 Q 33.970847 6.493251 33.759076 6.081809 Q 33.547304 5.670368 33.547304 5.174219 Q 33.547304 4.678069 33.759076 4.263603 Q 33.970847 3.849136 34.333883 3.610137 Q 34.696919 3.371138 35.132563 3.371138 Q 35.459296 3.371138 35.752750 3.531479 Q 36.046204 3.691820 36.257976 3.982249 Q 36.360836 4.133515 36.415291 4.296881 Q 36.469747 4.460247 36.500000 4.696221 L 36.500000 4.732524 L 35.108361 4.732524 L 35.108361 5.156067 L 36.923542 5.156067 L 36.923542 3.056507 L 36.500000 3.056507 L 36.500000 3.613162 Q 36.233773 3.292480 35.879813 3.120038 Q 35.525852 2.947596 35.132563 2.947596 Z M 39.029153 3.002051 Q 38.617712 3.002051 38.275852 3.219873 Q 37.933993 3.437695 37.737349 3.812832 Q 37.540704 4.187970 37.540704 4.641765 Q 37.540704 5.101611 37.728273 5.479774 Q 37.915841 5.857937 38.245599 6.072733 Q 38.575357 6.287530 38.980748 6.287530 Q 39.386138 6.287530 39.712871 6.072733 Q 40.039604 5.857937 40.230198 5.479774 Q 40.420792 5.101611 40.420792 4.641765 L 40.420792 4.429994 L 37.982398 4.429994 Q 38.048955 3.994351 38.342409 3.709972 Q 38.635863 3.425594 39.029153 3.425594 Q 39.253025 3.425594 39.455720 3.522403 Q 39.658416 3.619213 39.809681 3.794681 L 40.130363 3.528454 Q 39.924642 3.274329 39.637239 3.138190 Q 39.349835 3.002051 39.029153 3.002051 Z M 39.979098 4.853537 Q 39.924642 5.301281 39.649340 5.582634 Q 39.374037 5.863988 38.980748 5.863988 Q 38.587459 5.863988 38.312156 5.582634 Q 38.036853 5.301281 37.976347 4.853537 Z M 40.977448 6.233075 L 41.400990 6.233075 L 41.400990 5.936595 Q 41.570407 6.106012 41.788229 6.196771 Q 42.006050 6.287530 42.248075 6.287530 Q 42.599010 6.287530 42.889439 6.099961 Q 43.179868 5.912392 43.349285 5.594736 Q 43.518702 5.277079 43.518702 4.889840 L 43.518702 3.056507 L 43.095159 3.056507 L 43.095159 4.889840 Q 43.095159 5.156067 42.983223 5.379939 Q 42.871287 5.603812 42.677668 5.733900 Q 42.484048 5.863988 42.248075 5.863988 Q 42.012101 5.863988 41.818482 5.733900 Q 41.624862 5.603812 41.512926 5.379939 Q 41.400990 5.156067 41.400990 4.889840 L 41.400990 3.056507 L 40.977448 3.056507 Z M 44.801430 7.049906 Q 44.801430 7.170918 44.713696 7.258652 Q 44.625962 7.346386 44.504950 7.346386 Q 44.383938 7.346386 44.296204 7.258652 Q 44.208471 7.170918 44.208471 7.049906 Q 44.208471 6.928894 44.296204 6.841160 Q 44.383938 6.753427 44.504950 6.753427 Q 44.625962 6.753427 44.713696 6.841160 Q 44.801430 6.928894 44.801430 7.049906 Z M 44.716722 6.233075 L 44.293179 6.233075 L 44.293179 3.056507 L 44.716722 3.056507 Z M 46.761826 3.002051 Q 46.410891 3.002051 46.120462 3.186595 Q 45.830033 3.371138 45.660616 3.691820 Q 45.491199 4.012502 45.491199 4.399741 L 45.491199 6.233075 L 45.914741 6.233075 L 45.914741 4.399741 Q 45.914741 4.133515 46.026678 3.909642 Q 46.138614 3.685770 46.332233 3.555682 Q 46.525852 3.425594 46.761826 3.425594 Q 46.997800 3.425594 47.191419 3.555682 Q 47.385038 3.685770 47.496975 3.909642 Q 47.608911 4.133515 47.608911 4.399741 L 47.608911 6.233075 L 48.032453 6.233075 L 48.032453 3.056507 L 47.608911 3.056507 L 47.608911 3.346936 Q 47.439494 3.183570 47.221672 3.092810 Q 47.003850 3.002051 46.761826 3.002051 Z M 49.732673 3.002051 Q 49.321232 3.002051 49.000550 3.207772 Q 48.679868 3.413493 48.589109 3.740225 L 48.994499 3.849136 Q 49.048955 3.667618 49.257701 3.546606 Q 49.466447 3.425594 49.732673 3.425594 Q 50.041254 3.425594 50.265126 3.582909 Q 50.488999 3.740225 50.488999 3.951996 Q 50.488999 4.121413 50.331683 4.266628 Q 50.174367 4.411842 49.926293 4.460247 L 49.708471 4.496551 Q 49.599560 4.514703 49.539054 4.529829 Q 49.478548 4.544956 49.460396 4.551006 Q 49.103410 4.623614 48.876513 4.862612 Q 48.649615 5.101611 48.649615 5.404142 Q 48.649615 5.640115 48.794829 5.842810 Q 48.940044 6.045506 49.188119 6.166518 Q 49.436194 6.287530 49.732673 6.287530 Q 50.101760 6.287530 50.392189 6.106012 Q 50.682618 5.924494 50.785479 5.640115 L 50.380088 5.507002 Q 50.331683 5.664318 50.147140 5.764153 Q 49.962596 5.863988 49.732673 5.863988 Q 49.466447 5.863988 49.269802 5.727849 Q 49.073157 5.591710 49.073157 5.404142 Q 49.073157 5.252876 49.200220 5.134890 Q 49.327283 5.016903 49.526953 4.968498 L 49.533003 4.968498 L 49.557206 4.962447 L 49.781078 4.914043 Q 49.799230 4.907992 49.862761 4.898916 Q 49.926293 4.889840 50.004950 4.871688 Q 50.404290 4.799081 50.658416 4.541930 Q 50.912541 4.284780 50.912541 3.951996 Q 50.912541 3.691820 50.752200 3.473999 Q 50.591859 3.256177 50.322607 3.129114 Q 50.053355 3.002051 49.732673 3.002051 Z M 54.996700 4.914043 L 53.090759 4.914043 L 53.090759 4.532854 L 54.996700 4.532854 Z M 57.308031 7.291930 L 58.717822 7.291930 Q 59.274478 7.291930 59.725248 7.016628 Q 60.176018 6.741325 60.436194 6.257277 Q 60.696370 5.773229 60.696370 5.174219 Q 60.696370 4.575209 60.436194 4.091160 Q 60.176018 3.607112 59.725248 3.331809 Q 59.274478 3.056507 58.717822 3.056507 L 57.308031 3.056507 Z M 58.717822 3.480049 Q 59.165567 3.480049 59.519527 3.697871 Q 59.873487 3.915693 60.073157 4.302931 Q 60.272827 4.690170 60.272827 5.174219 Q 60.272827 5.658267 60.073157 6.045506 Q 59.873487 6.432744 59.519527 6.650566 Q 59.165567 6.868388 58.717822 6.868388 L 57.731573 6.868388 L 57.731573 3.480049 Z M 61.313531 6.233075 L 61.737074 6.233075 L 61.737074 5.870038 Q 61.924643 6.069708 62.169692 6.178619 Q 62.414742 6.287530 62.693069 6.287530 Q 63.001650 6.287530 63.279978 6.148366 Q 63.558306 6.009202 63.745875 5.755077 L 63.407041 5.494901 Q 63.273928 5.670368 63.089384 5.767178 Q 62.904841 5.863988 62.693069 5.863988 Q 62.426843 5.863988 62.209021 5.718773 Q 61.991199 5.573559 61.864137 5.322458 Q 61.737074 5.071358 61.737074 4.768828 L 61.737074 3.056507 L 61.313531 3.056507 Z M 64.744225 7.049906 Q 64.744225 7.170918 64.656491 7.258652 Q 64.568757 7.346386 64.447745 7.346386 Q 64.326733 7.346386 64.238999 7.258652 Q 64.151265 7.170918 64.151265 7.049906 Q 64.151265 6.928894 64.238999 6.841160 Q 64.326733 6.753427 64.447745 6.753427 Q 64.568757 6.753427 64.656491 6.841160 Q 64.744225 6.928894 64.744225 7.049906 Z M 64.659516 6.233075 L 64.235974 6.233075 L 64.235974 3.056507 L 64.659516 3.056507 Z M 65.179868 6.233075 L 65.633664 6.233075 L 66.601760 3.655517 L 67.575908 6.233075 L 68.023653 6.233075 L 66.831683 3.056507 L 66.377888 3.056507 Z M 69.814632 3.002051 Q 69.403191 3.002051 69.061331 3.219873 Q 68.719472 3.437695 68.522828 3.812832 Q 68.326183 4.187970 68.326183 4.641765 Q 68.326183 5.101611 68.513752 5.479774 Q 68.701320 5.857937 69.031078 6.072733 Q 69.360836 6.287530 69.766227 6.287530 Q 70.171617 6.287530 70.498350 6.072733 Q 70.825083 5.857937 71.015677 5.479774 Q 71.206271 5.101611 71.206271 4.641765 L 71.206271 4.429994 L 68.767877 4.429994 Q 68.834434 3.994351 69.127888 3.709972 Q 69.421342 3.425594 69.814632 3.425594 Q 70.038504 3.425594 70.241199 3.522403 Q 70.443895 3.619213 70.595160 3.794681 L 70.915842 3.528454 Q 70.710121 3.274329 70.422718 3.138190 Q 70.135314 3.002051 69.814632 3.002051 Z M 70.764577 4.853537 Q 70.710121 5.301281 70.434819 5.582634 Q 70.159516 5.863988 69.766227 5.863988 Q 69.372938 5.863988 69.097635 5.582634 Q 68.822332 5.301281 68.761826 4.853537 Z M 71.762927 6.233075 L 72.186469 6.233075 L 72.186469 5.936595 Q 72.355886 6.106012 72.573708 6.196771 Q 72.791529 6.287530 73.033554 6.287530 Q 73.384489 6.287530 73.674918 6.099961 Q 73.965347 5.912392 74.134764 5.594736 Q 74.304181 5.277079 74.304181 4.889840 L 74.304181 3.056507 L 73.880638 3.056507 L 73.880638 4.889840 Q 73.880638 5.156067 73.768702 5.379939 Q 73.656766 5.603812 73.463147 5.733900 Q 73.269527 5.863988 73.033554 5.863988 Q 72.797580 5.863988 72.603961 5.733900 Q 72.410341 5.603812 72.298405 5.379939 Q 72.186469 5.156067 72.186469 4.889840 L 72.186469 3.056507 L 71.762927 3.056507 Z M 77.995050 3.002051 Q 77.686469 3.002051 77.408141 3.129114 Q 77.129813 3.256177 76.930143 3.486100 L 76.930143 3.056507 L 76.506601 3.056507 L 76.506601 7.291930 L 76.930143 7.291930 L 76.930143 5.797431 Q 77.135864 6.027354 77.411166 6.157442 Q 77.686469 6.287530 77.995050 6.287530 Q 78.406491 6.287530 78.748350 6.069708 Q 79.090209 5.851886 79.289879 5.473724 Q 79.489549 5.095561 79.489549 4.641765 Q 79.489549 4.187970 79.289879 3.812832 Q 79.090209 3.437695 78.748350 3.219873 Q 78.406491 3.002051 77.995050 3.002051 Z M 77.995050 3.425594 Q 78.291530 3.425594 78.536579 3.585935 Q 78.781629 3.746276 78.923818 4.024604 Q 79.066007 4.302931 79.066007 4.641765 Q 79.066007 4.980599 78.923818 5.258927 Q 78.781629 5.537255 78.536579 5.700621 Q 78.291530 5.863988 77.995050 5.863988 Q 77.698570 5.863988 77.456546 5.700621 Q 77.214522 5.537255 77.072333 5.258927 Q 76.930143 4.980599 76.930143 4.641765 Q 76.930143 4.302931 77.072333 4.024604 Q 77.214522 3.746276 77.456546 3.585935 Q 77.698570 3.425594 77.995050 3.425594 Z M 80.324533 1.894791 Q 80.070407 1.894791 79.858636 2.009752 L 80.058306 2.384890 Q 80.179318 2.318333 80.324533 2.318333 Q 80.735974 2.318333 80.965897 2.965748 L 81.002201 3.056507 L 79.804181 6.233075 L 80.257976 6.233075 L 81.226073 3.661567 L 82.200220 6.233075 L 82.647965 6.233075 L 81.365237 2.820533 Q 81.032454 1.894791 80.324533 1.894791 Z M 84.656766 5.174219 L 84.656766 7.291930 L 86.544555 7.291930 Q 86.853136 7.291930 87.104236 7.137640 Q 87.355336 6.983350 87.500551 6.717123 Q 87.645765 6.450896 87.645765 6.124164 Q 87.645765 5.797431 87.500551 5.531204 Q 87.355336 5.264978 87.104236 5.113713 Q 86.853136 4.962447 86.544555 4.962447 L 85.080309 4.962447 L 85.080309 3.056507 L 84.656766 3.056507 Z M 86.544555 5.385990 Q 86.841035 5.385990 87.031629 5.594736 Q 87.222223 5.803482 87.222223 6.124164 Q 87.222223 6.444846 87.031629 6.656617 Q 86.841035 6.868388 86.544555 6.868388 L 85.080309 6.868388 L 85.080309 5.385990 Z M 89.400441 3.002051 Q 89.049505 3.002051 88.759076 3.138190 Q 88.468647 3.274329 88.299230 3.513327 Q 88.129814 3.752326 88.129814 4.036705 Q 88.129814 4.321083 88.299230 4.560082 Q 88.468647 4.799081 88.759076 4.935220 Q 89.049505 5.071358 89.400441 5.071358 Q 89.890540 5.071358 90.247525 4.811182 L 90.247525 5.059257 Q 90.247525 5.410192 89.999450 5.637090 Q 89.751376 5.863988 89.364137 5.863988 Q 89.128163 5.863988 88.934544 5.770203 Q 88.740925 5.676419 88.619913 5.507002 L 88.268977 5.742975 Q 88.450496 6.003152 88.737899 6.145341 Q 89.025303 6.287530 89.364137 6.287530 Q 89.733224 6.287530 90.029704 6.127189 Q 90.326183 5.966848 90.498625 5.685495 Q 90.671068 5.404142 90.671068 5.059257 L 90.671068 3.056507 L 90.247525 3.056507 L 90.247525 3.262227 Q 89.890540 3.002051 89.400441 3.002051 Z M 89.400441 3.425594 Q 89.757426 3.425594 90.002476 3.601061 Q 90.247525 3.776529 90.247525 4.036705 Q 90.247525 4.296881 90.002476 4.472348 Q 89.757426 4.647816 89.400441 4.647816 Q 89.043455 4.647816 88.798405 4.472348 Q 88.553356 4.296881 88.553356 4.036705 Q 88.553356 3.776529 88.798405 3.601061 Q 89.043455 3.425594 89.400441 3.425594 Z M 92.371288 3.002051 Q 91.959847 3.002051 91.639164 3.207772 Q 91.318482 3.413493 91.227723 3.740225 L 91.633114 3.849136 Q 91.687569 3.667618 91.896315 3.546606 Q 92.105061 3.425594 92.371288 3.425594 Q 92.679869 3.425594 92.903741 3.582909 Q 93.127613 3.740225 93.127613 3.951996 Q 93.127613 4.121413 92.970298 4.266628 Q 92.812982 4.411842 92.564907 4.460247 L 92.347085 4.496551 Q 92.238174 4.514703 92.177668 4.529829 Q 92.117162 4.544956 92.099010 4.551006 Q 91.742025 4.623614 91.515127 4.862612 Q 91.288229 5.101611 91.288229 5.404142 Q 91.288229 5.640115 91.433444 5.842810 Q 91.578658 6.045506 91.826733 6.166518 Q 92.074808 6.287530 92.371288 6.287530 Q 92.740375 6.287530 93.030804 6.106012 Q 93.321233 5.924494 93.424093 5.640115 L 93.018702 5.507002 Q 92.970298 5.664318 92.785754 5.764153 Q 92.601211 5.863988 92.371288 5.863988 Q 92.105061 5.863988 91.908416 5.727849 Q 91.711772 5.591710 91.711772 5.404142 Q 91.711772 5.252876 91.838834 5.134890 Q 91.965897 5.016903 92.165567 4.968498 L 92.171618 4.968498 L 92.195820 4.962447 L 92.419693 4.914043 Q 92.437844 4.907992 92.501376 4.898916 Q 92.564907 4.889840 92.643565 4.871688 Q 93.042905 4.799081 93.297030 4.541930 Q 93.551156 4.284780 93.551156 3.951996 Q 93.551156 3.691820 93.390815 3.473999 Q 93.230474 3.256177 92.961222 3.129114 Q 92.691970 3.002051 92.371288 3.002051 Z M 95.178769 3.002051 Q 94.767327 3.002051 94.446645 3.207772 Q 94.125963 3.413493 94.035204 3.740225 L 94.440595 3.849136 Q 94.495050 3.667618 94.703796 3.546606 Q 94.912542 3.425594 95.178769 3.425594 Q 95.487349 3.425594 95.711222 3.582909 Q 95.935094 3.740225 95.935094 3.951996 Q 95.935094 4.121413 95.777778 4.266628 Q 95.620463 4.411842 95.372388 4.460247 L 95.154566 4.496551 Q 95.045655 4.514703 94.985149 4.529829 Q 94.924643 4.544956 94.906491 4.551006 Q 94.549506 4.623614 94.322608 4.862612 Q 94.095710 5.101611 94.095710 5.404142 Q 94.095710 5.640115 94.240925 5.842810 Q 94.386139 6.045506 94.634214 6.166518 Q 94.882289 6.287530 95.178769 6.287530 Q 95.547855 6.287530 95.838284 6.106012 Q 96.128714 5.924494 96.231574 5.640115 L 95.826183 5.507002 Q 95.777778 5.664318 95.593235 5.764153 Q 95.408692 5.863988 95.178769 5.863988 Q 94.912542 5.863988 94.715897 5.727849 Q 94.519253 5.591710 94.519253 5.404142 Q 94.519253 5.252876 94.646315 5.134890 Q 94.773378 5.016903 94.973048 4.968498 L 94.979099 4.968498 L 95.003301 4.962447 L 95.227173 4.914043 Q 95.245325 4.907992 95.308857 4.898916 Q 95.372388 4.889840 95.451046 4.871688 Q 95.850386 4.799081 96.104511 4.541930 Q 96.358637 4.284780 96.358637 3.951996 Q 96.358637 3.691820 96.198295 3.473999 Q 96.037954 3.256177 95.768703 3.129114 Q 95.499451 3.002051 95.178769 3.002051 Z M 97.568758 7.049906 Q 97.568758 7.170918 97.481024 7.258652 Q 97.393290 7.346386 97.272278 7.346386 Q 97.151266 7.346386 97.063532 7.258652 Q 96.975798 7.170918 96.975798 7.049906 Q 96.975798 6.928894 97.063532 6.841160 Q 97.151266 6.753427 97.272278 6.753427 Q 97.393290 6.753427 97.481024 6.841160 Q 97.568758 6.928894 97.568758 7.049906 Z M 97.484049 6.233075 L 97.060507 6.233075 L 97.060507 3.056507 L 97.484049 3.056507 Z M 99.674368 3.002051 Q 99.262927 3.002051 98.921068 3.219873 Q 98.579209 3.437695 98.382564 3.812832 Q 98.185919 4.187970 98.185919 4.641765 Q 98.185919 5.095561 98.382564 5.473724 Q 98.579209 5.851886 98.921068 6.069708 Q 99.262927 6.287530 99.674368 6.287530 Q 100.085809 6.287530 100.427668 6.069708 Q 100.769528 5.851886 100.969198 5.473724 Q 101.168868 5.095561 101.168868 4.641765 Q 101.168868 4.187970 100.969198 3.812832 Q 100.769528 3.437695 100.427668 3.219873 Q 100.085809 3.002051 99.674368 3.002051 Z M 99.674368 3.425594 Q 99.970848 3.425594 100.215897 3.585935 Q 100.460947 3.746276 100.603136 4.024604 Q 100.745325 4.302931 100.745325 4.641765 Q 100.745325 4.980599 100.603136 5.258927 Q 100.460947 5.537255 100.215897 5.700621 Q 99.970848 5.863988 99.674368 5.863988 Q 99.377888 5.863988 99.135864 5.700621 Q 98.893840 5.537255 98.751651 5.258927 Q 98.609462 4.980599 98.609462 4.641765 Q 98.609462 4.302931 98.751651 4.024604 Q 98.893840 3.746276 99.135864 3.585935 Q 99.377888 3.425594 99.674368 3.425594 Z M 101.725523 6.233075 L 102.149066 6.233075 L 102.149066 5.936595 Q 102.318483 6.106012 102.536304 6.196771 Q 102.754126 6.287530 102.996150 6.287530 Q 103.347085 6.287530 103.637515 6.099961 Q 103.927944 5.912392 104.097360 5.594736 Q 104.266777 5.277079 104.266777 4.889840 L 104.266777 3.056507 L 103.843235 3.056507 L 103.843235 4.889840 Q 103.843235 5.156067 103.731299 5.379939 Q 103.619363 5.603812 103.425743 5.733900 Q 103.232124 5.863988 102.996150 5.863988 Q 102.760177 5.863988 102.566557 5.733900 Q 102.372938 5.603812 102.261002 5.379939 Q 102.149066 5.156067 102.149066 4.889840 L 102.149066 3.056507 L 101.725523 3.056507 Z" transform="scale(1.000000,1.000000) translate(126.000000,63.000000)" fill="#000000" opacity="1.000000"></path>
        <path d="M 1.510000 11.559078 L 3.329434 13.378513 L 8.376821 14.626792 L 14.090970 15.807872 L 20.471903 16.921756 L 27.519644 17.968449 L 34.893020 18.875585 L 42.250861 19.570795 L 49.593196 20.054080 L 56.920053 20.325445 L 60.490447 20.364212 L 63.882507 20.315108 L 67.096235 20.178135 L 70.131635 19.953291 L 72.988709 19.640576 L 75.667459 19.239990 L 78.167889 18.751532 L 80.490000 18.175203 L 78.670562 16.355769 L 77.178053 15.782025 L 75.512394 15.259970 L 73.673581 14.789605 L 71.661613 14.370929 L 67.118203 13.688643 L 61.882147 13.213109 L 61.799447 13.130408 L 56.858032 12.396432 L 48.815296 11.352324 L 44.209842 10.737230 L 39.986900 10.091126 L 36.146454 9.414008 L 32.688490 8.705874 L 29.457955 7.912455 L 26.299795 6.979480 L 23.213998 5.906946 L 20.200555 4.694848 L 20.738115 4.260664 L 21.192974 4.115937 L 25.751900 3.712766 L 27.666954 3.642987 L 29.339077 3.661078 L 37.774638 4.198638 L 42.498968 4.508770 L 46.003445 4.612146 L 44.184010 2.792712 L 40.731222 2.699673 L 35.996553 2.420555 L 27.560994 1.924345 L 23.984154 1.955358 L 19.373539 2.296502 L 18.877329 2.585958 L 18.339769 3.123518 L 18.060652 3.392298 L 17.802209 3.537026 L 19.621643 5.356460 L 22.867680 6.783063 L 26.320470 8.085612 L 10.855277 4.612146 L 12.674711 6.431581 L 14.266719 6.757218 L 16.148175 7.237920 L 20.779466 8.664523 L 25.162653 10.091127 L 27.891800 10.897466 L 31.795585 11.811063 L 35.815657 12.608360 L 39.952021 13.289356 L 44.204680 13.854051 L 48.573639 14.302447 L 53.058902 14.634544 L 57.660473 14.850343 L 62.378355 14.949843 L 66.849418 15.285818 L 70.751893 15.714831 L 74.085792 16.236884 L 76.851130 16.851979 L 74.418534 17.348190 L 71.834757 17.761699 L 69.099795 18.092506 L 66.213647 18.340610 L 63.176309 18.506013 L 59.987779 18.588713 L 56.648053 18.588712 L 53.157129 18.506009 L 46.031859 18.167450 L 38.922122 17.647983 L 31.827892 16.947605 L 24.749141 16.066314 L 17.993441 15.055802 L 11.868365 13.967762 L 6.373892 12.802189 L 1.510000 11.559078 Z" transform="scale(1.000000,1.000000) translate(138.000000,38.000000)" opacity="1.000000"></path>
    </g>
</svg>